<svg xmlns="http://www.w3.org/2000/svg" width="1842" height="1816" fill="none" viewBox="0 0 1842 1816"><g clip-path="url(#clip0)"><path fill="url(#paint0_linear)" d="M856.034 1491.02C625.815 1520.23 510.731 1534.83 423.308 1489.36C312.908 1431.91 197.427 1301.56 206.895 1169.28C216.488 1035.24 347.188 999.48 330.135 906.401C308.422 787.971 89.2574 803.633 21.4657 651.476C-19.7298 559.091 -1.43723 413.129 77.1119 355.76C219.313 251.877 426.902 534.632 961.998 657.944C1233.07 720.392 1396.29 697.718 1435.42 799.42C1472.6 896.662 1378.02 1059.48 1252.57 1123.11C1119.05 1190.89 987.032 1127.8 954.314 1190.02C919.389 1256.54 1054.2 1357.87 1016.28 1433.23C1000.37 1464.38 962.221 1477.49 856.034 1491.02Z"/><path fill="#fff" d="M433.222 18.6851C438.382 18.6851 442.566 14.5023 442.566 9.34256C442.566 4.18281 438.382 0 433.222 0C428.061 0 423.877 4.18281 423.877 9.34256C423.877 14.5023 428.061 18.6851 433.222 18.6851Z"/><path fill="#48276B" d="M204.416 425.421L79.0947 274.577C78.8081 274.065 78.414 273.621 77.9395 273.276C77.465 272.93 76.9214 272.692 76.346 272.577C75.7706 272.461 75.177 272.472 74.6061 272.608C74.0352 272.744 73.5005 273.002 73.0388 273.364C72.577 273.726 72.1991 274.184 71.9311 274.706C71.6631 275.228 71.5113 275.801 71.4862 276.388C71.461 276.974 71.5631 277.558 71.7854 278.101C72.0078 278.644 72.345 279.133 72.7741 279.533L198.12 430.377C198.403 430.897 198.795 431.349 199.271 431.702C199.746 432.054 200.293 432.299 200.873 432.418C201.452 432.538 202.051 432.529 202.627 432.393C203.203 432.257 203.743 431.997 204.208 431.631C204.673 431.265 205.052 430.802 205.32 430.274C205.587 429.746 205.736 429.166 205.756 428.574C205.776 427.983 205.666 427.394 205.435 426.849C205.203 426.305 204.856 425.817 204.416 425.421Z"/><path fill="#48276B" d="M185.678 489.407L36.0409 309.296C35.7585 308.776 35.3659 308.324 34.8906 307.971C34.4152 307.619 33.8685 307.374 33.2888 307.255C32.709 307.135 32.1102 307.144 31.5341 307.28C30.958 307.416 30.4186 307.676 29.9536 308.042C29.4885 308.408 29.109 308.871 28.8417 309.399C28.5743 309.927 28.4255 310.507 28.4056 311.099C28.3858 311.69 28.4953 312.279 28.7267 312.824C28.9581 313.368 29.3056 313.856 29.7451 314.252L179.382 494.363C179.665 494.883 180.057 495.335 180.533 495.688C181.008 496.041 181.555 496.285 182.135 496.405C182.714 496.524 183.313 496.515 183.889 496.379C184.465 496.243 185.005 495.983 185.47 495.617C185.935 495.251 186.314 494.788 186.582 494.26C186.849 493.732 186.998 493.152 187.018 492.56C187.038 491.969 186.928 491.38 186.697 490.836C186.465 490.291 186.118 489.803 185.678 489.407Z"/><path stroke="#fff" stroke-miterlimit="10" stroke-width=".78" d="M349.814 1043.79L240.753 1209.82"/><path stroke="#fff" stroke-miterlimit="10" stroke-width=".78" d="M373.611 1042.92L257.113 1220.26"/><path stroke="#fff" stroke-miterlimit="10" stroke-width=".78" d="M383.153 1065.67L263.78 1247.29"/><path stroke="#fff" stroke-miterlimit="10" stroke-width=".78" d="M416.864 1049.69L290.452 1242.21"/><path stroke="#fff" stroke-miterlimit="10" stroke-width=".78" d="M416.491 1087.55L307.43 1253.59"/><path stroke="#fff" stroke-miterlimit="10" stroke-width=".78" d="M432.678 1098.21L311.223 1282.93"/><path stroke="#fff" stroke-miterlimit="10" stroke-width=".78" d="M459.745 1094.34L340.769 1275.37"/><path stroke="#fff" stroke-miterlimit="10" stroke-width=".78" d="M466.015 1120.12L356.953 1286.15"/><path stroke="#fff" stroke-miterlimit="10" stroke-width=".78" d="M225.956 1157.78L416.814 1283.08"/><path stroke="#fff" stroke-miterlimit="10" stroke-width=".78" d="M205.11 1120.88L441.898 1276.44"/><path stroke="#fff" stroke-miterlimit="10" stroke-width=".78" d="M234.632 1115.71L438.701 1249.75"/><path stroke="#fff" stroke-miterlimit="10" stroke-width=".78" d="M206.424 1074.05L468.395 1246.13"/><path stroke="#fff" stroke-miterlimit="10" stroke-width=".78" d="M256.419 1082.37L460.538 1216.44"/><path stroke="#fff" stroke-miterlimit="10" stroke-width=".78" d="M264.648 1064.58L471.196 1200.21"/><path stroke="#fff" stroke-miterlimit="10" stroke-width=".78" d="M278.33 1049.04L527.833 1212.95"/><path stroke="#fff" stroke-miterlimit="10" stroke-width=".78" d="M288.988 1032.84L493.132 1166.98"/><path fill="#fff" d="M909.573 521.077C919.402 521.077 927.37 513.111 927.37 503.284C927.37 493.457 919.402 485.491 909.573 485.491C899.744 485.491 891.776 493.457 891.776 503.284C891.776 513.111 899.744 521.077 909.573 521.077Z"/><path fill="#fff" d="M628.939 1105.35C638.768 1105.35 646.736 1097.38 646.736 1087.55C646.736 1077.73 638.768 1069.76 628.939 1069.76C619.111 1069.76 611.143 1077.73 611.143 1087.55C611.143 1097.38 619.111 1105.35 628.939 1105.35Z"/><path fill="#fff" d="M538.417 892.053C543.331 892.053 547.315 888.07 547.315 883.157C547.315 878.243 543.331 874.26 538.417 874.26C533.502 874.26 529.519 878.243 529.519 883.157C529.519 888.07 533.502 892.053 538.417 892.053Z"/><path fill="#9A83BD" d="M750.791 436.969C760.62 436.969 768.588 429.003 768.588 419.176C768.588 409.349 760.62 401.383 750.791 401.383C740.962 401.383 732.994 409.349 732.994 419.176C732.994 429.003 740.962 436.969 750.791 436.969Z"/><path fill="#D4C3DF" d="M1314.66 892.028C1319.56 892.028 1323.54 888.056 1323.54 883.156C1323.54 878.257 1319.56 874.285 1314.66 874.285C1309.76 874.285 1305.79 878.257 1305.79 883.156C1305.79 888.056 1309.76 892.028 1314.66 892.028Z"/><path fill="#D4C3DF" d="M107.7 605.185C114.572 605.185 120.143 599.615 120.143 592.744C120.143 585.874 114.572 580.304 107.7 580.304C100.828 580.304 95.2568 585.874 95.2568 592.744C95.2568 599.615 100.828 605.185 107.7 605.185Z"/><path fill="#D4C3DF" d="M646.735 710.431C652.786 710.431 657.691 705.527 657.691 699.477C657.691 693.428 652.786 688.524 646.735 688.524C640.684 688.524 635.779 693.428 635.779 699.477C635.779 705.527 640.684 710.431 646.735 710.431Z"/><path fill="#48276B" d="M153.182 1135.46C161.231 1135.46 167.757 1128.93 167.757 1120.88C167.757 1112.84 161.231 1106.31 153.182 1106.31C145.133 1106.31 138.607 1112.84 138.607 1120.88C138.607 1128.93 145.133 1135.46 153.182 1135.46Z"/><path fill="#D4C3DF" d="M206.423 931.877C219.058 931.877 229.301 921.636 229.301 909.004C229.301 896.371 219.058 886.13 206.423 886.13C193.788 886.13 183.545 896.371 183.545 909.004C183.545 921.636 193.788 931.877 206.423 931.877Z"/><path fill="#6A62AB" d="M1034.99 429.757C1041.16 429.757 1046.15 424.765 1046.15 418.606C1046.15 412.447 1041.16 407.454 1034.99 407.454C1028.83 407.454 1023.84 412.447 1023.84 418.606C1023.84 424.765 1028.83 429.757 1034.99 429.757Z"/><path fill="#D4C3DF" d="M538.417 418.631C544.262 418.631 549.001 413.893 549.001 408.049C549.001 402.205 544.262 397.468 538.417 397.468C532.572 397.468 527.833 402.205 527.833 408.049C527.833 413.893 532.572 418.631 538.417 418.631Z"/><path fill="#48276B" d="M1150.25 285.184C1157.12 285.184 1162.7 279.614 1162.7 272.743C1162.7 265.873 1157.12 260.303 1150.25 260.303C1143.38 260.303 1137.81 265.873 1137.81 272.743C1137.81 279.614 1143.38 285.184 1150.25 285.184Z"/><path fill="#6A62AB" d="M381.047 749.907C389.097 749.907 395.622 743.384 395.622 735.336C395.622 727.289 389.097 720.765 381.047 720.765C372.998 720.765 366.473 727.289 366.473 735.336C366.473 743.384 372.998 749.907 381.047 749.907Z"/><path fill="#6A62AB" d="M796.448 916.636C806.277 916.636 814.245 908.67 814.245 898.843C814.245 889.016 806.277 881.05 796.448 881.05C786.619 881.05 778.651 889.016 778.651 898.843C778.651 908.67 786.619 916.636 796.448 916.636Z"/><path fill="#fff" d="M416.641 570.292C426.469 570.292 434.437 562.326 434.437 552.499C434.437 542.673 426.469 534.707 416.641 534.707C406.812 534.707 398.844 542.673 398.844 552.499C398.844 562.326 406.812 570.292 416.641 570.292Z"/><path fill="#9A542A" d="M879.085 822.046C874.128 801.651 857.496 816.767 898.245 702.228C934.012 601.294 935.053 553.54 949.603 530.791C1023.47 415.31 1243.9 449.979 1274.31 545.437C1282.49 571.308 1282.32 646.148 1304.3 678.512C1324.95 708.523 1349.66 709.44 1353.13 730.058C1357.77 758.73 1317.36 791.317 1309.08 798.429C1193.58 892.326 902.236 919.164 879.085 822.046Z"/><path fill="#F3B68E" d="M1768.31 960.102C1754.3 1006.15 1738.94 1111.86 1716.03 1183.48C1681.06 1292.89 1663.39 1343.44 1623.41 1402.35C1615.97 1413.25 1606.5 1442.45 1577.62 1460.81C1565.82 1468.19 1552.73 1473.28 1539.03 1475.8C1538.46 1475.88 1537.87 1475.88 1537.3 1475.8C1506.65 1472.49 1477.47 1460.93 1452.87 1442.35C1409.55 1410.48 1304.82 1368.62 1254.58 1338.27C1211.53 1312.44 1127.6 1246.57 1058.99 1064.26C1058.44 1062.66 1058.55 1060.91 1059.3 1059.39C1060.04 1057.87 1061.36 1056.71 1062.95 1056.15C1063.99 1055.81 1065.1 1055.73 1066.18 1055.93C1132.91 1067.1 1198.05 1086.29 1260.18 1113.08C1355.8 1154.47 1442.65 1213.68 1516.1 1287.56C1517.35 1288.76 1519.03 1289.42 1520.76 1289.39C1522.49 1289.36 1524.14 1288.65 1525.35 1287.41C1525.76 1286.98 1526.12 1286.5 1526.42 1285.98C1579.61 1185.61 1637.53 1049.61 1690.78 949.273C1691.59 947.687 1686.19 983.199 1686.51 980.374C1695.19 901.42 1723.15 842.044 1735.89 766.907C1739.16 747.454 1753.24 671.722 1761.72 634.079C1770.44 594.429 1774.8 583.897 1779.07 583.996C1784.52 583.996 1789.58 603.45 1791.16 618.492C1796.62 667.906 1762.11 716.552 1774.83 737.095C1781.52 747.999 1792.03 739.573 1811.07 752.633C1816.02 756.003 1841.03 773.995 1842.17 804.401C1843.04 829.554 1822.67 875.226 1818.8 879.092"/><path fill="#F3B68E" d="M987.204 798.528C989.409 848.438 979.457 898.137 958.203 943.351C977.644 963.681 1002.45 978.082 1029.75 984.881C1057.05 991.68 1085.72 990.598 1112.43 981.762C1110.84 965.718 1110.84 949.556 1112.43 933.512C1114.03 915.976 1117.98 898.733 1124.15 882.24C1149.57 886.72 1175.76 882.531 1198.51 870.345C1237.15 848.042 1251.8 803.286 1260.48 776.523C1263.89 766.164 1266.55 755.571 1268.43 744.827C1286.12 738.017 1301.01 725.469 1310.72 709.192C1314.59 702.427 1331.22 673.457 1317.31 648.378C1306.85 629.545 1285.44 624.241 1281.62 623.275C1272.07 620.974 1262.12 620.974 1252.57 623.275C1241.69 587.705 1222.68 555.153 1197.05 528.189C1182.18 512.602 1164.03 494.412 1135.08 488.539C1122.75 486.16 1110.08 486.16 1097.75 488.539C1049.69 496.593 998.953 536.962 992.186 587.862C990.87 598.194 991.297 608.674 993.45 618.864L975.182 607.514C964.267 599.179 950.754 594.974 937.036 595.644C910.662 597.453 894.898 619.137 892.246 622.903C890.833 624.935 889.916 626.447 889.47 627.166C870.186 657.523 880.051 697.123 900.029 719.773C920.924 743.539 951.04 746.81 958.129 747.578C965.154 748.371 972.247 748.371 979.272 747.578C983.449 764.287 986.104 781.34 987.204 798.528Z"/><path fill="#E4A17B" d="M1124.3 882.339C1099.42 878.99 1075.73 869.648 1055.26 855.118C1034.8 840.588 1018.17 821.303 1006.81 798.925C1006.81 798.925 1006.64 798.652 992.979 770.525C1003.17 820.435 1003.17 820.757 1003.17 820.757C1017.67 872.154 1060.6 905.336 1081.05 921.171C1090.91 928.869 1101.22 935.969 1111.93 942.433C1114.67 922.189 1118.81 902.158 1124.32 882.487L1124.3 882.339Z"/><path fill="#F3B68E" d="M1208.6 1271.9C1206.68 1283.88 1203.73 1295.67 1199.77 1307.14C1184.9 1393.53 1170.21 1479.92 1155.7 1566.33C1114.57 1584.62 1069.91 1593.63 1024.9 1592.74C978.812 1592 933.529 1580.53 892.642 1559.24C880.316 1552.54 868.531 1544.9 857.395 1536.37C848.274 1500.68 842.077 1470.92 837.987 1449.95C817.361 1346.68 808.497 1241.4 811.565 1136.12C812.11 1120.91 812.804 1108.54 813.3 1100.86C858.733 1063.66 912.641 1038.22 970.249 1026.81C1011.54 1018.88 1051.18 1011.25 1093.69 1028.57C1181.63 1064.48 1222.4 1183.13 1208.6 1271.9Z"/><path fill="#EF8885" d="M782.664 1319.68L783.061 1323.22V1318.96L782.664 1319.68Z"/><path fill="#070808" d="M1096.74 690.334C1098.73 693.183 1100.02 696.468 1100.5 699.916C1100.97 703.364 1100.62 706.876 1099.46 710.159C1098.59 712.885 1096.46 719.377 1090.69 721.062C1089.11 721.481 1087.46 721.552 1085.85 721.269C1084.24 720.987 1082.71 720.358 1081.37 719.427C1073.93 714.347 1076.88 700.891 1077.55 698.016C1078.52 693.555 1080.03 686.245 1085.23 684.882C1090.44 683.519 1096.19 689.516 1096.74 690.334Z"/><path fill="#070808" d="M1216.18 688.871C1218.19 691.717 1219.49 695.003 1219.96 698.452C1220.43 701.901 1220.07 705.414 1218.91 708.696C1218.04 711.422 1215.91 717.89 1210.14 719.575C1208.56 720.027 1206.91 720.117 1205.29 719.838C1203.68 719.559 1202.15 718.918 1200.82 717.964C1193.38 713.008 1196.35 699.428 1197 696.553C1197.99 692.068 1199.48 684.782 1204.68 683.419C1209.89 682.056 1215.64 688.103 1216.18 688.871Z"/><path fill="#070808" d="M1193.88 650.411C1193.88 651.605 1194.36 652.748 1195.2 653.593C1196.05 654.437 1197.19 654.914 1198.39 654.921C1204.83 654.921 1215.07 654.747 1216.93 662.876C1218.24 668.476 1226.84 665.924 1225.65 660.398C1224.94 657.851 1223.68 655.488 1221.97 653.47C1220.26 651.452 1218.13 649.825 1215.74 648.701C1210.31 646.237 1204.32 645.238 1198.39 645.801C1197.79 645.805 1197.19 645.927 1196.64 646.161C1196.09 646.395 1195.59 646.736 1195.17 647.165C1194.75 647.593 1194.42 648.101 1194.2 648.658C1193.97 649.215 1193.87 649.811 1193.88 650.411Z"/><path fill="#070808" d="M1061.37 666.915C1060.15 672.565 1068.8 674.969 1070.02 669.245C1072.2 658.886 1083.6 654.376 1093.29 654.054C1094.31 653.933 1095.27 653.471 1095.99 652.743C1096.72 652.014 1097.19 651.062 1097.31 650.039C1097.42 648.851 1097.07 647.664 1096.32 646.736C1095.57 645.808 1094.48 645.214 1093.29 645.083C1079.78 645.356 1064.36 652.517 1061.37 666.866V666.915Z"/><path fill="#6A2F17" d="M1152.58 707.333C1152.46 706.225 1151.94 705.199 1151.11 704.453C1150.28 703.708 1149.21 703.295 1148.09 703.295C1146.98 703.295 1145.9 703.708 1145.08 704.453C1144.25 705.199 1143.72 706.225 1143.61 707.333C1143.61 728.422 1145.49 751.196 1163.44 764.652L1161.8 758.482C1154.03 767.712 1143.79 774.538 1132.28 778.158C1126.7 779.843 1129.23 788.566 1134.76 786.831C1148.56 782.664 1160.76 774.371 1169.71 763.066C1170.27 762.018 1170.41 760.796 1170.11 759.647C1169.8 758.498 1169.08 757.506 1168.07 756.871C1152.98 745.471 1152.58 724.333 1152.58 707.308V707.333Z"/><path fill="#6A2F17" d="M1087.29 787.749C1082.86 783.982 1076.49 790.227 1080.9 794.117C1103.3 812.6 1131.32 822.92 1160.36 823.384C1161.51 823.3 1162.57 822.786 1163.35 821.948C1164.13 821.109 1164.56 820.006 1164.56 818.862C1164.56 817.717 1164.13 816.614 1163.35 815.776C1162.57 814.937 1161.51 814.424 1160.36 814.339C1133.72 813.868 1108 804.509 1087.29 787.749Z"/><path fill="#6A2F17" d="M1088.56 791.07C1089.15 785.296 1080.15 785.345 1079.56 791.07C1077.38 810.895 1088.73 834.66 1109.3 840.112C1128.27 845.068 1156.4 841.574 1165.1 821.476C1167.35 816.198 1159.6 811.564 1157.32 816.892C1150.67 832.479 1128.66 835.255 1113.72 831.761C1095.67 827.449 1086.45 808.392 1088.43 791.02L1088.56 791.07Z"/><path fill="#606161" d="M1028.25 1392.09C1028.25 1392.09 1237.97 939.634 1164.95 957.699C1081.67 978.317 1016.53 992.22 934.26 929.944C871.252 882.265 1028.25 1392.09 1028.25 1392.09Z"/><path fill="#ECF7FA" d="M907.54 934.008C945.067 967.29 912.2 1021.76 956.742 1104.21C1022.43 1225.63 1031.55 1339.08 1033.11 1400.52C1043.02 1786.29 1034.65 1254.85 1044.54 1640.65L718.096 1656.33C718.096 1656.33 745.882 1510.12 757.184 1406.29L679.527 1486.76L716.361 1533.99C696.029 1543.92 678.598 1558.91 665.746 1577.53C632.061 1627.09 645.917 1682.58 648.519 1691.87C557.775 1604.49 485.373 1536.32 427.149 1485.89C413.368 1473.94 407.964 1470.85 399.314 1432.36C388.854 1385.85 561.568 1226.68 577.654 1211.04C838.956 958.567 888.331 947.44 907.54 934.008Z"/><path fill="#F3B68E" d="M693.458 1542.69C703.596 1560.33 738.644 1594.41 789.531 1617.25C825.532 1633.38 864.744 1641.06 904.17 1639.71C926.478 1649.92 926.081 1656.36 925.883 1657.7C924.817 1665.13 905.037 1670.09 888.157 1669.2C864.238 1667.83 850.63 1654.7 845.029 1660.17C841.211 1663.87 844.434 1672.84 846.417 1678.36C852.539 1695.44 863.47 1705.25 870.708 1712.56C890.537 1732.66 908.582 1760.24 904.765 1764.45C900.204 1769.41 863.024 1743.44 851.027 1734.57C840.579 1727.16 830.703 1718.97 821.481 1710.08C814.045 1702.65 809.856 1697.69 809.088 1698.19C807.452 1699.4 829.562 1728.67 850.556 1771.79C858.587 1788.29 853.208 1788.72 850.556 1790.57C846.144 1793.77 829.165 1773.82 787.821 1727.33C779.864 1718.41 774.907 1709.99 773.271 1710.85C770.197 1712.54 783.632 1745.17 799.892 1773.15C805.94 1783.59 813.078 1793.37 819.721 1803.41C827.48 1815.11 822.721 1814.81 821.828 1815.8C819.523 1818.08 804.477 1804.03 788.887 1789.61C762.613 1765.47 750.095 1745 748.534 1746.09C746.972 1747.18 792.332 1803.26 784.549 1810.99C780.286 1815.31 762.414 1804.7 754.111 1798.6C741.445 1789.36 733.141 1777.34 725.804 1762.08C710.412 1730.08 706.57 1697.64 705.975 1674.37C683.667 1658.79 639.299 1654.75 639.299 1627.59C639.423 1592.15 691.946 1540.06 693.458 1542.69Z"/><path fill="#9A542A" d="M986.412 557.827C993.178 532.699 983.214 507.744 989.237 498.352C996.401 487.349 1013.9 473.15 1176.77 484.376C1227.91 487.895 1241.64 504.895 1251.13 517.756C1263.85 534.533 1260.78 564.048 1277.63 609.447C1283.65 625.827 1287.72 621.441 1288.93 635.492C1292.8 686.294 1290.07 717.593 1283.38 728.199C1281.5 731.074 1275.95 739.821 1272.08 738.88C1271.08 738.44 1270.22 737.719 1269.62 736.804C1269.02 735.89 1268.69 734.82 1268.68 733.725C1268.68 702.055 1261.72 675.836 1261.72 644.166C1258.57 641.569 1255.6 638.754 1252.84 635.74C1243.42 625.827 1245.88 613.437 1243.42 607.564C1240.97 601.69 1241.54 604.912 1233.06 610.612C1197.84 619.583 1185.03 603.425 1171.1 597.577C1161.78 593.587 1150.08 586.351 1134.74 588.68C1130.5 589.374 1129.78 590.167 1111.66 598.989C1085.29 611.999 1078.69 614.502 1070.49 614.577C1062.28 614.651 1049.87 596.808 1046 595.247C1047.07 611.304 1043.13 627.297 1034.72 641.018C1026.34 654.053 1018.14 656.631 1012.12 672.243C1008.96 681.879 1007 691.866 1006.29 701.98C1005.82 705.326 1003.17 714.371 997.888 732.709C997.414 734.8 996.177 736.638 994.418 737.864C992.584 738.816 990.533 739.274 988.468 739.192C986.403 739.109 984.396 738.489 982.644 737.393C974.737 731.867 984.156 716.477 979.719 690.581C978.853 684.281 977.04 678.149 974.34 672.391C966.434 656.705 956.643 656.631 951.735 647.734C941.572 629.445 971.713 609.323 986.412 557.827Z"/><path fill="#63CDF6" d="M1234.62 646.495C1238.64 647.585 1258.84 653.483 1269.75 673.531C1280.65 693.579 1277.7 720.616 1263.18 735.36C1242.53 756.474 1204.93 747.379 1186.96 739.325C1163.16 728.694 1160.74 714.073 1142.69 713.082C1124.65 712.091 1119.74 725.919 1094.53 738.21C1088.88 740.961 1037.52 765.965 1006.46 742.448C987.972 728.471 982.172 701.608 984.477 681.585C985.549 672.452 988.386 663.615 992.83 655.565L1234.62 646.495Z" opacity=".23"/><path stroke="#ECF7FA" stroke-miterlimit="10" stroke-width="13" d="M1266.15 662.157C1264.7 657.968 1262.05 654.301 1258.52 651.616C1254.99 648.931 1250.75 647.348 1246.33 647.065C1205.5 644.884 1161.65 644.041 1115.18 645.206C1075.89 646.173 1038.61 648.477 1003.64 651.699C998.64 652.135 993.935 654.244 990.283 657.684C986.631 661.124 984.245 665.694 983.512 670.657C980.785 688.375 980.215 715.61 996.822 734.022C1023.02 763.116 1086.77 764.355 1135.18 718.113C1137.26 715.993 1139.75 714.324 1142.5 713.211C1145.25 712.098 1148.2 711.565 1151.17 711.645C1152.69 711.747 1154.2 712.03 1155.66 712.487C1163.54 714.966 1166.21 721.88 1170.53 727.356C1186.91 748.222 1225.5 746.215 1244.57 742.225C1254.18 740.168 1258.99 739.152 1263.4 735.484C1277.43 723.614 1278 695.686 1266.15 662.157Z"/><path fill="#ECF7FA" d="M978.728 1425.6L1044.54 1640.65L1290.55 1626.22C1282.89 1459.99 1277.93 1374.35 1277.93 1374.35C1400.7 1438.36 1502.69 1484.28 1577.6 1515.87C1602.96 1526.58 1615.45 1531.51 1631.44 1529.26C1745.95 1513.07 1783.21 1163.11 1796.32 984.067L1658.36 933.909L1536.33 1207.79C1463.15 1092.18 1351.19 1006.4 1220.5 965.828C1189.06 1005.56 1160.29 1047.33 1134.39 1090.87C1080.53 1181.57 1069.67 1299.88 1047.64 1371.42C1032.37 1400.24 993.922 1396.77 978.629 1425.6"/><path fill="#CDECF8" d="M959.94 1217.93C920.281 1128.83 880.623 1039.73 840.964 950.636C844.533 942.384 867.684 943.821 897.131 932.769C936.542 917.9 959.097 921.221 962.32 925.334C986.834 1089.19 1027.63 1259.06 1035.89 1416.9C1027.81 1258.99 1083.72 1097.56 1107.62 937.948C1110.77 933.934 1137.91 924.442 1177.32 939.212C1206.77 950.24 1225.41 955.097 1228.98 963.349C1189.32 1052.45 1149.66 1141.54 1110 1230.64L1136.87 1327.09C1107.85 1388.13 1078.83 1449.18 1049.82 1510.22C1053.49 1534.63 1034.23 1553.71 1037.87 1578.12C1030.24 1562.07 1045.53 1551.34 1037.87 1535.3C1028.23 1555.57 1044.49 1581.12 1034.85 1601.39C1039.46 1570.54 1018.19 1534.48 1022.8 1503.61C992.84 1440.53 962.865 1377.45 932.873 1314.38L959.94 1217.93Z"/><path fill="#CDECF8" d="M1030.11 1640.65H1039.88C1042.45 1640.65 1044.54 1638.56 1044.54 1635.99V1340.03C1044.54 1337.45 1042.45 1335.37 1039.88 1335.37H1030.11C1027.54 1335.37 1025.45 1337.45 1025.45 1340.03V1635.99C1025.45 1638.56 1027.54 1640.65 1030.11 1640.65Z"/><path fill="#CDECF8" d="M1116.42 1601.39C1128.83 1601.39 1138.9 1591.33 1138.9 1578.92C1138.9 1566.5 1128.83 1556.44 1116.42 1556.44C1104 1556.44 1093.94 1566.5 1093.94 1578.92C1093.94 1591.33 1104 1601.39 1116.42 1601.39Z"/></g><defs><linearGradient id="paint0_linear" x1=".142" x2="1443.51" y1="925.573" y2="925.63" gradientUnits="userSpaceOnUse"><stop stop-color="#9983B9"/><stop offset=".22" stop-color="#957FB6"/><stop offset=".44" stop-color="#8B73AF"/><stop offset=".65" stop-color="#7960A2"/><stop offset=".86" stop-color="#604590"/><stop offset="1" stop-color="#4C2F81"/></linearGradient><clipPath id="clip0"><rect width="1842" height="1816" fill="#fff"/></clipPath></defs></svg>