<svg width="1338" height="861" viewBox="0 0 1338 861" fill="none" xmlns="http://www.w3.org/2000/svg">
<ellipse cx="871" cy="462.5" rx="452" ry="73.5" fill="#E3EEF1"/>
<ellipse cx="290.5" cy="735.5" rx="290.5" ry="74.5" fill="#E3EEF1"/>
<ellipse cx="1048.5" cy="819" rx="182.5" ry="33" fill="#E3EEF1"/>
<ellipse cx="707" cy="828" rx="107" ry="33" fill="#E3EEF1"/>
<path d="M579.348 134.231C369.212 104.29 213.848 113.731 146.848 209.231C79.8481 304.731 88.3481 361.731 88.3481 361.731H1337.35C1324.19 271.495 1242.44 39.5905 1032.28 6.08182C753.064 -38.437 883.029 177.501 579.348 134.231Z" fill="url(#paint0_linear)"/>
<path d="M347.777 695.067C347.777 673.122 325.425 655.307 297.716 655.02C292.379 633.477 272.917 617.503 249.716 617.503C249.416 617.503 249.119 617.521 248.819 617.526C248.837 616.951 248.863 616.378 248.863 615.799C248.863 585.671 224.43 561.248 194.29 561.248C170.939 561.248 151.024 575.912 143.232 596.526C135.438 592.38 126.323 590.541 116.907 591.814C93.0138 595.047 76.2651 617.027 79.4981 640.911C80.1934 646.048 81.7609 650.852 84.0237 655.2C55.9587 657.186 34.0179 674.465 34.0179 695.494C34.0179 698.874 34.5931 702.156 35.6622 705.295H346.102C347.191 702.03 347.777 698.603 347.777 695.067Z" fill="#73C3A1"/>
<path d="M625.732 129.519C625.732 129.519 480.326 382.313 417.401 401.97" stroke="#858585" stroke-width="3" stroke-miterlimit="10"/>
<path d="M617.117 206.399C617.131 206.509 617.143 206.688 617.186 206.909C619.044 221.024 649.406 447.327 689.472 479.589L689.389 480.152L501.063 454.26C503.044 450.505 618.218 232.402 617.09 206.22C617.102 206.276 617.102 206.345 617.117 206.399Z" fill="#333333"/>
<path d="M1168.15 367.022L831.829 499.73C831.829 499.73 668.083 315.417 625.307 128.158C625.307 128.158 783.147 117.84 940.987 50C940.987 50 1072.26 309.514 1168.15 367.022" fill="#FFB649"/>
<path d="M763.011 440.53L689.471 479.588C649.407 447.326 619.045 221.024 617.186 206.909C636.469 349.7 763.011 440.53 763.011 440.53Z" fill="#FF9843"/>
<path d="M831.828 499.73L689.389 480.152L689.472 479.589L763.011 440.531C763.011 440.531 636.469 349.701 617.186 206.908C617.144 206.688 617.131 206.509 617.117 206.399C617.103 206.276 617.09 206.221 617.09 206.221C618.218 232.402 503.045 450.504 501.063 454.26L435.012 445.18C491.071 412.739 625.306 128.158 625.306 128.158C668.083 315.416 831.828 499.73 831.828 499.73Z" fill="#FF7E45"/>
<path d="M937.359 498.052C863.415 480.291 628.12 128.054 628.12 128.054" stroke="#858585" stroke-width="3" stroke-miterlimit="10"/>
<path d="M940.987 50.0006C940.987 50.0006 1130.56 327.276 1217.08 352.174" stroke="#858585" stroke-width="3" stroke-miterlimit="10"/>
<path d="M934.298 497.178C934.698 497.016 935.367 496.803 936.221 496.781C937.233 496.754 938.018 497.008 938.442 497.178V515.372C938.077 515.543 937.324 515.84 936.321 515.831C935.372 515.822 934.657 515.542 934.298 515.372V497.178Z" fill="#AA6B48"/>
<path d="M417 401.132C417.401 400.971 418.069 400.758 418.924 400.735C419.935 400.709 420.72 400.962 421.144 401.132V419.327C420.78 419.499 420.027 419.796 419.025 419.786C418.075 419.777 417.36 419.497 417 419.327V401.132Z" fill="#AA6B48"/>
<path d="M1214.39 351.908C1214.79 351.747 1215.46 351.534 1216.31 351.511C1217.32 351.485 1218.11 351.738 1218.53 351.908V370.103C1218.17 370.275 1217.42 370.572 1216.41 370.562C1215.46 370.553 1214.75 370.273 1214.39 370.103V351.908Z" fill="#AA6B48"/>
<path d="M956.597 271.64L844.948 301.068C836.905 291.274 828.164 279.262 819.797 264.931C810.423 248.874 803.781 233.78 799.025 220.843C836.241 211.034 873.458 201.224 910.675 191.415C919.025 217.182 938.315 251.414 956.597 271.64Z" fill="#FF9843"/>
<path d="M1313.26 422.037C1312.7 390.089 1285.53 364.659 1252.58 365.237C1243.26 365.4 1234.49 367.625 1226.7 371.448C1209.08 289.891 1079.13 299.058 1081.51 381.782C1049.31 385.213 1024.59 407.843 1025.06 434.803C1025.15 439.571 1026.03 444.171 1027.58 448.535L1309.37 443.597C1312 436.905 1313.39 429.633 1313.26 422.037Z" fill="#73C4A1"/>
<path d="M556.647 703.661L230.804 705.351L230.455 638.014L556.297 636.323C558.422 638.132 571.309 649.486 571.978 668.583C572.702 689.236 558.542 702.009 556.647 703.661Z" fill="#AA6B48"/>
<path d="M244.913 671.562C245.009 690.14 238.934 705.23 231.343 705.271C223.752 705.309 217.521 690.282 217.424 671.705C217.327 653.127 223.403 638.035 230.994 637.997C238.585 637.956 244.817 652.985 244.913 671.562Z" fill="#F4BC89"/>
<path d="M283.377 645.34C283.377 645.34 268.162 622.936 268.392 617.282L275.842 616.277C275.842 616.277 290.152 639.516 306.617 641.928L283.377 645.34Z" fill="#AA6B48"/>
<path d="M544.698 719.597C544.982 723.475 533.368 728.585 520.327 733.43C507.285 738.276 496.863 742.306 495.405 735.422C494.616 731.703 504.467 723.341 517.708 719.866C531.021 716.372 544.549 717.577 544.698 719.597Z" fill="#B15614"/>
<path d="M511.83 721.943C511.687 722.494 510.806 725.671 507.573 727.465C504.046 729.423 500.571 728.154 500.089 727.968C496.887 718.358 493.685 708.749 490.485 699.139L502.88 695.022L511.83 721.943Z" fill="#954518"/>
<path d="M480.665 777.36C480.273 781.623 467.272 782.738 452.831 783.033C438.39 783.328 426.822 783.731 426.525 775.804C426.366 771.518 438.109 766.256 452.514 767.505C466.996 768.762 480.869 775.137 480.665 777.36Z" fill="#B15614"/>
<path d="M448.831 767.266C448.521 767.744 446.683 770.48 443.048 771.163C439.084 771.909 436.187 769.61 435.787 769.282C435.781 759.153 435.775 749.026 435.768 738.896H448.831V767.266Z" fill="#954518"/>
<path d="M361.417 403.658C361.417 403.658 375.041 414.253 376.338 428.055C377.636 441.857 371.149 449.189 386.285 456.09C401.424 462.991 399.261 473.343 400.126 485.419C400.992 497.497 415.697 503.535 424.347 510.004C432.997 516.474 427.807 525.1 427.807 525.1C424.705 523.535 403.902 581.922 397.098 595.404C388.997 611.462 350.821 581.602 333.519 593.247C316.219 604.895 296.324 584.621 291.565 580.308C286.807 575.995 267.777 582.034 261.722 586.346C255.666 590.659 247.449 581.171 243.556 579.877C239.664 578.583 237.933 583.758 237.933 583.758C237.933 583.758 222.363 572.976 225.391 557.017C228.418 541.059 242.259 557.017 237.069 533.295C231.878 509.573 241.827 507.416 258.694 500.084C275.562 492.751 251.774 463.854 268.209 459.973C284.645 456.09 284.212 453.502 284.645 441.857C285.078 430.211 293.356 421.697 293.356 421.697C293.356 421.697 308.393 385.987 361.417 403.658" fill="#282144"/>
<path d="M334.15 471.137L334.05 463.863C324.389 473.099 316.752 453.262 316.752 453.262L317.238 470.393L312.612 471.696C316.106 476.639 323.33 481.665 327.262 482.127C333.097 482.811 338.595 478.776 341.398 473.369C341.398 473.369 338.499 472.377 334.15 471.137" fill="#B15614"/>
<path d="M334.055 466V463.278L316 453.5C316 453.5 323 475.5 334.055 466Z" fill="#954518"/>
<path d="M339.897 400C339.057 402.751 337.817 408.051 331.026 413.313C320.756 421.27 308.904 419.209 306.948 418.836C305.637 417.538 303.869 416.729 301.546 416.729C295.253 416.729 293 422.65 293 428.189C293 433.726 299.526 439.649 305.819 439.649C306.358 439.649 307.238 439.073 307.238 439.508C307.238 454.204 323.11 464.036 334.304 464C350.317 464 361.864 445.335 361.864 428.891C362.273 424.124 361.698 419.998 360.971 416.863C359.005 417.006 354.664 417.026 350.317 414.446C341.945 409.475 339.74 401.651 339.897 400Z" fill="#BE6220"/>
<path d="M331.082 370.634C331.082 376.506 326.319 381.269 320.444 381.269C314.568 381.269 309.805 376.506 309.805 370.634C309.805 364.761 314.568 360 320.444 360C326.319 360 331.082 364.761 331.082 370.634Z" fill="#687EB5"/>
<path d="M294.664 420.116C294.664 420.116 314.192 385.103 363.888 405.666C361.224 383.71 339.888 369.359 320.135 374.02C301.02 378.532 288.439 399.655 294.664 420.116Z" fill="#46558E"/>
<path d="M519.394 697.208C513.757 708.18 488.226 715.448 474.82 712.059C449.262 664.236 394.083 644.573 355.979 610.203L404.382 590.673C404.382 590.673 453.673 585.791 465.663 601.325C477.652 616.861 519.394 697.208 519.394 697.208Z" fill="#032454"/>
<path d="M299.685 611.152C302.635 627.698 309.254 637.354 315.466 643.284C343.414 669.956 410.153 661.056 412.188 666.484C412.877 668.323 416.298 697.042 418.91 749.531C436.433 754.974 451.505 755.036 468.167 750.008C469.56 741.236 470.939 728.54 470.291 713.314C469.529 695.395 476.908 623.448 434.591 613.494C391.609 603.386 299.685 611.152 299.685 611.152Z" fill="#0E3168"/>
<path d="M474.451 548.388L488.171 536.157C494.259 534.293 500.071 530.855 503.053 525.681C503.053 525.681 506.32 515.816 496.028 507.569C495.098 506.825 493.36 505.432 491.44 505.775C489.997 506.032 489.871 507.018 487.829 507.866C485.421 508.862 484.655 507.881 483.094 508.898C481.303 510.064 481.967 511.58 480.121 512.603C478.653 513.418 477.631 512.793 476.628 513.899C475.856 514.75 475.715 515.947 475.706 516.028C475.689 516.195 475.607 516.688 475.794 517.322C476.08 518.291 477.8 524.54 478.358 526.808C473.307 531.715 468.564 534.142 463.512 539.051L474.451 548.388Z" fill="#B15614"/>
<path d="M341.38 473.387C345.37 474.239 362.967 479.248 370.101 484.414C398.499 504.974 412.579 551.807 420.029 554.192C427.009 556.427 440.877 552.935 460.983 537.013C470.21 540.924 473.891 543.786 478.748 552.569C475.519 559.699 473.378 566.467 459.616 576.366C447.835 584.842 423.563 594.006 412.559 590.607C387.619 582.904 347.689 537.232 341.38 473.387Z" fill="#AE81F4"/>
<path d="M362.073 505.649C362.073 505.649 376.197 535.975 382.165 539.455C388.133 542.935 345.36 545.918 345.36 545.918L362.073 505.649Z" fill="#946AE5"/>
<path d="M341.368 473.376C329.53 492.938 312.629 471.662 312.629 471.662C306.008 473.073 301.008 475.885 297.173 478.865C272.57 497.976 274.681 550.997 299.685 611.153C328.854 607.857 349.654 606.843 378.822 603.547C376.921 589.855 369.691 487.17 351.81 477.662C348.669 475.929 345.204 474.469 341.368 473.376Z" fill="#AE81F4"/>
<path d="M306.025 519.681C306.025 519.681 293.401 557.853 305.561 572.872C310.549 579.03 278.697 563.325 278.697 563.325L306.025 519.681Z" fill="#946AE5"/>
<path d="M323.063 427.101C323.063 427.101 326.535 432.845 331.164 428.537" stroke="#3F1B02" stroke-width="2" stroke-miterlimit="10" stroke-linecap="round" stroke-linejoin="round"/>
<path d="M346.354 428.687C346.354 428.687 349.279 432.66 352.846 429.514" stroke="#3F1B02" stroke-width="2" stroke-miterlimit="10" stroke-linecap="round" stroke-linejoin="round"/>
<path d="M338.217 433.177C338.217 433.177 339.137 441.602 341.841 443.149L337.51 445.696" stroke="#793302" stroke-width="2" stroke-miterlimit="10" stroke-linecap="round" stroke-linejoin="round"/>
<path d="M329.305 450.769C329.305 450.769 333.165 456.568 338.967 452.709" stroke="#793302" stroke-width="2" stroke-miterlimit="10" stroke-linecap="round" stroke-linejoin="round"/>
<path d="M331.04 420.074C331.04 420.074 328.495 418.027 324.076 420.526" stroke="#3F1B02" stroke-width="2" stroke-miterlimit="10" stroke-linecap="round" stroke-linejoin="round"/>
<path d="M347.788 420.381C347.788 420.381 351.239 419.427 353.631 421.383" stroke="#3F1B02" stroke-width="2" stroke-miterlimit="10" stroke-linecap="round" stroke-linejoin="round"/>
<path d="M324.196 436.274C324.196 437.984 322.809 439.37 321.098 439.37C319.387 439.37 318 437.984 318 436.274C318 434.563 319.387 433.177 321.098 433.177C322.809 433.177 324.196 434.563 324.196 436.274Z" fill="#A24226"/>
<path d="M353.276 437.846C353.276 439.556 351.889 440.942 350.178 440.942C348.466 440.942 347.08 439.556 347.08 437.846C347.08 436.135 348.466 434.749 350.178 434.749C351.889 434.749 353.276 436.135 353.276 437.846Z" fill="#A24226"/>
<path d="M405.039 608.319C407.168 602.417 413.177 596.773 418.277 596.29C423.105 595.832 430.111 596.08 434.643 593.772C447.69 587.129 457.531 572.377 443.482 544.888C429.344 517.225 411.327 515.929 399.022 522.31C394.563 524.62 390.502 528.993 387.727 532.894C383.706 538.546 376.487 541.949 369.537 540.353C357.147 537.507 339.126 536.727 325.071 545.161C303.744 557.958 293.627 574.938 308.559 611.12C324.325 649.32 355.913 651.777 381.734 638.696C396.296 631.32 401.141 619.13 405.039 608.319Z" fill="#EAA852"/>
<path d="M362.361 616.279L338.786 575.465L346.369 571.088L369.944 611.903L362.361 616.279Z" fill="black"/>
<path d="M513.673 494.159L397.002 558.882L403.986 571.463L520.658 506.74L513.673 494.159Z" fill="#AD7344"/>
<path d="M404.291 570.831C404.291 579.164 397.534 585.918 389.198 585.918C380.86 585.918 374.103 579.164 374.103 570.831C374.103 562.499 380.86 555.744 389.198 555.744C397.534 555.744 404.291 562.499 404.291 570.831Z" fill="black"/>
<path d="M555.017 483.688L551.156 476.721L524.334 484.617L513.649 494.145L520.605 506.696L534.047 502.686L555.017 483.688Z" fill="#EAA852"/>
<path d="M488.172 536.157C494.259 534.293 500.071 530.855 503.054 525.681C503.054 525.681 506.32 515.816 496.028 507.569C495.098 506.825 493.36 505.432 491.44 505.775C489.997 506.032 489.872 507.019 487.829 507.866C485.422 508.862 484.655 507.882 483.094 508.898C481.303 510.064 481.967 511.58 480.122 512.603C478.653 513.418 477.631 512.793 476.628 513.899C475.856 514.751 475.715 515.947 475.706 516.028C475.689 516.195 475.607 516.688 475.794 517.322C476.08 518.291 477.8 524.54 478.358 526.808C479.36 529.149 484.36 537.324 488.172 536.157Z" fill="#B15614"/>
<path d="M331.186 592.008L343.154 596.58C353.166 591.658 360.501 588.09 361.36 589.88C362.341 591.924 352.86 596.58 352.461 597.097C350.86 600.38 377.154 594.88 377.448 598.358C377.703 601.38 357.295 601.95 357.36 602.88C357.431 603.888 381.206 600.88 381.36 602.929C381.515 604.978 357.288 606.671 357.36 607.88C357.36 608.622 381.071 605.88 381.131 608.77C381.192 611.659 357.445 611.262 357.206 612.505C357.055 613.293 375.86 613.38 376.36 614.38C376.36 615.806 364.926 618.525 350.147 616.649C344.738 615.963 338.495 612.615 335.329 610.803L323.36 608.009L331.186 592.008Z" fill="#C27034"/>
<path d="M313.088 473.101C310 470.546 295.182 475.609 291.358 478.611C268.634 496.46 254.144 567.882 261.87 579.855C265.899 586.095 298.657 612.056 321.131 615.674C332.512 607.229 335.841 600.534 336.439 585.187C322.622 580.279 296.934 568.223 295.097 565.179C293.178 562 296.313 551.196 303.166 528.587C310.894 503.1 321.081 479.717 313.088 473.101Z" fill="#AE81F4"/>
<path d="M1088.42 459.502C1090.23 456.687 1092.64 452.454 1094.55 446.95C1096.86 440.283 1102.82 423.114 1094.24 412.112C1090.81 407.706 1083.61 402.47 1077.74 401.76C1076.85 401.655 1074.63 401.489 1072 400.285C1069.26 399.032 1068.47 397.753 1066.02 395.982C1064.88 395.161 1061.38 392.631 1056.82 391.883C1051.98 391.084 1048 392.61 1045.63 393.55C1041.35 395.249 1041.4 396.508 1036.9 398.997C1029.48 403.095 1029.28 399.563 1023.45 403.322C1022.06 404.224 1017.82 408.795 1015.37 414.497C1014.18 417.281 1014.26 422.32 1014.26 429.583C1014.26 438.702 1018.94 448.633 1023.45 455.003C1045.11 456.503 1066.76 458.002 1088.42 459.502Z" fill="#812A24"/>
<path d="M916.339 609.42L900.86 614.109L880.218 612.703C880.218 612.703 866.232 601.491 863.484 603.738C860.736 605.986 875.474 619.22 875.474 619.22L876.935 646.464L900.39 630.989L922.906 625.363L916.339 609.42Z" fill="#D6854F"/>
<path d="M874.01 744.174C873.578 749.532 887.49 756.042 903.133 762.125C918.774 768.208 931.272 773.285 933.19 763.731C934.227 758.567 922.517 747.495 906.603 743.31C890.604 739.103 874.235 741.38 874.01 744.174Z" fill="#E99A61"/>
<path d="M916.656 749.004C916.8 749.555 917.681 752.732 920.914 754.526C924.44 756.484 927.914 755.214 928.398 755.028C931.6 745.419 934.801 735.81 938.002 726.2L925.606 722.083L916.656 749.004Z" fill="#D6854F"/>
<path d="M941.004 808.189C941.581 813.563 957.272 814.633 974.677 814.633C992.081 814.633 1006.03 814.843 1006.19 804.828C1006.28 799.413 992 793.072 974.677 795.021C957.26 796.981 940.703 805.387 941.004 808.189Z" fill="#E99A61"/>
<path d="M1115.5 704.937H1043.67L1005.82 811.784H1077.65L1115.5 704.937Z" stroke="#083518" stroke-width="4" stroke-miterlimit="10"/>
<path d="M1093.85 818.257H991.528C989.635 818.257 988.1 816.723 988.1 814.831V813.206C988.1 811.314 989.635 809.781 991.528 809.781H1093.85C1095.74 809.781 1097.28 811.314 1097.28 813.206V814.831C1097.28 816.723 1095.74 818.257 1093.85 818.257Z" fill="#083518"/>
<path d="M1216.21 810.98H1130.75L1033.86 699.449L1112.01 701.026L1216.21 810.98Z" stroke="#083518" stroke-width="4" stroke-miterlimit="10"/>
<path d="M1223.96 818.717H1121.64C1119.75 818.717 1118.21 817.184 1118.21 815.292V813.667C1118.21 811.775 1119.75 810.241 1121.64 810.241H1223.96C1225.86 810.241 1227.39 811.775 1227.39 813.667V815.292C1227.39 817.184 1225.86 818.717 1223.96 818.717Z" fill="#083518"/>
<path d="M1217.67 538.674C1225.36 546.724 1206.91 696.05 1144.74 711.772C1110.94 720.321 1036.52 710.256 1024.6 704.444C1034.5 680.5 1036.94 674.479 1053 652C1053 652 1085.87 609.326 1100.61 582.021C1124.3 538.12 1132.2 530.287 1138.26 529.299C1165.11 524.923 1211.53 532.25 1217.67 538.674Z" fill="#2A5B3B"/>
<path d="M979.656 794.327C979.965 794.805 981.804 797.541 985.437 798.224C989.402 798.97 992.299 796.671 992.7 796.343C992.705 786.214 992.711 776.086 992.717 765.957H979.656V794.327Z" fill="#D6854F"/>
<path d="M1050.5 503C1046.31 504.54 1044.81 505.017 1040.14 507.548C1031.1 511.08 1020.99 528.276 1003.9 547.572C996.042 556.446 988.654 565.465 983.085 571.526L910 603.851C907.213 615.664 909.669 621.31 920.345 629.845L1000.2 605.24C1008.17 600.858 1020.26 588.481 1029.87 577.629C1037.82 568.654 1044.72 559.407 1049.54 550.51C1049.54 550.51 1042.82 513.045 1050.5 503Z" fill="#CC463B"/>
<path d="M1088.88 498.508C1080.5 496.5 1065 497.5 1049 503.5C1040.96 513.545 1044.97 551.748 1044.97 551.748L1067.05 633.83C1102.1 633.83 1131.81 634.416 1166.41 632.128C1146.81 558.935 1109.38 501.062 1088.88 498.508Z" fill="#BC3835"/>
<path d="M1079.07 476.232L1079.66 497.387C1080.6 497.465 1081.54 497.542 1082.48 497.618C1080.74 505.428 1074.1 510.773 1067.11 510.624C1059.06 510.452 1055.25 501.929 1055 501.5C1057.08 500.733 1058.5 500.5 1060.5 500L1059.53 493.1L1079.07 476.232Z" fill="#E99A61"/>
<path d="M1060.23 497.825C1060.23 497.825 1074.46 498.105 1076.72 479.655C1078.98 461.205 1059.53 493.1 1059.53 493.1L1060.23 497.825Z" fill="#D6854F"/>
<path d="M1085.1 439.006C1083.5 439.538 1082.02 440.287 1080.71 441.218C1080.17 442.081 1080.13 446.57 1078.49 448.227C1071.23 433.7 1061.17 425.548 1055.02 424.76C1048.32 423.9 1033.35 424.645 1027.09 430.906C1022.62 435.935 1022.68 446.496 1022.06 451.021C1022.06 454.373 1023.1 458.285 1023.71 461.604C1026.53 476.714 1038.82 495.463 1056.7 493.477C1072.75 491.693 1083.74 475.634 1084.93 461.378C1085.37 461.428 1085.81 461.456 1086.26 461.439C1094.59 461.109 1097.54 452.994 1096.98 447.419C1096.43 441.839 1089.56 437.521 1085.1 439.006Z" fill="#FFB681"/>
<g clip-path="url(#clip0)">
<path d="M1073.82 423.777C1074.29 424.61 1076.41 428.307 1075.45 432.45C1073.95 438.934 1066.09 441.267 1065.64 441.393C1057.53 443.675 1049.91 438.067 1048.31 436.897C1042.06 432.299 1042.18 428.063 1037.82 427.448C1032.15 426.648 1026.93 433.124 1026.18 434.076C1023.57 437.318 1022.55 440.703 1022.13 442.648C1021.92 438.842 1021.82 427.903 1029.03 420.206C1041.58 406.817 1067.44 412.636 1073.82 423.777Z" fill="#812A24"/>
</g>
<path d="M1044.1 457.401C1044.22 458.344 1044.81 466.872 1042.04 469.874C1044.14 471.487 1045.52 471.884 1048.35 471.656" stroke="#A66D44" stroke-width="2" stroke-miterlimit="10" stroke-linecap="round" stroke-linejoin="round"/>
<path d="M790.709 567.992L932.68 653.61L928.295 661.363L787 571.363L790.709 567.992Z" fill="#AA6B48"/>
<path d="M847.295 606.25C847.06 603.623 846.939 600.691 847.03 597.506C847.154 593.227 847.635 589.397 848.243 586.113C848.971 586.072 849.698 586.032 850.425 585.992C850.15 589.605 850.134 594.157 850.911 599.323C851.493 603.202 852.395 606.58 853.336 609.383C851.322 608.338 849.309 607.294 847.295 606.25Z" fill="#AA6B48"/>
<path d="M823.768 577.654C825.652 579.876 826.038 582.986 824.775 585.61C823.745 587.752 822.272 590.196 820.161 592.619C818.314 594.737 816.389 596.366 814.635 597.607C812.191 599.334 808.949 599.342 806.426 597.733C804.215 596.323 801.87 594.659 799.474 592.7C796.532 590.294 794.026 587.862 791.911 585.56C789.658 583.107 789.372 579.433 791.186 576.639C792.28 574.953 793.568 573.173 795.077 571.364C796.832 569.262 798.604 567.46 800.29 565.926C802.747 563.694 806.36 563.359 809.183 565.103C811.484 566.527 813.97 568.273 816.504 570.409C819.422 572.871 821.821 575.36 823.768 577.654Z" fill="#F4EEDF"/>
<path d="M915 718C924.059 730.447 934.462 735.338 955.5 736L1062.32 632.417C1062.32 632.417 990.268 579.261 915 718Z" fill="#EF9F41"/>
<path d="M1112.97 516.435C1115.12 520.686 1117.82 526.894 1119.73 534.724C1121.95 543.795 1122.13 551.037 1122.18 555.895C1122.45 586.933 1122.58 602.451 1115.93 610.753C1113.54 613.74 1104.09 624.342 1079.92 624.795C1082.55 620.978 1086.5 615.426 1091.67 608.837C1093.14 606.96 1094.12 605.8 1094.4 605.412C1098.97 598.92 1103.54 587.733 1107.65 558.927C1109.18 548.217 1112.21 533.424 1112.97 516.435Z" fill="#AF2F2C"/>
<path d="M1033.25 609.924C1023.76 612.625 1014.27 615.325 1004.78 618.025C1001.61 619.508 994.006 623.603 989.884 632.186C984.291 643.829 987.834 658.063 990.925 658.474C992.905 658.739 993.971 653.234 1000.82 643.118C1004.38 637.855 1007.79 633.886 1010.12 631.35C1019.64 629.649 1029.17 627.949 1038.7 626.25L1033.25 609.924Z" fill="#E99A61"/>
<path d="M1118.85 551.417C1119.7 539.141 1120.07 532.178 1116.67 523.825C1110.94 509.726 1097.98 497.34 1088.36 500.524C1076.86 504.329 1075.57 531.097 1076.24 539.506C1078.38 566.561 1080.29 579.439 1078.6 584.248C1075.14 594.095 1057.97 593.727 1017.41 605.854C1016.75 608.448 1015.64 614.274 1017.57 621.232C1019.63 628.671 1024.01 633.227 1025.95 635.033C1029.47 635.396 1101.42 625.701 1113.31 608.736C1114.92 606.438 1116.31 587.952 1118.85 551.417Z" fill="#CC463B"/>
<path d="M1163.89 663.791C1163.89 663.791 1158.98 674.156 1148.52 681.493C1118.07 702.826 1044.16 673.665 1036.57 686.673C1032.94 692.889 1025.17 719.829 1008.07 771.635C990.961 771.116 975.932 768.008 960.902 760.237C966.084 729.671 970.969 710.338 974.376 691.853C979.155 665.938 982.48 652.873 990.443 644.71C1004.82 629.97 1028.85 630.192 1069.22 632.276C1091.82 633.444 1125.04 634.317 1166.43 632.226C1167.72 637.469 1170.17 650.513 1163.89 663.791Z" fill="#F4AB47"/>
<path d="M1033.23 446.012C1033.23 446.012 1030.33 445.626 1028.76 448.227" stroke="#3F1B02" stroke-width="2" stroke-miterlimit="10" stroke-linecap="round" stroke-linejoin="round"/>
<path d="M1053.49 443.851C1053.49 443.851 1055.75 443.397 1058.79 444.86" stroke="#3F1B02" stroke-width="2" stroke-miterlimit="10" stroke-linecap="round" stroke-linejoin="round"/>
<path d="M856.551 619.64C859.239 612.342 866.213 607.947 872.727 608.732C880.931 609.721 887.666 618.833 885.418 628.81C882.59 634.695 879.763 640.578 876.935 646.463C874.361 645.841 871.167 644.676 868.024 642.423C857.608 634.957 856.677 621.924 856.551 619.64Z" fill="#E99A61"/>
<path d="M750.403 660.048C751.053 663.884 753.636 667.758 754.767 667.41C756.9 666.754 755.049 650.72 752.849 650.579C751.614 650.502 749.614 655.399 750.403 660.048Z" fill="#FFB850"/>
<path d="M778.642 848.054L614.499 800.525C613.939 798.582 612.744 793.453 614.704 787.426C616.403 782.198 619.598 778.992 621.132 777.63C675.848 793.473 730.562 809.317 785.277 825.161C785.788 826.196 788.792 832.555 785.931 839.631C783.893 844.669 780.033 847.225 778.642 848.054Z" fill="#AA6B48"/>
<path d="M796.287 804.697L627.456 844.843L622.551 824.23L791.382 784.085C792.209 784.607 796.99 787.735 798.21 793.996C799.278 799.481 796.893 803.693 796.287 804.697Z" fill="#AA6B48"/>
<path d="M631.001 833.229C632.244 838.935 630.557 844.146 627.235 844.868C623.913 845.591 620.214 841.55 618.972 835.845C617.73 830.138 619.415 824.926 622.737 824.205C626.059 823.482 629.758 827.522 631.001 833.229Z" fill="#F4BC89"/>
<path d="M684.923 801.01C653.674 785.268 643.654 743.187 654.462 723.16C655.743 720.785 656.934 719.235 658.625 716.387C658.625 716.387 660.233 713.585 661.639 710.825C666.45 701.389 668.996 676.001 672.184 675.854C673.204 675.806 674.168 678.352 677.627 690.905C682.7 709.31 682.951 712.263 684.466 712.456C688.56 712.976 698.669 692.959 698.054 670.489C697.573 652.953 690.739 640.397 694.612 638.06C697.716 636.187 704.79 642.621 706.788 644.466C734.153 669.725 733.978 710.052 742.428 710.341C749.339 710.578 751.505 683.688 757.66 683.698C766.154 683.712 783.196 734.935 762.541 775.141C759.369 781.314 754.018 791.41 742.552 798.823C725.188 810.048 702.156 809.693 684.923 801.01Z" fill="#FFB850"/>
<path d="M700.189 805.555C683.397 799.016 676.194 778.936 677.61 764.108C678.498 754.817 682.897 745.658 685.959 745.903C690.209 746.244 689.606 764.507 696.083 765.784C700.209 766.598 704.839 760.048 707.397 756.428C708.472 754.906 712.142 749.479 714.928 737.831C717.658 726.418 716.3 722.578 718.114 721.931C722.654 720.312 740.829 740.868 740.617 765.493C740.502 778.753 734.955 800.035 718.734 805.919C709.8 809.159 701.432 806.04 700.189 805.555Z" fill="#FF7E45"/>
<path d="M1045.52 480.057C1048.87 480.344 1054.48 480.264 1057.65 476.049" stroke="#A66D44" stroke-width="2" stroke-linecap="round"/>
<path d="M1054.56 451.066C1054.52 451.732 1054.59 452.398 1054.64 453.062C1054.69 453.645 1054.71 454.25 1054.88 454.815C1055.07 455.446 1055.4 456.489 1056.14 456.664C1056.87 456.836 1057.28 456.065 1057.47 455.493C1057.8 454.54 1057.76 453.276 1057.44 452.326C1057.22 451.639 1056.84 450.716 1055.96 450.711C1055.78 450.71 1054.71 450.498 1054.73 450.801C1054.76 451.264 1055.17 451.797 1055.4 452.203C1055.5 452.382 1055.6 452.615 1055.63 452.817C1055.66 452.945 1055.75 452.2 1055.76 452.079C1055.78 451.801 1055.73 451.512 1055.71 451.234C1055.69 450.971 1055.57 451.059 1055.39 451.18C1055.21 451.3 1055.45 451.697 1055.5 451.831C1055.61 452.122 1055.7 452.412 1055.78 452.711C1055.86 452.99 1056.03 453.287 1056.07 453.57C1056.1 453.784 1056.44 454.838 1056.23 454.967C1055.89 455.181 1055.71 454.14 1055.66 453.993C1055.46 453.389 1055.5 452.647 1055.45 452.01C1055.35 450.71 1055.69 456.819 1056.48 455.783C1056.74 455.45 1056.6 454.731 1056.57 454.34C1056.54 453.998 1056.61 453.677 1056.68 453.343C1056.76 453.026 1056.7 452.696 1056.68 452.376C1056.65 451.98 1056.66 451.76 1056.35 451.517C1055.94 451.206 1055.93 451.734 1055.96 452.036" stroke="#3F1B02" stroke-width="1.5" stroke-linecap="round" stroke-linejoin="round"/>
<path d="M1032.21 453.301C1032.17 453.967 1032.24 454.633 1032.29 455.297C1032.34 455.88 1032.36 456.485 1032.53 457.05C1032.72 457.681 1033.05 458.724 1033.79 458.899C1034.52 459.071 1034.93 458.3 1035.12 457.728C1035.45 456.775 1035.41 455.511 1035.09 454.561C1034.87 453.874 1034.49 452.951 1033.61 452.946C1033.43 452.945 1032.36 452.733 1032.38 453.036C1032.41 453.499 1032.82 454.032 1033.05 454.438C1033.15 454.617 1033.25 454.85 1033.28 455.052C1033.31 455.18 1033.4 454.435 1033.41 454.314C1033.43 454.036 1033.38 453.747 1033.36 453.469C1033.34 453.206 1033.22 453.294 1033.04 453.415C1032.86 453.535 1033.1 453.932 1033.15 454.066C1033.26 454.357 1033.35 454.647 1033.43 454.946C1033.51 455.225 1033.68 455.522 1033.72 455.805C1033.75 456.019 1034.09 457.073 1033.88 457.202C1033.54 457.416 1033.36 456.375 1033.31 456.228C1033.11 455.624 1033.15 454.882 1033.1 454.245C1033 452.945 1033.34 459.054 1034.13 458.018C1034.39 457.685 1034.25 456.966 1034.22 456.575C1034.19 456.233 1034.26 455.912 1034.33 455.578C1034.41 455.261 1034.35 454.931 1034.33 454.611C1034.3 454.215 1034.31 453.995 1034 453.752C1033.59 453.441 1033.58 453.969 1033.61 454.271" stroke="#3F1B02" stroke-width="1.5" stroke-linecap="round" stroke-linejoin="round"/>
<defs>
<linearGradient id="paint0_linear" x1="712.848" y1="0.730957" x2="712.848" y2="361.731" gradientUnits="userSpaceOnUse">
<stop stop-color="#C0E8D7"/>
<stop offset="1" stop-color="white"/>
</linearGradient>
<clipPath id="clip0">
<rect width="53.6397" height="30.1723" fill="white" transform="matrix(-1 0 0 1 1075.7 412.467)"/>
</clipPath>
</defs>
</svg>
