<svg xmlns="http://www.w3.org/2000/svg" width="3431" height="2040" fill="none" viewBox="0 0 3431 2040"><path fill="#FCECD4" fill-rule="evenodd" d="M1484.69 1726.04C1568.63 1726.2 1637.34 1739.26 1688.37 1754.18C1737.9 1768.65 1769.39 1786.36 1752.01 1804.17C1734.44 1822.17 1677.11 1837.58 1600.43 1844.29C1529.54 1850.5 1451.09 1845.16 1386.42 1836.18C1330.51 1828.41 1305.09 1814.77 1286.38 1800.65C1265.3 1784.75 1238.84 1767.67 1276.72 1753.41C1319.98 1737.14 1400.08 1725.89 1484.69 1726.04Z" clip-rule="evenodd"/><path fill="url(#paint0_linear)" d="M2102.37 1761.48C2009.56 1740.37 2038.36 1708.46 2064.36 1695.15C2192.5 1651.61 2439.49 1700.14 2505.48 1700.14C2583.77 1700.14 2583.77 1729.33 2583.77 1729.33C2583.85 1754.11 2405.19 1780.73 2348.17 1807.12C2302.55 1828.23 2253.13 1808.78 2234.12 1796.42C2228.88 1793.57 2195.19 1782.59 2102.37 1761.48Z"/><path fill="url(#paint1_linear)" fill-rule="evenodd" d="M1839.16 39.3828C2084.38 4.65163 2374.94 -39.6295 2573.45 66.9938C2772.87 174.105 2693.05 400.637 2805.06 558.184C2922.97 724.048 3212.12 824.325 3242.68 1008.36C3275.09 1203.51 3156.25 1406.27 2970.35 1553.41C2785.21 1699.95 2507.6 1769.61 2233.4 1807.23C1975.78 1842.58 1717.53 1809.57 1464.73 1759.99C1209.12 1709.87 900.219 1678.86 764.429 1519.16C628.376 1359.14 769.077 1157.54 794.915 972.193C814.391 832.481 812.789 693.161 897.319 565.875C981.442 439.2 1117.89 338.226 1273.81 251.068C1444.27 155.779 1625.37 69.6627 1839.16 39.3828Z" clip-rule="evenodd"/><path fill="#6E9C50" fill-rule="evenodd" d="M632.092 523.708C705.357 521.625 780.703 543.552 826.291 600.92C871.787 658.174 870.881 735.251 857.284 807.094C842.823 883.505 819.3 965.172 750.487 1001.46C679.469 1038.91 593.661 1020.4 522.215 983.777C453.232 948.414 396.806 888.829 382.296 812.707C368.334 739.461 402.499 668.003 451.267 611.581C497.365 558.248 561.608 525.711 632.092 523.708Z" clip-rule="evenodd"/><path fill="#6E9C50" fill-rule="evenodd" d="M709.557 326.323C782.823 324.241 851.651 433.433 897.238 490.801C942.734 548.055 941.828 625.133 928.231 696.975C913.77 773.387 890.248 855.053 821.434 891.338C750.416 928.786 664.608 910.285 593.162 873.658C524.179 838.295 467.754 778.71 453.243 702.588C439.282 629.343 473.446 557.884 522.215 501.462C568.312 448.129 639.074 328.327 709.557 326.323Z" clip-rule="evenodd"/><path fill="#6E9C50" fill-rule="evenodd" d="M1075.82 945.196C1040.99 1009.66 984.323 1063.92 911.825 1074.69C839.471 1085.45 773.143 1046.13 717.695 998.437C658.722 947.713 599.726 886.518 602.694 808.808C605.757 728.608 664.692 663.581 732.148 620.048C797.279 578.016 877.118 558.965 950.326 584.465C1020.77 609.002 1065.6 674.305 1090.1 744.732C1113.26 811.302 1109.33 883.181 1075.82 945.196Z" clip-rule="evenodd"/><path fill="#6E9C50" fill-rule="evenodd" d="M487.531 738.565C560.817 736.482 636.183 758.409 681.783 815.777C727.292 873.031 726.385 950.108 712.785 1021.95C698.32 1098.36 674.791 1180.03 605.958 1216.31C534.921 1253.76 449.089 1235.26 377.623 1198.63C308.621 1163.27 252.18 1103.69 237.666 1027.56C223.701 954.318 257.875 882.86 306.656 826.438C352.767 773.105 417.027 740.568 487.531 738.565Z" clip-rule="evenodd"/><path fill="#6E9C50" fill-rule="evenodd" d="M583.066 581.436C656.352 579.354 731.719 601.281 777.319 658.649C822.828 715.902 821.921 792.98 808.321 864.823C793.856 941.234 770.327 1022.9 701.494 1059.19C630.456 1096.63 544.625 1078.13 473.159 1041.51C404.157 1006.14 347.716 946.557 333.202 870.436C319.236 797.19 353.41 725.732 402.192 669.31C448.303 615.977 512.563 583.44 583.066 581.436Z" clip-rule="evenodd"/><path fill="#6E9C50" fill-rule="evenodd" d="M899.514 1145.39C864.676 1209.86 807.989 1264.11 735.471 1274.89C663.098 1285.65 596.751 1246.33 541.288 1198.63C482.298 1147.91 423.286 1086.72 426.255 1009.01C429.32 928.806 488.27 863.778 555.745 820.245C620.894 778.213 700.755 759.162 773.983 784.663C844.445 809.199 889.287 874.503 913.795 944.929C936.961 1011.5 933.029 1083.38 899.514 1145.39Z" clip-rule="evenodd"/><path fill="#6E9C50" fill-rule="evenodd" d="M855.8 757.03C929.086 754.947 1004.45 776.874 1050.05 834.242C1095.56 891.496 1094.65 968.574 1081.05 1040.42C1066.59 1116.83 1043.06 1198.49 974.228 1234.78C903.19 1272.23 817.358 1253.73 745.893 1217.1C676.891 1181.74 620.45 1122.15 605.936 1046.03C591.97 972.784 626.144 901.325 674.926 844.903C721.037 791.57 785.297 759.033 855.8 757.03Z" clip-rule="evenodd"/><path fill="#6E9C50" fill-rule="evenodd" d="M544.084 857.055C617.37 854.973 692.737 876.9 738.337 934.268C783.846 991.521 782.939 1068.6 769.339 1140.44C754.873 1216.85 731.344 1298.52 662.512 1334.81C591.474 1372.25 505.642 1353.75 434.177 1317.13C365.175 1281.76 308.734 1222.18 294.22 1146.05C280.254 1072.81 314.428 1001.35 363.21 944.929C409.321 891.596 473.581 859.059 544.084 857.055Z" clip-rule="evenodd"/><path fill="#976B59" d="M179.704 1053.59C199.159 1033.55 200.843 1040.8 198.504 1064.44C174.756 1126.04 167.269 1162.95 133.513 1215L84.1643 1186.51C123.953 1124.18 143.942 1095.66 179.704 1053.59Z"/><path fill="#875743" d="M741.574 814.577C753.412 688.438 762.221 713.751 779.2 814.577C796.939 1118.39 817.688 1284.72 812.123 1573.3H713.354C719.067 1229.21 724.35 1067.58 741.574 814.577Z"/><path fill="#DAEDCD" fill-rule="evenodd" d="M462.456 1557.18C539.522 1558.78 608.15 1571.36 655.461 1590.58C701.883 1609.45 723.317 1633.33 707.24 1656.65C690.95 1680.28 641.045 1700.12 572.459 1710.99C502.294 1722.11 420.16 1723.71 348.611 1713.5C274.967 1702.99 221.633 1682.46 200.391 1657.89C177.93 1631.91 180.622 1602.71 234.815 1581.88C288.337 1561.32 378.199 1555.44 462.456 1557.18Z" clip-rule="evenodd"/><path fill="#DAEDCD" fill-rule="evenodd" d="M1105.59 1560.29C1182.45 1561.88 1250.89 1574.43 1298.08 1593.6C1344.37 1612.41 1365.75 1636.23 1349.72 1659.49C1333.47 1683.06 1283.7 1702.85 1215.3 1713.69C1145.32 1724.79 1063.41 1726.38 992.053 1716.2C918.608 1705.72 865.417 1685.24 844.233 1660.73C821.831 1634.82 824.517 1605.7 878.564 1584.92C931.941 1564.41 1021.56 1558.55 1105.59 1560.29Z" clip-rule="evenodd"/><path fill="#D5E7CA" fill-rule="evenodd" d="M3110.78 1549.01C3187.85 1550.61 3256.47 1563.19 3303.78 1582.41C3350.21 1601.27 3371.64 1625.16 3355.56 1648.48C3339.27 1672.11 3289.37 1691.94 3220.78 1702.82C3150.62 1713.94 3068.48 1715.54 2996.93 1705.33C2923.29 1694.82 2869.96 1674.29 2848.71 1649.72C2826.25 1623.74 2828.95 1594.54 2883.14 1573.71C2936.66 1553.14 3026.52 1547.27 3110.78 1549.01Z" clip-rule="evenodd"/><path fill="#D5E7CA" fill-rule="evenodd" d="M3110.78 1549.01C3187.85 1550.61 3256.47 1563.19 3303.78 1582.41C3350.21 1601.27 3371.64 1625.16 3355.56 1648.48C3339.27 1672.11 3289.37 1691.95 3220.78 1702.82C3150.62 1713.94 3068.48 1715.54 2996.93 1705.33C2923.29 1694.82 2869.96 1674.29 2848.71 1649.72C2826.25 1623.74 2828.95 1594.54 2883.14 1573.71C2936.66 1553.14 3026.52 1547.27 3110.78 1549.01Z" clip-rule="evenodd"/><path fill="#D5E7CA" fill-rule="evenodd" d="M2917.77 1540.31C2994.84 1541.91 3063.47 1554.49 3110.78 1573.71C3157.2 1592.58 3178.64 1616.46 3162.56 1639.78C3146.27 1663.41 3096.36 1683.25 3027.78 1694.12C2957.61 1705.24 2875.48 1706.84 2803.93 1696.63C2730.29 1686.12 2676.95 1665.59 2655.71 1641.02C2633.25 1615.04 2635.94 1585.84 2690.13 1565.01C2743.66 1544.45 2833.52 1538.57 2917.77 1540.31Z" clip-rule="evenodd"/><rect width="911.102" height="682.305" x="468.216" y="881.944" fill="url(#paint2_linear)"/><rect width="911.102" height="682.305" fill="url(#paint3_linear)" transform="matrix(-1 0 0 1 2980.08 881.944)"/><path fill="#D06A5E" d="M425.725 851.71C425.725 828.694 444.383 810.036 467.399 810.036H1374.32C1377.08 810.036 1379.32 812.275 1379.32 815.036V888.384C1379.32 891.145 1377.08 893.384 1374.32 893.384H467.399C444.383 893.384 425.725 874.726 425.725 851.71Z"/><path fill="#D06A5E" d="M3022.57 851.71C3022.57 828.694 3003.91 810.036 2980.9 810.036H2105.84C2103.08 810.036 2100.84 812.275 2100.84 815.036V888.384C2100.84 891.145 2103.08 893.384 2105.84 893.384H2980.9C3003.91 893.384 3022.57 874.726 3022.57 851.71Z"/><path stroke="#D07A3A" stroke-width="10" d="M1730.68 147.343V408.825"/><path fill="url(#paint4_linear)" d="M1729.87 477.464L2104.93 700.969V1055.18H1354.8V700.969L1729.87 477.464Z"/><path fill="url(#paint5_linear)" d="M2104.93 1031.48V1609.19H1354.8V1031.48H2104.93Z"/><rect width="893.942" height="83.347" x="453.508" y="1525.84" fill="#D06A5E" rx="5"/><rect width="893.942" height="83.347" fill="#D06A5E" rx="5" transform="matrix(-1 0 0 1 2994.79 1525.84)"/><rect width="390.589" height="56.382" x="1534.57" y="1160.59" fill="#AB3E31"/><rect width="386.589" height="52.382" x="1536.57" y="1156.87" fill="#D96D60" stroke="#C75446" stroke-width="4"/><path fill="#C16054" d="M1339.28 1518.33C1339.28 1508.94 1346.89 1501.33 1356.28 1501.33H1401.54C1410.93 1501.33 1418.54 1508.94 1418.54 1518.33V1525.84H1339.28V1518.33Z"/><path fill="#AE574C" d="M1326.2 1552.31C1326.2 1534.08 1340.98 1519.31 1359.2 1519.31H1397.8C1416.02 1519.31 1430.8 1534.08 1430.8 1552.31V1609.19H1326.2V1552.31Z"/><path fill="#AE574C" d="M1425.08 1084.59C1425.08 1099.94 1412.64 1112.37 1397.29 1112.37L1360.52 1112.37C1345.18 1112.37 1332.74 1099.94 1332.74 1084.59L1425.08 1084.59Z"/><rect width="58.016" height="390.589" x="1349.9" y="1110.74" fill="url(#paint6_linear)"/><path fill="#E98377" d="M1362.16 1134.85C1362.16 1132.36 1364.17 1130.35 1366.65 1130.35C1369.13 1130.35 1371.15 1132.36 1371.15 1134.85V1469.87C1371.15 1472.35 1369.13 1474.36 1366.65 1474.36C1364.17 1474.36 1362.16 1472.35 1362.16 1469.87V1134.85Z"/><path fill="#C16054" d="M2048.55 1518.33C2048.55 1508.94 2056.16 1501.33 2065.55 1501.33H2110.81C2120.2 1501.33 2127.81 1508.94 2127.81 1518.33V1525.84H2048.55V1518.33Z"/><path fill="#AE574C" d="M2035.47 1552.31C2035.47 1534.08 2050.25 1519.31 2068.47 1519.31H2107.07C2125.29 1519.31 2140.07 1534.08 2140.07 1552.31V1609.19H2035.47V1552.31Z"/><path fill="#AE574C" d="M2134.35 1084.59C2134.35 1099.94 2121.91 1112.37 2106.56 1112.37L2069.79 1112.37C2054.45 1112.37 2042.01 1099.94 2042.01 1084.59L2134.35 1084.59Z"/><rect width="58.016" height="390.589" x="2059.17" y="1110.74" fill="url(#paint7_linear)"/><path fill="#E98377" d="M2071.43 1134.85C2071.43 1132.36 2073.44 1130.35 2075.92 1130.35C2078.4 1130.35 2080.42 1132.36 2080.42 1134.85V1469.87C2080.42 1472.35 2078.4 1474.36 2075.92 1474.36C2073.44 1474.36 2071.43 1472.35 2071.43 1469.87V1134.85Z"/><path fill="#E98377" d="M2163.41 739.478L1729.87 495.743L1296.32 739.478C1272.04 753.131 1242.04 735.581 1242.04 707.721C1242.04 694.913 1248.77 683.046 1259.75 676.466L1729.87 394.933L2199.98 676.466C2210.97 683.046 2217.69 694.913 2217.69 707.721C2217.69 735.581 2187.69 753.131 2163.41 739.478Z"/><path fill="#E98377" d="M1314.36 1049.46C1310.33 1028.24 1326.59 1008.6 1348.18 1008.6H2111.89C2133.68 1008.6 2150.44 1027.87 2147.42 1049.46H2129.44L2144.15 1060.08C2141.33 1077.51 2126.28 1090.31 2108.62 1090.31H1349.53C1333.65 1090.31 1320.05 1078.96 1317.22 1063.35L1332.74 1049.46H1314.36Z"/><path fill="#DC6F61" d="M2140.39 750.269L1729.87 518.622L1311.07 750.504C1303.55 754.663 1294.34 749.23 1294.34 740.643C1294.34 736.567 1296.54 732.808 1300.09 730.814L1729.87 489.721C1918.5 602.686 1965.79 619.628 2151.65 730.704C2155.05 732.74 2157.23 736.472 2157.23 740.439C2157.23 749.078 2147.92 754.514 2140.39 750.269Z"/><path fill="#DC7D71" d="M1600.76 1345.26C1600.76 1222.69 1859.79 1219.42 1859.79 1345.26V1608.37H1600.76V1345.26Z"/><path fill="#D7F8FF" d="M1507.61 851.711H1552.55H1597.49V896.653V941.595H1552.55H1507.61V896.653V851.711Z"/><path fill="#BBEFFB" d="M1597.49 851.711V896.653V941.595H1552.55H1507.61L1597.49 851.711Z"/><path fill="#D7F8FF" d="M1684.92 851.71H1729.87H1774.81V896.653V941.595H1729.87H1684.92V896.653V851.71Z"/><path fill="#BBEFFB" d="M1774.81 851.71V896.653V941.595H1729.87H1684.92L1774.81 851.71Z"/><path fill="#D7F8FF" d="M1862.24 851.71H1907.18H1952.13V896.653V941.595H1907.18H1862.24V896.653V851.71Z"/><path fill="#BBEFFB" d="M1952.13 851.71V896.653V941.595H1907.18H1862.24L1952.13 851.71Z"/><rect width="79.885" height="79.885" x="1512.61" y="856.711" stroke="#fff" stroke-width="10"/><rect width="79.885" height="79.885" x="1689.92" y="856.71" stroke="#fff" stroke-width="10"/><rect width="79.885" height="79.885" x="1867.24" y="856.71" stroke="#fff" stroke-width="10"/><path fill="#D7F8FF" d="M1812.4 710.346C1812.4 755.926 1775.45 792.876 1729.87 792.876C1684.29 792.876 1647.34 755.926 1647.34 710.346C1647.34 664.766 1684.29 627.816 1729.87 627.816C1775.45 627.816 1812.4 664.766 1812.4 710.346Z"/><path fill="#fff" fill-rule="evenodd" d="M1729.87 627.816C1727.34 627.816 1724.84 627.93 1722.37 628.152C1682.77 631.719 1651.24 663.251 1647.67 702.846C1647.45 705.316 1647.34 707.818 1647.34 710.346C1647.34 712.874 1647.45 715.376 1647.67 717.846C1651.24 757.441 1682.77 788.973 1722.37 792.54C1724.84 792.763 1727.34 792.876 1729.87 792.876C1732.4 792.876 1734.9 792.763 1737.37 792.54C1776.96 788.973 1808.49 757.441 1812.06 717.846C1812.28 715.376 1812.4 712.874 1812.4 710.346C1812.4 707.818 1812.28 705.316 1812.06 702.846C1808.49 663.251 1776.96 631.719 1737.37 628.152C1734.9 627.93 1732.4 627.816 1729.87 627.816ZM1722.37 643.228C1691.06 646.687 1666.21 671.542 1662.75 702.846H1722.37V643.228ZM1737.37 702.846V643.228C1768.67 646.687 1793.53 671.542 1796.99 702.846H1737.37ZM1722.37 717.846H1662.75C1666.21 749.15 1691.06 774.006 1722.37 777.465V717.846ZM1737.37 777.465V717.846H1796.99C1793.53 749.15 1768.67 774.006 1737.37 777.465Z" clip-rule="evenodd"/><path fill="#D06A5E" d="M1722.51 148.67C1794.59 80.6538 1883.36 235.358 1977.46 172.676V311.376C1862 367.39 1814.07 244.5 1722.51 287.37V148.67Z"/><path fill="#fff" d="M1564.33 1200V1195.41H1567.67V1177.42H1564.33V1172.83H1576.73C1579.48 1172.83 1581.52 1172.99 1582.86 1173.32C1584.2 1173.63 1585.36 1174.41 1586.34 1175.64C1587.32 1176.87 1587.8 1178.31 1587.8 1179.96C1587.8 1182.6 1586.53 1184.47 1583.98 1185.57C1587.23 1186.78 1588.86 1188.95 1588.86 1192.07C1588.86 1193.87 1588.35 1195.41 1587.34 1196.7C1586.33 1197.98 1585.03 1198.85 1583.43 1199.32C1581.84 1199.77 1579.61 1200 1576.73 1200H1564.33ZM1574.74 1183.55H1576.73C1578.11 1183.55 1579.13 1183.32 1579.78 1182.85C1580.43 1182.38 1580.75 1181.56 1580.75 1180.37C1580.75 1179.29 1580.43 1178.53 1579.8 1178.09C1579.17 1177.64 1578.07 1177.42 1576.5 1177.42H1574.74V1183.55ZM1574.74 1195.41H1576.73C1578.54 1195.41 1579.8 1195.15 1580.52 1194.63C1581.24 1194.11 1581.59 1193.19 1581.59 1191.88C1581.59 1190.49 1581.2 1189.53 1580.42 1188.98C1579.65 1188.42 1578.42 1188.14 1576.73 1188.14H1574.74V1195.41Z"/><path fill="#fff" d="M1591.81 1200V1195.41H1595.93V1177.42H1591.81V1172.83H1607.16V1177.42H1603V1195.41H1607.16V1200H1591.81Z"/><path fill="#fff" d="M1613.9 1200V1195.41H1617.98V1177.42H1613.9V1183.75H1609.23V1172.83H1633.86V1183.75H1629.25V1177.42H1625.05V1195.41H1629.13V1200H1613.9Z"/><path fill="#fff" d="M1645.79 1177.42V1172.83H1658.76V1177.42H1656.09V1189.71C1656.09 1191.35 1656.15 1192.53 1656.28 1193.26C1656.42 1193.98 1656.79 1194.57 1657.37 1195.04C1657.96 1195.51 1658.7 1195.74 1659.6 1195.74C1660.53 1195.74 1661.29 1195.52 1661.91 1195.08C1662.52 1194.64 1662.91 1194.08 1663.08 1193.42C1663.26 1192.75 1663.35 1191.4 1663.35 1189.36V1177.42H1660.71V1172.83H1671.53V1177.42H1668.21V1191.02C1668.21 1192.86 1668.12 1194.21 1667.92 1195.06C1667.73 1195.89 1667.28 1196.73 1666.57 1197.56C1665.87 1198.38 1664.85 1199.05 1663.51 1199.57C1662.18 1200.08 1660.65 1200.33 1658.92 1200.33C1656.91 1200.33 1655.2 1200.05 1653.78 1199.49C1652.37 1198.92 1651.33 1198.16 1650.64 1197.23C1649.95 1196.29 1649.5 1195.36 1649.31 1194.43C1649.11 1193.51 1649.02 1191.93 1649.02 1189.71V1177.42H1645.79Z"/><path fill="#fff" d="M1673.21 1200V1195.41H1676.85V1177.42H1673.21V1172.83H1684.6L1694.62 1189.79V1177.42H1691.09V1172.83H1703.27V1177.42H1699.46V1200.2H1693.41L1681.69 1180.06V1195.41H1685.11V1200H1673.21Z"/><path fill="#fff" d="M1704.7 1200V1195.41H1708.82V1177.42H1704.7V1172.83H1720.05V1177.42H1715.89V1195.41H1720.05V1200H1704.7Z"/><path fill="#fff" d="M1732.16 1200.18L1724.07 1177.42H1720.83V1172.83H1734.7V1177.42H1731.18L1735.75 1191.04L1740.34 1177.42H1736.89V1172.83H1748.9V1177.42H1745.6L1737.8 1200.18H1732.16Z"/><path fill="#fff" d="M1750.15 1200V1195.41H1753.41V1177.42H1750.15V1172.83H1774.09V1181.45H1768.9V1177.42H1760.48V1183.69H1767.28V1188.28H1760.48V1195.41H1768.9V1191.35H1774.09V1200H1750.15Z"/><path fill="#fff" d="M1804.74 1195.41V1200H1796.46L1790.32 1188.11H1787.22V1195.41H1790.62V1200H1776.42V1195.41H1780.15V1177.42H1776.42V1172.83H1792.8C1795.89 1172.83 1798.11 1173.61 1799.46 1175.18C1800.83 1176.73 1801.52 1178.48 1801.52 1180.45C1801.52 1183.54 1799.95 1185.79 1796.81 1187.21L1801.22 1195.41H1804.74ZM1787.22 1183.77H1789.64C1792.64 1183.77 1794.13 1182.7 1794.13 1180.57C1794.13 1179.51 1793.79 1178.72 1793.1 1178.2C1792.42 1177.68 1791.48 1177.42 1790.28 1177.42H1787.22V1183.77Z"/><path fill="#fff" d="M1806.57 1200V1190.74H1811.18C1811.24 1192.43 1811.68 1193.68 1812.51 1194.49C1813.34 1195.29 1814.3 1195.68 1815.36 1195.68C1816.2 1195.68 1816.9 1195.4 1817.47 1194.82C1818.05 1194.24 1818.33 1193.55 1818.33 1192.77C1818.33 1191.94 1818.05 1191.24 1817.49 1190.68C1816.93 1190.11 1815.91 1189.46 1814.43 1188.73C1811.29 1187.21 1809.15 1185.87 1808.02 1184.71C1806.9 1183.55 1806.34 1181.99 1806.34 1180.02C1806.34 1177.65 1807.08 1175.81 1808.57 1174.51C1810.05 1173.21 1811.74 1172.56 1813.62 1172.56C1815.79 1172.56 1817.46 1173.4 1818.64 1175.08V1172.83H1823.23V1181.09H1818.64C1818.5 1179.82 1818.06 1178.83 1817.32 1178.14C1816.59 1177.44 1815.73 1177.09 1814.76 1177.09C1814 1177.09 1813.36 1177.29 1812.84 1177.7C1812.32 1178.1 1812.06 1178.63 1812.06 1179.28C1812.06 1179.84 1812.28 1180.37 1812.71 1180.88C1813.14 1181.37 1814.39 1182.08 1816.48 1183.01C1818.48 1183.91 1820.02 1184.72 1821.09 1185.45C1822.17 1186.17 1823.02 1187.1 1823.64 1188.26C1824.27 1189.41 1824.58 1190.74 1824.58 1192.25C1824.58 1194.93 1823.8 1196.95 1822.24 1198.3C1820.68 1199.65 1818.83 1200.33 1816.69 1200.33C1814.31 1200.33 1812.47 1199.45 1811.18 1197.7V1200H1806.57Z"/><path fill="#fff" d="M1826.81 1200V1195.41H1830.93V1177.42H1826.81V1172.83H1842.16V1177.42H1838V1195.41H1842.16V1200H1826.81Z"/><path fill="#fff" d="M1848.9 1200V1195.41H1852.98V1177.42H1848.9V1183.75H1844.23V1172.83H1868.86V1183.75H1864.25V1177.42H1860.05V1195.41H1864.13V1200H1848.9Z"/><path fill="#fff" d="M1876.85 1200V1195.41H1880.66V1188.07L1873.29 1177.42H1869.97V1172.83H1883.57V1177.42H1880.89L1884.87 1184.06L1888.92 1177.42H1886.12V1172.83H1898.1V1177.42H1894.76L1887.73 1188.07V1195.41H1891.52V1200H1876.85Z"/><path fill="#525255" d="M1486.53 1767.28C1488.18 1767.44 1486.58 1768.53 1488.14 1769.13C1489.34 1769.68 1490.66 1769.89 1491.96 1769.74C1493.27 1769.58 1494.5 1769.07 1495.53 1768.25C1500.52 1769.21 1504.88 1769.84 1511.12 1772.39C1514.11 1773.61 1517.03 1775 1519.88 1776.54C1520.17 1776.84 1520.41 1777.2 1520.56 1777.6C1520.71 1777.99 1520.78 1778.41 1520.76 1778.84C1520.64 1779.57 1520.28 1780.24 1519.74 1780.74C1519.2 1781.25 1518.5 1781.55 1517.76 1781.61C1505.36 1784.16 1492.57 1784.08 1480.2 1781.38C1478.68 1780.78 1477.44 1779.63 1476.74 1778.15C1475.11 1774.4 1478.59 1770.29 1480.43 1768.7C1481.31 1767.95 1485.1 1767.14 1486.53 1767.28Z"/><path fill="#9A4522" d="M1632.44 1451.67C1629.92 1442.83 1624.69 1434 1622.17 1425.16C1622.01 1424.69 1621.97 1424.18 1622.04 1423.68C1622.12 1423.19 1622.32 1422.72 1622.62 1422.32C1623.02 1421.75 1623.6 1421.34 1624.27 1421.14C1624.93 1420.94 1625.64 1420.97 1626.29 1421.21C1626.82 1421.48 1627.25 1421.91 1627.53 1422.44C1629 1424.88 1630.62 1433.33 1630.62 1433.33C1630.7 1433.55 1630.84 1433.73 1631.03 1433.87C1631.22 1434.01 1631.45 1434.08 1631.68 1434.09C1631.91 1434.09 1632.14 1434.02 1632.34 1433.9C1632.53 1433.77 1632.69 1433.59 1632.77 1433.37C1636.44 1424.53 1638.54 1414.96 1643.73 1406.77C1644.1 1406.19 1644.9 1405.6 1645.43 1405.75C1646.21 1405.98 1646.16 1407.86 1646.16 1408.61C1646.03 1413.03 1642.23 1423.94 1642.05 1429.1C1642.01 1430.12 1642.53 1430.64 1642.93 1430.71C1644.61 1431.02 1648.19 1423.35 1653.67 1407.7C1653.76 1407.45 1653.9 1407.22 1654.1 1407.04C1654.29 1406.86 1654.53 1406.73 1654.79 1406.66C1654.95 1406.6 1655.12 1406.57 1655.29 1406.58C1655.46 1406.59 1655.63 1406.63 1655.78 1406.71C1656.06 1406.88 1656.41 1407.33 1656.16 1408.92C1655.57 1412.53 1649.81 1430.18 1649.64 1432.88C1649.58 1433.98 1650.09 1434.21 1650.3 1434.24C1651.56 1434.41 1653.46 1427.11 1658.79 1417.7C1661.07 1413.67 1661.67 1413.34 1661.98 1413.42C1662.95 1413.65 1662.87 1418.25 1661.25 1422.42C1660.77 1423.55 1660.23 1424.65 1659.61 1425.71C1658.09 1428.64 1656.76 1431.66 1655.64 1434.75C1655.5 1435.8 1655.64 1436.15 1655.83 1436.23C1655.83 1436.23 1656.65 1436.55 1665.03 1423.92C1665.46 1423.44 1666.16 1422.76 1666.74 1422.89C1667.72 1423.12 1667.76 1425.58 1667.76 1426.44C1667.82 1430.41 1665.43 1438.87 1656.71 1447.12C1654.4 1449.33 1648.84 1451.98 1643.55 1454.75"/><path fill="#CE5C2B" d="M1463.19 1449.62C1463.19 1420.19 1487.05 1396.33 1516.48 1396.33C1545.92 1396.33 1569.78 1420.19 1569.78 1449.62V1511.49C1569.78 1520.42 1562.54 1527.65 1553.62 1527.65H1479.35C1470.42 1527.65 1463.19 1520.42 1463.19 1511.49V1449.62Z"/><path fill="#050606" d="M1496.06 1362.79C1495.89 1362.73 1495.74 1362.61 1495.64 1362.46C1493.99 1360.09 1493.18 1357.23 1493.33 1354.34C1493.45 1352.45 1494.01 1350.61 1494.96 1348.97C1495.9 1347.32 1497.21 1345.92 1498.79 1344.86C1498.9 1344.78 1499.03 1344.74 1499.17 1344.72L1499.81 1344.61C1499.94 1344.59 1500.07 1344.54 1500.19 1344.47C1500.3 1344.4 1500.4 1344.3 1500.47 1344.18C1500.54 1344.07 1500.59 1343.94 1500.6 1343.81C1500.62 1343.67 1500.61 1343.53 1500.57 1343.4C1500.29 1342.48 1500.15 1341.53 1500.15 1340.57C1500.15 1335.38 1504.52 1330.94 1508.68 1329.57C1511.43 1328.74 1514.41 1329.03 1516.95 1330.37C1517.1 1330.46 1517.27 1330.5 1517.44 1330.49C1517.61 1330.48 1517.77 1330.42 1517.91 1330.32C1518.42 1329.96 1518.98 1329.67 1519.57 1329.44C1520.55 1329.08 1521.6 1328.93 1522.64 1328.98C1523.69 1329.03 1524.71 1329.29 1525.65 1329.75C1525.84 1329.83 1526.04 1329.85 1526.24 1329.8C1526.43 1329.76 1526.61 1329.65 1526.74 1329.5C1527.63 1328.51 1528.66 1327.65 1529.8 1326.96C1535.98 1323.23 1540.7 1328.4 1542.74 1330.49C1542.83 1330.59 1542.94 1330.66 1543.07 1330.71C1543.19 1330.76 1543.33 1330.79 1543.46 1330.78C1543.6 1330.77 1543.73 1330.74 1543.85 1330.68C1543.97 1330.62 1544.07 1330.53 1544.16 1330.43C1544.64 1329.82 1545.18 1329.27 1545.79 1328.79C1546.98 1327.85 1548.38 1327.24 1549.87 1326.99C1551.36 1326.75 1552.89 1326.89 1554.31 1327.39C1558.72 1329.16 1564.89 1333.89 1563.61 1342.25C1563.58 1342.38 1563.58 1342.52 1563.62 1342.66C1563.66 1342.79 1563.72 1342.91 1563.82 1343.02C1565.13 1344.47 1566.07 1346.23 1566.55 1348.13C1568.01 1353.88 1564.87 1358.96 1563.76 1360.47C1563.54 1360.77 1560.32 1364.19 1560.49 1364.51C1562.26 1367.64 1565.59 1366.94 1565.37 1368.53C1563.69 1380.47 1536.14 1389.08 1521.93 1382.31C1509.97 1376.61 1503.99 1373.77 1503.57 1373.33C1503.14 1372.9 1501.7 1371.33 1500.29 1371.78C1498.88 1372.23 1498.88 1373.95 1498.06 1373.95C1496.7 1373.95 1494.72 1369.26 1495.95 1366.52C1496.49 1365.3 1497.55 1364.76 1497.39 1363.87C1497.28 1363.35 1496.64 1363 1496.06 1362.79Z"/><path fill="#9A4522" d="M1510.82 1385.45C1509.61 1385.59 1508.39 1385.59 1507.18 1385.45C1505.95 1385.32 1500.75 1384.76 1497.16 1380.67C1493.72 1376.76 1492.02 1369.93 1495.34 1364.73C1495.42 1364.61 1495.58 1364.34 1495.82 1364C1496.28 1363.35 1498.99 1359.59 1503.54 1359.26C1505.91 1359.14 1508.26 1359.87 1510.14 1361.32L1513.29 1363.27C1512.91 1361.52 1512.83 1359.72 1513.05 1357.95C1514.22 1349.19 1522.96 1342.23 1531.23 1340.84C1533.36 1340.43 1535.54 1340.43 1537.67 1340.84C1542.68 1341.85 1545.78 1344.99 1548.37 1347.67C1552.79 1352.32 1556.06 1357.94 1557.94 1364.07C1559.58 1363.66 1561.3 1363.66 1562.94 1364.07C1563.6 1364.23 1567.29 1365.14 1569.12 1368.39C1571.51 1372.72 1568.65 1377.7 1567.98 1378.86C1566.31 1381.68 1563.75 1383.85 1560.7 1385.03C1560.37 1386.88 1559.91 1388.71 1559.33 1390.5C1557.81 1395.11 1555.28 1402.84 1548.63 1406.67C1543.87 1409.4 1538.73 1409.17 1535.79 1408.71C1534.73 1411.55 1534.05 1414.51 1533.77 1417.53C1533.5 1420.3 1533.5 1423.08 1533.77 1425.85C1529.16 1427.38 1524.2 1427.57 1519.49 1426.39C1514.77 1425.21 1510.49 1422.72 1507.14 1419.19C1510.81 1411.4 1512.54 1402.84 1512.17 1394.23C1511.98 1391.27 1511.53 1388.33 1510.82 1385.45Z"/><path fill="#84391E" d="M1535.79 1408.69C1534.84 1412.05 1532.95 1425.15 1532.52 1428.42C1530.69 1427.31 1528.92 1426.09 1527.23 1424.77C1524.29 1422.48 1518.67 1418.13 1515.43 1411.61C1514.36 1409.4 1513.88 1406.94 1514.05 1404.49C1514.37 1399.45 1514.07 1394.4 1513.17 1389.43C1515.52 1394.27 1515.55 1394.32 1515.55 1394.32C1518.37 1399.73 1522.92 1404.06 1528.47 1406.61C1530.8 1407.65 1533.27 1408.35 1535.79 1408.69Z"/><path fill="#9A4522" d="M1548.7 1541.88L1514.96 1580.74C1521.85 1604.17 1528.06 1628.92 1533.28 1654.94C1534.29 1660 1535.26 1665.03 1536.17 1670.03L1535.67 1677.31C1535.57 1678.66 1535.61 1680.02 1535.78 1681.37C1536.42 1686.34 1537.08 1691.34 1537.77 1696.36C1540.53 1716.28 1543.64 1735.65 1547.09 1754.49C1547.56 1755.08 1548.14 1755.55 1548.81 1755.89C1549.48 1756.22 1550.22 1756.41 1550.96 1756.43C1551.79 1756.4 1552.59 1756.19 1553.31 1755.8C1554.04 1755.41 1554.66 1754.85 1555.13 1754.18C1557.28 1734.79 1559.72 1707.17 1560.6 1673.56C1560.71 1668.96 1561.01 1657.6 1560.92 1646.9C1560.66 1622.7 1558.44 1587.16 1548.7 1541.88Z"/><path fill="#F4B68E" d="M1530.52 1433.87C1523.19 1430.88 1516.36 1432.2 1509.24 1433.57C1499.31 1435.54 1490.02 1439.92 1482.19 1446.33C1482.11 1447.66 1481.98 1449.79 1481.89 1452.41C1481.36 1470.56 1482.89 1488.7 1486.44 1506.5C1487.15 1510.11 1488.21 1515.24 1489.79 1521.39C1491.71 1522.87 1493.74 1524.19 1495.87 1525.34C1502.91 1529.01 1510.72 1530.98 1518.66 1531.11C1526.4 1531.26 1534.08 1529.71 1541.15 1526.55C1543.68 1511.67 1546.22 1496.78 1548.75 1481.88C1549.43 1479.91 1549.94 1477.87 1550.27 1475.81C1552.73 1460.51 1545.67 1440.06 1530.52 1433.87Z"/><path fill="#D18A61" d="M1540.96 1524.14C1536.96 1525.65 1532.83 1526.76 1528.61 1527.45C1522.86 1528.4 1509.12 1530.64 1496.53 1523.66C1494.04 1522.28 1491.72 1520.61 1489.63 1518.69C1488.65 1520.3 1487.26 1522.67 1485.68 1525.56C1481.65 1532.91 1478.91 1537.9 1477.04 1544.51C1475.99 1548.23 1475.33 1552.04 1475.06 1555.88C1479.83 1556.01 1484.57 1556.73 1489.17 1558.02C1494.6 1559.55 1502.96 1561.91 1508.41 1567.97C1509.71 1569.49 1511.11 1570.91 1512.61 1572.23C1515.59 1574.87 1517.58 1576.59 1520.26 1577.21C1525.11 1578.33 1529.65 1575.16 1531.12 1574.13C1535.39 1571.15 1535.99 1568.11 1540 1562.05C1542.73 1557.94 1545.87 1554.13 1549.38 1550.67C1549.03 1547.4 1548.44 1544.16 1547.62 1540.98C1546.13 1535.1 1543.89 1529.44 1540.96 1524.14Z"/><path fill="#9A4522" d="M1517.87 1571.15C1523.99 1579.52 1520.35 1585.21 1518.54 1620.17C1517.33 1643.57 1516.93 1680.24 1514.23 1702.96C1513.79 1706.86 1513.12 1710.73 1512.25 1714.55C1510.62 1721.61 1508.29 1728.49 1505.29 1735.09C1502.03 1742.52 1497.98 1753.99 1494.71 1771.51C1493.43 1771.96 1492.03 1771.96 1490.74 1771.51C1489.91 1771.2 1489.15 1770.71 1488.53 1770.08C1487.9 1769.45 1487.41 1768.7 1487.1 1767.87C1487.04 1761.7 1487.1 1756.77 1487.1 1753.63C1487.29 1730.65 1488.3 1719.93 1488.42 1696.01C1488.42 1692.36 1488.42 1689.43 1488.42 1687.73C1486.81 1670.98 1485.23 1657.41 1484.12 1648.32C1480.41 1618.16 1477.39 1601.2 1475.83 1573.15C1475.45 1566.31 1475.26 1560.74 1475.17 1557.28C1488.11 1556.76 1508.26 1558.02 1517.87 1571.15Z"/><path fill="#525255" d="M1546.7 1754.23C1548.35 1754.38 1547.58 1755.27 1549.16 1755.86C1550.33 1756.31 1551.76 1756.54 1555.07 1754.05C1564.1 1755.78 1572.8 1758.89 1580.89 1763.27C1581.18 1763.57 1581.41 1763.93 1581.57 1764.33C1581.72 1764.73 1581.79 1765.15 1581.77 1765.57C1581.65 1766.3 1581.3 1766.98 1580.75 1767.48C1580.21 1767.98 1579.51 1768.29 1578.77 1768.34C1566.37 1770.89 1553.58 1770.81 1541.21 1768.1C1539.69 1767.51 1538.45 1766.35 1537.76 1764.88C1536.12 1761.14 1539.61 1757.01 1541.44 1755.43C1542.35 1754.67 1545.28 1754.09 1546.7 1754.23Z"/><path fill="#050606" d="M1529.05 1374.6C1528.17 1374.84 1527.9 1376.09 1527.73 1376.87C1527.63 1377.37 1527.12 1379.65 1528.39 1380.55C1528.62 1380.72 1528.89 1380.83 1529.16 1380.88C1529.44 1380.93 1529.72 1380.92 1530 1380.84C1530.99 1380.55 1531.35 1379.43 1531.51 1378.95C1531.71 1378.39 1531.77 1377.78 1531.69 1377.19C1531.61 1376.6 1531.38 1376.03 1531.04 1375.55C1530.94 1375.43 1530 1374.35 1529.05 1374.6Z"/><path fill="#050606" d="M1549.64 1374.37C1548.76 1374.61 1548.49 1375.86 1548.32 1376.64C1548.21 1377.13 1547.71 1379.42 1548.98 1380.32C1549.21 1380.49 1549.47 1380.6 1549.75 1380.65C1550.03 1380.69 1550.31 1380.68 1550.58 1380.61C1551.58 1380.32 1551.94 1379.21 1552.1 1378.72C1552.3 1378.16 1552.36 1377.55 1552.28 1376.96C1552.19 1376.37 1551.97 1375.81 1551.62 1375.32C1551.53 1375.19 1550.58 1374.11 1549.64 1374.37Z"/><path fill="#050606" d="M1548.57 1369.46C1549.67 1369.46 1551.43 1369.46 1551.76 1370.84C1551.98 1371.81 1553.52 1371.39 1553.26 1370.43C1553.13 1369.98 1552.91 1369.57 1552.6 1369.22C1552.3 1368.87 1551.92 1368.6 1551.49 1368.42C1550.56 1367.99 1549.54 1367.82 1548.52 1367.91C1548.32 1367.91 1548.12 1367.99 1547.97 1368.14C1547.83 1368.29 1547.75 1368.48 1547.75 1368.69C1547.75 1368.89 1547.83 1369.09 1547.97 1369.24C1548.12 1369.38 1548.32 1369.46 1548.52 1369.46H1548.57Z"/><path fill="#050606" d="M1526.43 1371.93C1526.81 1370.17 1528.78 1369.36 1530.45 1369.29C1530.65 1369.29 1530.85 1369.21 1531 1369.06C1531.14 1368.92 1531.22 1368.72 1531.22 1368.51C1531.22 1368.31 1531.14 1368.11 1531 1367.96C1530.85 1367.82 1530.65 1367.74 1530.45 1367.74C1528.11 1367.79 1525.46 1369.02 1524.94 1371.49C1524.73 1372.47 1526.23 1372.89 1526.43 1371.91V1371.93Z"/><path fill="#692E15" d="M1539.11 1378.5C1539.11 1382.13 1539.44 1386.06 1542.55 1388.38L1542.27 1387.32C1540.93 1388.92 1539.16 1390.09 1537.17 1390.71C1536.22 1391 1536.64 1392.47 1537.59 1392.21C1539.97 1391.49 1542.07 1390.06 1543.61 1388.11C1543.71 1387.93 1543.74 1387.72 1543.69 1387.52C1543.64 1387.32 1543.51 1387.15 1543.34 1387.04C1540.69 1385.1 1540.69 1381.44 1540.69 1378.5C1540.69 1378.29 1540.61 1378.1 1540.46 1377.95C1540.32 1377.81 1540.12 1377.72 1539.92 1377.72C1539.71 1377.72 1539.51 1377.81 1539.37 1377.95C1539.22 1378.1 1539.14 1378.29 1539.14 1378.5H1539.11Z"/><path fill="#692E15" d="M1538.73 1399.11C1535.33 1399.99 1531.35 1398.1 1529.54 1395.15C1529.01 1394.26 1527.67 1395.07 1528.19 1395.93C1530.37 1399.46 1535.06 1401.66 1539.15 1400.61C1539.25 1400.58 1539.34 1400.54 1539.42 1400.47C1539.5 1400.41 1539.57 1400.33 1539.62 1400.25C1539.67 1400.16 1539.7 1400.06 1539.71 1399.96C1539.73 1399.86 1539.72 1399.75 1539.69 1399.65C1539.66 1399.56 1539.62 1399.46 1539.55 1399.38C1539.49 1399.3 1539.41 1399.24 1539.33 1399.19C1539.24 1399.14 1539.14 1399.1 1539.04 1399.09C1538.94 1399.08 1538.83 1399.09 1538.73 1399.11Z"/><path fill="#3498D4" d="M1548.63 1517.7C1524.67 1518.84 1502.47 1518.96 1478.67 1520.16C1477.89 1522.59 1477.79 1527.22 1477 1529.68C1476.45 1532.21 1474.84 1536.15 1474.19 1540.52C1472.68 1544.97 1471.83 1549.61 1471.68 1554.31C1469.4 1604.63 1473.23 1698.11 1473.23 1698.11C1473.72 1710.25 1474.46 1729.48 1475.17 1753.46C1477.41 1754.71 1479.74 1755.79 1482.14 1756.69C1490.7 1759.8 1499.92 1760.62 1508.89 1759.07C1511.59 1746.11 1513.97 1732.35 1515.86 1717.87C1520.68 1681.05 1521.87 1643.84 1519.39 1606.79C1521.44 1617.47 1523.38 1628.38 1525.2 1639.51C1531.1 1675.78 1534.9 1710.49 1537.21 1743.33C1539.37 1745.15 1541.87 1746.52 1544.57 1747.37C1553.12 1750.01 1560.65 1746.06 1563.55 1744.55C1567.79 1742.29 1571.48 1739.12 1574.36 1735.27C1574.08 1714.23 1573.4 1696.87 1572.82 1684.77C1570.89 1644.6 1568.73 1602.79 1558.87 1551.87C1556.23 1538.29 1554.58 1525.66 1553.17 1518.05C1552.89 1516.55 1549.97 1517.64 1548.63 1517.7Z"/><path fill="#2084AD" d="M1519.3 1606.75C1519.13 1606.81 1520.03 1609.8 1521.71 1618.96C1522.39 1622.66 1522.41 1623.12 1524.04 1632.79C1525.52 1641.6 1525.61 1641.91 1526.24 1645.87C1526.56 1647.89 1526.94 1650.36 1528.22 1659.48C1529.81 1670.69 1530.61 1676.3 1531.15 1680.69C1531.71 1685.22 1532.16 1689.34 1533.06 1697.56C1533.7 1703.52 1534.06 1706.85 1534.54 1711.6C1534.7 1713.36 1535.42 1720.64 1536.23 1730.51C1536.64 1735.59 1536.96 1739.94 1537.2 1743.29C1537.45 1743.53 1537.72 1743.76 1538 1743.98C1538.34 1744.24 1538.59 1744.4 1539.02 1744.68C1539.97 1745.29 1540.44 1745.56 1540.56 1745.65C1541.52 1746.27 1542.57 1746.75 1543.66 1747.07C1545.13 1746.86 1548.03 1731.07 1541.11 1690.02C1533.26 1643.48 1519.9 1606.56 1519.3 1606.75Z"/><path fill="#9A4522" d="M1475.46 1435.3C1481.51 1435.03 1487.95 1441.47 1490.27 1448.15C1494.78 1461.15 1483.98 1476.07 1470.47 1494.72C1465.46 1501.64 1460.04 1508.25 1454.23 1514.52C1455.71 1516.64 1457.32 1518.67 1459.05 1520.6C1462.08 1523.96 1467.26 1529.7 1475.65 1533.56C1481.86 1536.38 1488.65 1537.72 1495.46 1537.48C1499.31 1539.24 1499.25 1540.37 1499.22 1540.6C1499.02 1541.89 1495.61 1542.77 1492.69 1542.6C1488.56 1542.37 1486.21 1540.09 1485.24 1541.03C1484.58 1541.67 1485.14 1543.23 1485.48 1544.2C1486.39 1546.48 1487.83 1548.52 1489.68 1550.15C1493.12 1553.67 1496.23 1558.43 1495.57 1559.16C1494.78 1560.05 1488.35 1555.51 1486.28 1553.96C1484.47 1552.68 1482.76 1551.26 1481.17 1549.71C1479.88 1548.44 1479.16 1547.55 1479.05 1547.64C1478.76 1547.85 1482.57 1552.93 1486.21 1560.44C1487.6 1563.31 1486.67 1563.39 1486.21 1563.7C1485.45 1564.26 1482.51 1560.8 1475.37 1552.71C1473.99 1551.16 1473.14 1549.7 1472.86 1549.85C1472.32 1550.14 1474.62 1555.81 1477.45 1560.67C1478.5 1562.49 1479.73 1564.2 1480.89 1565.96C1482.23 1567.99 1481.4 1567.94 1481.25 1568.1C1480.85 1568.49 1478.27 1566.05 1475.55 1563.54C1471.01 1559.34 1468.85 1555.8 1468.58 1555.97C1468.31 1556.15 1476.1 1565.91 1474.75 1567.27C1474.01 1568.02 1470.93 1566.17 1469.46 1565.12C1467.32 1563.46 1465.63 1561.27 1464.57 1558.77C1462.37 1553.99 1461.21 1548.79 1461.17 1543.53C1456.47 1539.91 1452.46 1537.2 1449.64 1535.39C1440.96 1529.79 1436.47 1528.04 1433.31 1522.35C1432.2 1520.34 1431.42 1518.16 1431.03 1515.9C1429.89 1508.84 1433.16 1503.1 1435.19 1499.26C1441.81 1486.65 1437.66 1489.48 1446.25 1472C1451.2 1461.64 1457.42 1451.92 1464.76 1443.09C1469.3 1437.78 1471.99 1435.46 1475.46 1435.3Z"/><path fill="#9A4522" d="M1646.09 1453.78C1641.73 1460.75 1635.94 1469.92 1628.99 1480.68C1618.36 1497.17 1613.2 1504.71 1603.96 1512.65C1602.24 1514.13 1599.39 1518.51 1593.81 1520.25C1591.54 1520.94 1589.16 1521.2 1586.79 1521C1586.69 1520.99 1586.59 1520.96 1586.5 1520.92C1585.16 1520.41 1583.87 1519.79 1582.63 1519.08C1579.33 1517.18 1576.42 1514.66 1574.08 1511.65C1568.35 1504.48 1552.95 1492.91 1546.02 1485.7C1540.07 1479.52 1529.16 1464.93 1525.98 1431.8C1525.96 1431.61 1526 1431.42 1526.08 1431.25C1526.17 1431.08 1526.29 1430.94 1526.45 1430.83C1526.61 1430.72 1526.79 1430.66 1526.98 1430.65C1527.17 1430.63 1527.36 1430.67 1527.53 1430.75C1538.04 1435.57 1547.93 1441.64 1556.99 1448.84C1570.87 1459.91 1582.51 1473.53 1591.31 1488.96C1591.39 1489.11 1591.52 1489.24 1591.66 1489.34C1591.81 1489.43 1591.97 1489.49 1592.15 1489.51C1592.32 1489.53 1592.49 1489.51 1592.66 1489.45C1592.82 1489.38 1592.96 1489.29 1593.08 1489.16L1632.79 1446.62C1632.97 1446.42 1633.07 1446.16 1633.07 1445.89"/><path fill="#F5A134" d="M1592.18 1478.45C1590.87 1474.53 1589.73 1473.55 1588.1 1469.46C1583.95 1461.41 1586.11 1466.01 1583.06 1459.06C1582.58 1457.98 1581.99 1456.96 1581.3 1456C1579.94 1454.11 1577.18 1450.35 1572.94 1444.57C1572.55 1444.04 1568.17 1438.1 1561.74 1430.81C1559.15 1427.87 1558.23 1427.01 1557.85 1426.78C1556.14 1425.22 1544.44 1417.99 1538.5 1417.58C1537.22 1417.39 1535.91 1417.43 1534.65 1417.71C1532.77 1420.32 1530.21 1422.36 1527.25 1423.61C1520.93 1426.14 1514.88 1421.96 1513.78 1421.2C1511.77 1419.76 1510.18 1417.81 1509.16 1415.55C1504.85 1415.5 1497.66 1415.82 1490.69 1418.99C1485.79 1421.22 1482.77 1423.82 1478.44 1427.63C1464.26 1440.09 1457.18 1446.32 1452.51 1451.36C1446.17 1458.14 1440.26 1465.32 1434.82 1472.84C1435.19 1474.94 1435.87 1476.97 1436.84 1478.86C1442.07 1489.06 1455.2 1494.5 1460.82 1495.95C1463.39 1496.61 1466.01 1497.08 1468.66 1497.35L1480.51 1485.51C1480.31 1497.49 1479.44 1507.25 1479.24 1519.23C1483.92 1520.63 1510.71 1528.44 1529.68 1525.65C1534.75 1524.91 1551.6 1525.01 1555.76 1518.09C1556.88 1515.38 1557.75 1512.57 1558.35 1509.69C1558.61 1505.3 1558.72 1502.3 1558.74 1500.16C1559.6 1500.28 1560.47 1500.26 1561.32 1500.11C1565.3 1499.41 1565.4 1496.29 1569.49 1494.52C1575.06 1492.12 1583.6 1489.07 1586.46 1487.85C1589.32 1486.62 1592.47 1485 1593.41 1484.17C1593 1480.9 1593.41 1482.13 1592.18 1478.45Z"/><path fill="#B54514" d="M1559.09 1500.1C1564.65 1476.41 1553.01 1432.47 1545.63 1419.88C1550.84 1419.88 1559.43 1428.37 1560.95 1429.89C1574.61 1465.69 1570.78 1504.19 1557.86 1511.54L1559.09 1500.1Z"/><path fill="#C87D1C" d="M1481.05 1483.98L1479.77 1517.82L1484.36 1519.32L1481.05 1483.98Z"/><path fill="#050606" d="M1509.24 1365.21C1510 1366.65 1511.51 1366.67 1512.72 1369.22C1513.14 1370.15 1513.42 1371.14 1513.55 1372.16C1514.22 1376.37 1512.78 1378.85 1514 1379.72C1514.27 1379.88 1514.57 1379.98 1514.88 1379.99C1515.18 1380.01 1515.49 1379.94 1515.77 1379.8C1516.04 1379.59 1516.23 1379.29 1516.3 1378.96C1517.12 1376 1517.52 1374.55 1517.58 1373.98C1517.68 1372.34 1517.98 1370.72 1518.47 1369.15C1519.35 1366.63 1520.65 1366.19 1521.94 1364.09C1523.25 1361.85 1523.86 1359.27 1523.7 1356.68C1524.3 1356.94 1526.21 1359.83 1527.47 1359.82C1528.73 1359.81 1529.76 1359.41 1533.81 1357.32C1536.59 1355.9 1536.73 1355.76 1537.34 1355.67C1539.69 1355.27 1541.49 1356.45 1542.93 1357.1C1545.06 1358.06 1547.03 1360.67 1552.44 1359.22C1553.75 1358.29 1553.66 1357.78 1554.04 1358.72C1554.42 1359.65 1554.04 1361.67 1555.45 1363.29C1555.87 1363.78 1556.32 1364.24 1556.81 1364.66C1556.81 1369.79 1557.9 1374.05 1557.88 1379.19C1557.95 1379.51 1558.1 1379.95 1558.4 1380.02C1559.01 1380.18 1559.85 1378.77 1560.17 1378.25C1561.19 1376.54 1561.67 1371.47 1561.05 1363.22C1560.86 1360.95 1560.24 1361.65 1559.29 1358.99C1556.69 1351.61 1557.59 1344.52 1555.64 1341.8C1554.14 1339.7 1551.64 1339.28 1543.78 1338.71C1518.72 1336.87 1516.02 1339.18 1514.92 1340.97C1514.04 1342.48 1515.54 1346.53 1514.49 1350.61C1512.38 1358.97 1507.67 1362.24 1509.24 1365.21Z"/><path fill="#B54514" d="M1480.27 1488.47C1495.89 1462.96 1488.25 1434.43 1481.74 1424.89C1483.5 1422.83 1484.84 1422.45 1491.98 1418.18C1512.95 1460.52 1493.5 1489.56 1480.27 1499.54V1488.47Z"/><path fill="#81B162" fill-rule="evenodd" d="M2964.32 725.024C3027.69 723.222 3092.85 742.187 3132.28 791.802C3171.63 841.319 3170.84 907.981 3159.09 970.115C3146.58 1036.2 3126.23 1106.83 3066.72 1138.21C3005.3 1170.6 2931.09 1154.6 2869.3 1122.92C2809.63 1092.34 2760.83 1040.8 2748.28 974.969C2736.21 911.622 2765.76 849.82 2807.94 801.023C2847.8 754.897 2903.37 726.757 2964.32 725.024Z" clip-rule="evenodd"/><path fill="#81B162" fill-rule="evenodd" d="M3038.36 497.074C3101.72 495.273 3202.08 623.825 3241.51 673.441C3280.85 722.957 3280.07 789.619 3268.31 851.753C3255.8 917.839 3235.46 988.469 3175.95 1019.85C3114.52 1052.24 3040.31 1036.24 2978.52 1004.56C2918.86 973.976 2870.06 922.443 2857.51 856.608C2845.44 793.26 2855.37 722.238 2897.55 673.441C2939.73 624.643 2977.4 498.807 3038.36 497.074Z" clip-rule="evenodd"/><path fill="#81B162" fill-rule="evenodd" d="M3348.09 1089.55C3317.97 1145.31 3268.96 1192.23 3206.26 1201.55C3143.68 1210.86 3086.31 1176.85 3038.36 1135.6C2987.36 1091.73 2936.33 1038.81 2938.9 971.597C2941.55 902.235 2992.52 845.995 3050.86 808.345C3107.19 771.993 3176.24 755.516 3239.55 777.571C3300.48 798.792 3339.25 855.27 3360.44 916.18C3380.47 973.754 3377.07 1035.92 3348.09 1089.55Z" clip-rule="evenodd"/><rect width="111.708" height="191.009" x="2281.65" y="1259.16" fill="#A0E4F3"/><path fill="#88D8EA" d="M2393.35 1251.77V1442.78H2281.65L2393.35 1251.77Z"/><path stroke="#fff" stroke-width="10" d="M2388.35 1386.85V1445.17H2337.5H2286.65V1386.85V1323.53V1308.76V1264.16H2337.5H2388.35V1308.76V1323.53V1386.85Z"/><path fill="#AE574C" d="M2405.83 1266.15C2405.91 1266.34 2405.77 1266.55 2405.57 1266.55L2269.4 1266.55C2269.21 1266.55 2269.08 1266.35 2269.15 1266.17C2276.05 1248.58 2293.03 1237 2311.93 1237L2361.65 1237C2380.88 1237 2398.26 1248.47 2405.83 1266.15Z"/><path fill="#AE574C" d="M2271.17 1445.01C2270.17 1443.02 2271.62 1440.67 2273.85 1440.67H2401.33C2403.51 1440.67 2404.96 1442.93 2404.06 1444.92L2395.21 1464.25C2394.72 1465.32 2393.66 1466 2392.48 1466H2283.5C2282.36 1466 2281.33 1465.36 2280.82 1464.34L2271.17 1445.01Z"/><path fill="#2E1600" d="M2224.64 1285.75C2218.26 1291.41 2214.32 1294.72 2211.31 1299.88C2202.59 1314.85 2206.01 1331.03 2206.97 1335.13C2210.51 1350.71 2218.19 1351.53 2216.79 1361.41C2215.71 1369.05 2210.99 1369.6 2203.27 1386.58C2199.74 1394.3 2197.98 1398.24 2198.66 1402.48C2199.99 1411.06 2207.39 1412.39 2207.89 1420.56C2208.15 1424.74 2206.13 1428.47 2202.17 1435.91C2197.33 1444.96 2194.81 1445.36 2194.22 1450.12C2193.43 1456.52 2197.21 1461.89 2199.86 1465.65C2205.53 1473.7 2209.25 1472.56 2213.01 1478.02C2220.84 1489.41 2209.8 1501.82 2216.63 1508.7C2220.61 1512.71 2227.89 1511.8 2242.43 1509.98C2261.27 1507.62 2262.62 1503.41 2270.18 1505.22C2282.3 1508.13 2281.45 1519.55 2296.33 1526.37C2304.99 1530.34 2312.92 1529.97 2321.77 1529.58C2331.25 1529.14 2347.49 1528.41 2361.21 1516.75C2373.34 1506.45 2377.32 1491.14 2377.61 1490.01C2380.26 1480.06 2378.7 1473.01 2383.79 1469.99C2389.41 1466.65 2396.3 1472.23 2400.32 1468.62C2404.16 1465.17 2401.48 1456.77 2401.12 1455.67C2396.85 1442.81 2383.71 1442.55 2382.11 1433.27C2380.82 1425.81 2389.04 1424.25 2390.53 1414.4C2392.66 1400.38 2380.28 1387.09 2369.6 1376.24C2348.41 1354.75 2337.01 1357.9 2329.35 1341.1C2324.38 1330.18 2327.01 1324.06 2319.26 1316.36C2311.31 1308.46 2303.36 1309.74 2299.29 1301.09C2296.38 1294.91 2298.82 1290.9 2294.15 1285.32C2291.53 1282.32 2288.14 1280.1 2284.35 1278.89C2278.64 1277.19 2277.43 1279.67 2271.72 1278C2266.01 1276.34 2265.2 1273.38 2260.06 1272.86C2257.5 1272.65 2254.93 1273.05 2252.56 1274.05C2248.17 1273.79 2243.77 1274.39 2239.6 1275.81C2237.85 1276.38 2233.11 1278.18 2224.64 1285.75Z"/><path fill="#A5206F" d="M2217.7 1399.08C2217.7 1368.17 2242.76 1343.1 2273.67 1343.1C2304.59 1343.1 2329.65 1368.17 2329.65 1399.08V1458.4C2329.65 1467.34 2322.41 1474.59 2313.47 1474.59H2233.88C2224.94 1474.59 2217.7 1467.34 2217.7 1458.4V1399.08Z"/><path fill="#F4B68E" d="M2275.5 1330.51C2276.78 1330.66 2278.08 1330.66 2279.36 1330.51C2280.66 1330.37 2286.15 1329.78 2289.96 1325.45C2293.6 1321.31 2295.4 1314.09 2291.88 1308.58C2291.8 1308.45 2291.63 1308.18 2291.37 1307.81C2290.88 1307.12 2288.01 1303.17 2283.21 1302.8C2280.7 1302.66 2278.22 1303.44 2276.23 1304.97L2272.89 1307.04C2273.28 1305.18 2273.36 1303.26 2273.12 1301.38C2271.88 1292.1 2262.64 1284.74 2253.88 1283.26C2251.63 1282.83 2249.32 1282.83 2247.07 1283.26C2241.77 1284.34 2238.48 1287.68 2235.75 1290.49C2231.08 1295.42 2227.61 1301.35 2225.63 1307.84C2223.88 1307.42 2222.07 1307.42 2220.33 1307.84C2219.63 1308.02 2215.73 1308.98 2213.82 1312.43C2211.28 1317 2214.31 1322.27 2215.03 1323.51C2216.8 1326.48 2219.51 1328.78 2222.74 1330.02C2223.08 1331.98 2223.56 1333.91 2224.18 1335.8C2225.78 1340.68 2228.45 1348.85 2235.51 1352.91C2240.54 1355.81 2245.97 1355.56 2249.08 1355.08C2250.21 1358.09 2250.92 1361.23 2251.22 1364.43C2251.51 1367.37 2251.51 1370.33 2251.22 1373.26C2256.1 1374.88 2261.34 1375.08 2266.33 1373.83C2271.32 1372.58 2275.85 1369.93 2279.4 1366.2C2275.52 1357.95 2273.7 1348.89 2274.1 1339.78C2274.29 1336.66 2274.76 1333.56 2275.5 1330.51Z"/><path fill="#D08861" d="M2249.01 1355.12C2250.03 1358.73 2250.79 1362.41 2251.3 1366.13C2253.25 1364.95 2255.13 1363.65 2256.93 1362.25C2260.66 1359.35 2268.48 1353.29 2271.13 1343.93C2271.13 1343.93 2271.13 1343.87 2272.98 1334.77L2270.47 1339.95C2268.39 1344.03 2265.35 1347.54 2261.61 1350.19C2257.87 1352.83 2253.55 1354.53 2249.01 1355.12Z"/><path fill="#D18A61" d="M2235.38 1496.08L2271.09 1537.22C2263.81 1562.01 2257.24 1588.2 2251.72 1615.74C2250.64 1621.1 2249.62 1626.42 2248.66 1631.72L2249.18 1639.42C2249.29 1640.85 2249.25 1642.29 2249.07 1643.72C2248.4 1648.98 2247.7 1654.28 2246.96 1659.62C2244.03 1680.65 2240.74 1701.15 2237.09 1721.12C2236.6 1721.74 2235.98 1722.24 2235.27 1722.59C2234.57 1722.94 2233.79 1723.14 2233.01 1723.16C2232.14 1723.14 2231.28 1722.91 2230.52 1722.5C2229.75 1722.09 2229.09 1721.5 2228.59 1720.78C2226.33 1700.3 2223.74 1671.04 2222.81 1635.45C2222.68 1630.59 2222.38 1618.56 2222.47 1607.24C2222.68 1581.64 2225.08 1544.03 2235.38 1496.08Z"/><path fill="#F4B68E" d="M2254.62 1381.77C2262.37 1378.61 2269.64 1380 2277.13 1381.45C2287.64 1383.53 2297.46 1388.17 2305.75 1394.96C2305.83 1396.36 2305.97 1398.62 2306.07 1401.39C2306.63 1420.59 2305.01 1439.8 2301.24 1458.64C2300.5 1462.47 2299.37 1467.9 2297.71 1474.4C2295.68 1475.96 2293.53 1477.36 2291.28 1478.58C2283.83 1482.46 2275.57 1484.56 2267.16 1484.69C2258.97 1484.84 2250.85 1483.2 2243.37 1479.87C2240.69 1464.11 2238.01 1448.35 2235.33 1432.58C2234.61 1430.49 2234.07 1428.34 2233.72 1426.15C2231.15 1409.97 2238.56 1388.32 2254.62 1381.77Z"/><path fill="#D18A61" d="M2243.58 1477.3C2247.8 1478.91 2252.17 1480.09 2256.63 1480.84C2262.71 1481.83 2277.26 1484.2 2290.57 1476.82C2293.21 1475.35 2295.67 1473.57 2297.89 1471.52C2298.92 1473.23 2300.39 1475.73 2302.06 1478.8C2306.32 1486.57 2309.23 1491.88 2311.2 1498.86C2312.31 1502.78 2313.01 1506.81 2313.29 1510.89C2308.25 1511.03 2303.26 1511.79 2298.41 1513.15C2292.66 1514.77 2283.82 1517.26 2278.04 1523.68C2276.68 1525.28 2275.2 1526.79 2273.63 1528.19C2270.48 1530.95 2268.33 1532.8 2265.53 1533.49C2260.4 1534.67 2255.6 1531.32 2254.05 1530.23C2249.53 1527.07 2248.89 1523.86 2244.66 1517.44C2241.77 1513.1 2238.44 1509.07 2234.73 1505.41C2235.08 1501.93 2235.68 1498.48 2236.52 1495.08C2238.1 1488.88 2240.47 1482.9 2243.58 1477.3Z"/><path fill="#D18A61" d="M2268 1527.07C2261.52 1535.9 2265.35 1541.93 2267.29 1578.94C2268.57 1603.67 2268.99 1642.54 2271.85 1666.57C2272.32 1670.7 2273.02 1674.79 2273.95 1678.84C2275.67 1686.31 2278.14 1693.59 2281.31 1700.57C2284.76 1708.43 2289.04 1720.57 2292.53 1739.12C2293.89 1739.59 2295.37 1739.59 2296.73 1739.12C2297.61 1738.79 2298.4 1738.27 2299.07 1737.61C2299.73 1736.94 2300.25 1736.15 2300.58 1735.27C2300.63 1728.77 2300.58 1723.52 2300.58 1720.19C2300.38 1695.87 2299.3 1684.53 2299.19 1659.25C2299.19 1655.39 2299.19 1652.28 2299.19 1650.48C2300.88 1632.76 2302.56 1618.4 2303.73 1608.77C2307.65 1576.86 2310.85 1558.9 2312.49 1529.21C2312.9 1521.98 2313.09 1516.08 2313.2 1512.42C2299.49 1511.87 2278.15 1513.17 2268 1527.07Z"/><path fill="#F4B68E" d="M2131.1 1367.75C2133.49 1375.62 2136.7 1385.98 2140.6 1398.18C2146.57 1416.87 2149.59 1425.5 2156.45 1435.57C2157.72 1437.44 2159.33 1442.41 2164.26 1445.55C2166.27 1446.81 2168.51 1447.68 2170.85 1448.1C2170.95 1448.12 2171.05 1448.12 2171.15 1448.1C2172.57 1447.95 2173.98 1447.7 2175.36 1447.33C2179.05 1446.36 2182.51 1444.68 2185.55 1442.39C2192.95 1436.96 2210.83 1429.8 2219.41 1424.64C2226.76 1420.23 2241.09 1408.98 2252.8 1377.83C2252.86 1377.65 2252.87 1377.46 2252.84 1377.27C2252.8 1377.08 2252.72 1376.91 2252.59 1376.77C2252.47 1376.62 2252.31 1376.51 2252.13 1376.45C2251.95 1376.39 2251.76 1376.37 2251.57 1376.41C2240.17 1378.32 2229.04 1381.61 2218.42 1386.2C2202.13 1393.28 2187.34 1403.39 2174.83 1416C2174.71 1416.12 2174.56 1416.21 2174.39 1416.26C2174.23 1416.32 2174.05 1416.33 2173.88 1416.3C2173.71 1416.28 2173.54 1416.21 2173.4 1416.11C2173.26 1416.01 2173.15 1415.88 2173.06 1415.72L2145.81 1364.31C2145.69 1364.07 2145.66 1363.79 2145.73 1363.53"/><path fill="#8B5CA6" d="M2234.78 1469.47C2260.13 1470.67 2283.6 1470.8 2308.77 1472.04C2309.6 1474.6 2309.72 1479.56 2310.54 1482.12C2311.12 1484.77 2312.82 1488.96 2313.51 1493.6C2315.11 1498.3 2316 1503.22 2316.16 1508.18C2318.57 1561.44 2314.52 1660.39 2314.52 1660.39C2313.99 1673.23 2313.22 1693.58 2312.47 1718.96C2310.1 1720.29 2307.64 1721.43 2305.09 1722.38C2296.05 1725.67 2286.32 1726.56 2276.83 1724.95C2273.98 1711.22 2271.46 1696.68 2269.46 1681.34C2264.37 1642.35 2263.14 1602.95 2265.79 1563.71C2263.6 1575.01 2261.54 1586.55 2259.61 1598.34C2253.36 1636.73 2249.31 1673.46 2246.9 1708.22C2244.61 1710.14 2241.96 1711.6 2239.11 1712.49C2230.07 1715.28 2222.09 1711.1 2219.02 1709.51C2214.52 1707.11 2210.6 1703.75 2207.54 1699.67C2207.84 1677.39 2208.56 1659.04 2209.17 1646.23C2211.22 1603.71 2213.5 1559.48 2223.93 1505.56C2226.71 1491.19 2228.48 1477.83 2229.97 1469.77C2230.27 1468.2 2233.36 1469.36 2234.78 1469.47Z"/><path fill="#F4B68E" d="M2314.74 1382.77C2308.33 1382.48 2301.5 1389.32 2299.08 1396.36C2294.29 1410.12 2305.73 1425.91 2320.03 1445.65C2325.33 1452.97 2331.06 1459.97 2337.2 1466.61C2335.64 1468.86 2333.94 1471 2332.11 1473.04C2328.89 1476.57 2323.42 1482.68 2314.53 1486.76C2307.96 1489.74 2300.79 1491.16 2293.58 1490.91C2289.52 1492.78 2289.57 1493.97 2289.6 1494.21C2289.81 1495.57 2293.42 1496.51 2296.51 1496.33C2300.92 1496.08 2303.37 1493.68 2304.39 1494.67C2305.08 1495.35 2304.5 1497 2304.14 1498.02C2303.19 1500.44 2301.67 1502.59 2299.72 1504.31C2296.08 1508.01 2292.79 1513.09 2293.5 1513.86C2294.33 1514.75 2301.13 1509.99 2303.32 1508.36C2305.23 1507 2307.04 1505.49 2308.72 1503.86C2310.09 1502.5 2310.85 1501.57 2310.97 1501.67C2311.27 1501.89 2307.22 1507.27 2303.39 1515.21C2301.92 1518.24 2302.9 1518.32 2303.39 1518.67C2304.2 1519.25 2307.3 1515.59 2314.87 1507.03C2316.32 1505.38 2317.23 1503.84 2317.52 1504C2318.09 1504.31 2315.63 1510.31 2312.66 1515.48C2311.55 1517.4 2310.25 1519.2 2309.02 1521.04C2307.61 1523.2 2308.48 1523.15 2308.64 1523.31C2309.06 1523.73 2311.79 1521.14 2314.66 1518.48C2319.47 1514.07 2321.73 1510.29 2322.04 1510.48C2322.35 1510.67 2314.09 1520.99 2315.5 1522.43C2316.27 1523.23 2319.54 1521.27 2321.06 1520.16C2323.33 1518.4 2325.11 1516.08 2326.23 1513.44C2328.56 1508.37 2329.79 1502.88 2329.84 1497.3C2334.81 1493.48 2339.05 1490.62 2342.03 1488.69C2351.22 1482.77 2355.97 1480.93 2359.3 1474.89C2360.49 1472.77 2361.3 1470.46 2361.71 1468.07C2362.92 1460.61 2359.45 1454.53 2357.3 1450.45C2350.3 1437.12 2354.65 1440.11 2345.6 1421.61C2340.34 1410.64 2333.75 1400.36 2325.98 1391C2321.25 1385.39 2318.41 1382.91 2314.74 1382.77Z"/><path fill="#EADDED" d="M2307.67 1370.73C2304.23 1367.82 2300.27 1365.57 2296.01 1364.11C2290.22 1362.23 2284.06 1361.77 2278.05 1362.78C2275.56 1365.48 2272.49 1367.6 2269.08 1368.96C2266.59 1369.94 2258.48 1373.12 2253.37 1368.96C2250.94 1366.99 2251.3 1365.64 2250.98 1363.83C2246.66 1364.51 2239.1 1364.34 2231.83 1367.2C2214.59 1373.94 2204.04 1384.59 2199.07 1389.71C2193.98 1394.96 2189.47 1400.73 2185.6 1406.93C2185.75 1410.73 2186.86 1430.31 2202.22 1441.38C2205.49 1443.73 2209.13 1445.52 2212.98 1446.68C2216.88 1442.56 2220.77 1438.44 2224.65 1434.32C2225.35 1446.27 2229.33 1459.73 2229.94 1471.65C2230.1 1474.41 2231.27 1477 2233.23 1478.95C2238.74 1484.46 2245.74 1489.18 2258.27 1491.27C2270.41 1493.28 2281.5 1489.94 2294.62 1485.97C2300.28 1484.26 2305.82 1482.2 2311.22 1479.79V1467.31C2311.22 1471.43 2311.22 1475.57 2311.22 1479.74L2305.67 1482.09L2311.26 1435.53V1434.75L2311.34 1434.88V1434.6V1434.93L2322.9 1454.61C2326.6 1454.55 2352.78 1453.73 2362.39 1436.52C2363.6 1434.3 2364.49 1431.92 2365.04 1429.45C2338.2 1399.69 2316.84 1378.18 2307.67 1370.73ZM2212.97 1446.69C2212.49 1446.54 2212.01 1446.37 2211.52 1446.2C2208.88 1445.24 2206.34 1444.01 2203.95 1442.51L2224.63 1434.32L2212.97 1446.69Z"/><path fill="#D0A9CF" d="M2211.52 1446.16C2212.01 1446.34 2212.49 1446.5 2212.97 1446.65L2224.63 1434.29L2203.97 1442.48C2206.35 1443.97 2208.88 1445.21 2211.52 1446.16Z"/><path fill="#D0A9CF" d="M2311.34 1435.02L2311.26 1435.67L2305.22 1482.32C2307.12 1481.54 2309.31 1480.67 2311.21 1479.89C2311.21 1475.74 2311.21 1471.59 2311.21 1467.45C2311.26 1456.67 2311.3 1445.88 2311.33 1435.09V1434.74L2311.34 1435.02Z"/><path fill="#512D6B" d="M2265.79 1563.67C2265.96 1563.72 2265.01 1566.89 2263.24 1576.59C2262.52 1580.5 2262.49 1581.01 2260.77 1591.22C2259.2 1600.58 2259.1 1600.88 2258.44 1605.07C2258.11 1607.21 2257.7 1609.82 2256.34 1619.47C2254.66 1631.34 2253.82 1637.27 2253.25 1641.92C2252.66 1646.72 2252.18 1651.08 2251.23 1659.77C2250.55 1666.08 2250.16 1669.61 2249.66 1674.63C2249.49 1676.45 2248.73 1684.2 2247.9 1694.65C2247.46 1700.02 2247.12 1704.62 2246.87 1708.17C2246.59 1708.43 2246.3 1708.68 2245.99 1708.91C2245.65 1709.18 2245.37 1709.36 2244.92 1709.65L2243.29 1710.67C2242.46 1711.16 2240.45 1712.23 2240 1712.17C2238.46 1711.96 2235.39 1695.24 2242.71 1651.79C2251.04 1602.54 2265.17 1563.48 2265.79 1563.67Z"/><path fill="#EBAEB9" d="M2237.53 1720.82C2235.76 1720.99 2236.58 1721.92 2234.88 1722.59C2233.63 1723.06 2232.13 1723.3 2228.62 1720.67C2222.44 1721.86 2216.4 1723.66 2210.58 1726.04C2207.41 1727.34 2204.32 1728.81 2201.31 1730.46C2200.99 1730.77 2200.74 1731.15 2200.57 1731.57C2200.4 1731.99 2200.32 1732.44 2200.33 1732.89C2200.46 1733.67 2200.83 1734.38 2201.41 1734.91C2201.99 1735.44 2202.72 1735.76 2203.5 1735.82C2216.62 1738.52 2230.16 1738.44 2243.24 1735.58C2244.85 1734.94 2246.15 1733.72 2246.9 1732.16C2248.66 1728.2 2244.94 1723.83 2243 1722.16C2242.09 1721.31 2239 1720.68 2237.53 1720.82Z"/><path fill="#EBAEB9" d="M2301.16 1734.63C2299.4 1734.81 2301.1 1735.97 2299.45 1736.6C2298.19 1737.19 2296.8 1737.42 2295.42 1737.26C2294.04 1737.11 2292.73 1736.57 2291.64 1735.71C2286.34 1736.73 2281.74 1737.39 2275.14 1740.13C2271.97 1741.43 2268.88 1742.91 2265.88 1744.54C2265.55 1744.86 2265.3 1745.24 2265.13 1745.66C2264.96 1746.08 2264.88 1746.53 2264.9 1746.98C2265.02 1747.76 2265.4 1748.46 2265.97 1749C2266.55 1749.53 2267.29 1749.85 2268.07 1749.91C2281.18 1752.61 2294.72 1752.52 2307.8 1749.67C2309.41 1749.04 2310.72 1747.81 2311.46 1746.25C2313.23 1742.28 2309.51 1737.93 2307.56 1736.25C2306.65 1735.33 2302.66 1734.49 2301.16 1734.63Z"/><path fill="#050606" d="M2256.17 1319.04C2257.05 1319.3 2257.39 1320.62 2257.57 1321.44C2257.68 1321.97 2258.21 1324.38 2256.87 1325.35C2256.62 1325.52 2256.34 1325.64 2256.05 1325.69C2255.76 1325.74 2255.45 1325.73 2255.16 1325.65C2254.11 1325.34 2253.73 1324.15 2253.57 1323.64C2253.35 1323.05 2253.29 1322.41 2253.38 1321.78C2253.47 1321.15 2253.7 1320.55 2254.07 1320.04C2254.18 1319.91 2255.19 1318.77 2256.17 1319.04Z"/><path fill="#050606" d="M2234.39 1318.79C2235.32 1319.05 2235.6 1320.38 2235.79 1321.2C2235.9 1321.73 2236.43 1324.14 2235.08 1325.1C2234.84 1325.27 2234.56 1325.39 2234.27 1325.44C2233.98 1325.49 2233.68 1325.48 2233.39 1325.4C2232.34 1325.09 2231.95 1323.91 2231.78 1323.4C2231.57 1322.8 2231.5 1322.16 2231.59 1321.53C2231.68 1320.91 2231.92 1320.31 2232.28 1319.79C2232.39 1319.67 2233.39 1318.52 2234.39 1318.79Z"/><path fill="#050606" d="M2235.52 1311.97C2234.45 1311.86 2233.36 1312.04 2232.37 1312.49C2231.94 1312.7 2231.56 1312.99 2231.26 1313.36C2230.95 1313.73 2230.73 1314.16 2230.61 1314.62C2230.37 1315.65 2231.96 1316.09 2232.19 1315.06C2232.53 1313.58 2234.4 1313.6 2235.57 1313.61C2235.79 1313.61 2236 1313.52 2236.15 1313.37C2236.3 1313.21 2236.39 1313.01 2236.39 1312.79C2236.39 1312.57 2236.3 1312.36 2236.15 1312.21C2236 1312.05 2235.79 1311.97 2235.57 1311.97H2235.52Z"/><path fill="#050606" d="M2260.49 1315.78C2259.94 1313.13 2257.13 1311.86 2254.67 1311.8C2254.45 1311.8 2254.24 1311.89 2254.09 1312.04C2253.93 1312.19 2253.85 1312.4 2253.85 1312.62C2253.85 1312.84 2253.93 1313.05 2254.09 1313.2C2254.24 1313.36 2254.45 1313.44 2254.67 1313.44C2256.44 1313.49 2258.51 1314.33 2258.91 1316.22C2259.12 1317.26 2260.67 1316.82 2260.49 1315.78Z"/><path fill="#692E15" d="M2243.88 1323.18C2243.88 1326.28 2243.82 1330.15 2241.06 1332.21C2240.88 1332.33 2240.76 1332.51 2240.7 1332.72C2240.65 1332.92 2240.67 1333.14 2240.76 1333.33C2242.39 1335.4 2244.61 1336.92 2247.14 1337.67C2248.14 1337.99 2248.58 1336.41 2247.57 1336.09C2245.47 1335.43 2243.6 1334.19 2242.18 1332.5L2241.89 1333.63C2245.18 1331.18 2245.52 1327.02 2245.53 1323.18C2245.51 1322.97 2245.41 1322.78 2245.26 1322.64C2245.11 1322.51 2244.91 1322.43 2244.7 1322.43C2244.5 1322.43 2244.3 1322.51 2244.15 1322.64C2244 1322.78 2243.9 1322.97 2243.88 1323.18Z"/><path fill="#692E15" d="M2255.78 1337.86C2252 1340.93 2247.31 1342.64 2242.45 1342.72C2242.23 1342.72 2242.02 1342.81 2241.87 1342.96C2241.71 1343.12 2241.63 1343.33 2241.63 1343.54C2241.63 1343.76 2241.71 1343.97 2241.87 1344.12C2242.02 1344.28 2242.23 1344.37 2242.45 1344.37C2247.74 1344.29 2252.85 1342.42 2256.94 1339.07C2257.75 1338.38 2256.58 1337.22 2255.78 1337.9V1337.86Z"/><path fill="#692E15" d="M2255.56 1338.42C2255.91 1341.59 2254.24 1345.06 2250.95 1345.86C2248.22 1346.51 2244.2 1346 2243 1343.16C2242.59 1342.19 2241.18 1343.03 2241.58 1343.99C2243.15 1347.67 2248.3 1348.29 2251.76 1347.39C2255.53 1346.41 2257.61 1342.09 2257.21 1338.42C2257.1 1337.38 2255.45 1337.37 2255.57 1338.42H2255.56Z"/><path fill="#EF8885" d="M2232.33 1335.78C2233.71 1335.78 2234.84 1334.66 2234.84 1333.27C2234.84 1331.88 2233.71 1330.76 2232.33 1330.76C2230.94 1330.76 2229.82 1331.88 2229.82 1333.27C2229.82 1334.66 2230.94 1335.78 2232.33 1335.78Z"/><path fill="#EF8885" d="M2260.3 1334.09C2261.68 1334.09 2262.8 1332.97 2262.8 1331.58C2262.8 1330.2 2261.68 1329.07 2260.3 1329.07C2258.91 1329.07 2257.79 1330.2 2257.79 1331.58C2257.79 1332.97 2258.91 1334.09 2260.3 1334.09Z"/><path fill="#2E1600" d="M2223.17 1295.65C2222.46 1298.53 2223.17 1302.07 2223.56 1303.8C2224.2 1306.88 2224.8 1307.05 2224.85 1309.1C2224.93 1312.27 2223.5 1312.94 2223.08 1316.34C2222.53 1320.48 2223.97 1324.38 2224.64 1324.34C2225.1 1324.34 2225.04 1322.29 2225.93 1319.31C2227 1315.66 2227.56 1313.49 2229.46 1312.24C2230.99 1311.18 2231.55 1311.97 2233.34 1310.83C2235.21 1309.48 2236.53 1307.51 2237.08 1305.27C2237.81 1302.29 2238.55 1302.01 2239.64 1300.96C2240.99 1299.65 2241.17 1300.46 2243.02 1299.07C2243.91 1298.43 2244.48 1296.67 2245.73 1293.13C2245.85 1292.78 2246.09 1292.1 2246.09 1292.1C2246.44 1291.1 2248.12 1289.54 2247.16 1289.12C2247.05 1289.07 2241.55 1295.97 2245.39 1301.32C2247.33 1304.02 2247.42 1303.62 2247.66 1303.88C2248.97 1304.87 2250.47 1305.57 2252.07 1305.92C2254.58 1306.57 2253.27 1308.86 2256.27 1310.44C2258.92 1311.82 2259.86 1310.74 2262.6 1312.2C2264.2 1313.04 2265.54 1314.29 2266.48 1315.83C2267.88 1318.26 2266.95 1319.59 2268.41 1324.35C2268.58 1324.9 2269.48 1327.8 2269.96 1327.71C2270.27 1327.65 2270.19 1326.41 2270.34 1324.61C2270.56 1322.78 2270.9 1320.97 2271.38 1319.18C2273.45 1310.01 2273.22 1310.46 2273.58 1309.47C2275.34 1304.57 2277.11 1304.7 2278.1 1301.59C2279.98 1295.68 2275.96 1287.91 2270.73 1283.76C2264.79 1279.03 2257.92 1279.48 2251.62 1279.89C2241.11 1280.57 2234.26 1285.19 2230.05 1288.02C2224.79 1291.56 2223.6 1293.88 2223.17 1295.65Z"/><path fill="#F4B68E" d="M2146.3 1365.61C2149.34 1355.01 2155.63 1344.41 2158.66 1333.81C2158.86 1333.24 2158.91 1332.63 2158.82 1332.04C2158.72 1331.44 2158.49 1330.88 2158.12 1330.4C2157.64 1329.72 2156.94 1329.23 2156.14 1328.99C2155.34 1328.75 2154.49 1328.78 2153.71 1329.07C2153.07 1329.4 2152.55 1329.91 2152.22 1330.55C2150.45 1333.47 2148.5 1343.6 2148.5 1343.6C2148.4 1343.87 2148.23 1344.09 2148 1344.26C2147.77 1344.42 2147.5 1344.51 2147.22 1344.51C2146.94 1344.52 2146.66 1344.44 2146.43 1344.29C2146.19 1344.14 2146.01 1343.92 2145.9 1343.66C2141.49 1333.06 2138.96 1321.58 2132.72 1311.75C2132.28 1311.06 2131.31 1310.34 2130.67 1310.53C2129.73 1310.8 2129.79 1313.06 2129.79 1313.96C2129.95 1319.26 2134.52 1332.34 2134.74 1338.53C2134.78 1339.76 2134.17 1340.38 2133.68 1340.47C2131.66 1340.83 2127.35 1331.63 2120.75 1312.87C2120.65 1312.56 2120.47 1312.29 2120.24 1312.07C2120 1311.85 2119.72 1311.7 2119.41 1311.61C2119.22 1311.54 2119.01 1311.51 2118.8 1311.52C2118.6 1311.53 2118.4 1311.58 2118.21 1311.67C2117.87 1311.88 2117.45 1312.42 2117.76 1314.32C2118.47 1318.66 2125.4 1339.83 2125.6 1343.07C2125.68 1344.39 2125.06 1344.66 2124.81 1344.7C2123.3 1344.9 2121 1336.15 2114.59 1324.86C2111.84 1320.03 2111.13 1319.63 2110.75 1319.72C2109.58 1320 2109.68 1325.52 2111.63 1330.52C2112.2 1331.88 2112.86 1333.2 2113.6 1334.47C2115.43 1337.98 2117.03 1341.6 2118.39 1345.32C2118.55 1346.57 2118.39 1346.99 2118.15 1347.08C2118.15 1347.08 2117.17 1347.47 2107.07 1332.32C2106.56 1331.74 2105.72 1330.93 2105.03 1331.09C2103.84 1331.36 2103.8 1334.31 2103.79 1335.35C2103.72 1340.11 2106.6 1350.25 2117.1 1360.15C2119.87 1362.8 2126.56 1365.99 2132.93 1369.31"/><path fill="#981865" d="M2225.81 1443.99C2221.25 1421.21 2231.45 1377.17 2238.82 1364.58C2233.62 1364.58 2225.7 1369.25 2224.18 1370.77C2210.51 1406.57 2217.35 1428.26 2223.2 1435.86L2225.81 1443.99Z"/><path fill="#981865" d="M2311.73 1435.53C2296.1 1410.02 2303.94 1382.59 2310.45 1373.05C2309.04 1370.66 2307.16 1369.51 2300.01 1365.24C2273.45 1403.77 2298.49 1436.62 2311.73 1446.6V1435.53Z"/><rect width="111.708" height="191.009" x="643.646" y="993.161" fill="#A0E4F3"/><path fill="#88D8EA" d="M755.354 985.774V1176.78H643.646L755.354 985.774Z"/><path stroke="#fff" stroke-width="10" d="M750.354 1120.85V1179.17H699.5H648.646V1120.85V1057.53V1042.76V998.161H699.5H750.354V1042.76V1057.53V1120.85Z"/><path fill="#AE574C" d="M767.829 1000.15C767.91 1000.34 767.771 1000.55 767.566 1000.55L631.402 1000.55C631.209 1000.55 631.076 1000.35 631.147 1000.17C638.051 982.576 655.027 971 673.931 971L723.647 971C742.881 971 760.262 982.467 767.829 1000.15Z"/><path fill="#AE574C" d="M633.167 1179.01C632.171 1177.02 633.622 1174.67 635.851 1174.67H763.328C765.513 1174.67 766.965 1176.93 766.055 1178.92L757.209 1198.25C756.721 1199.32 755.655 1200 754.481 1200H645.501C644.364 1200 643.325 1199.36 642.817 1198.34L633.167 1179.01Z"/><rect width="111.708" height="191.009" x="2281.65" y="993.161" fill="#A0E4F3"/><path fill="#88D8EA" d="M2393.35 985.774V1176.78H2281.65L2393.35 985.774Z"/><path stroke="#fff" stroke-width="10" d="M2388.35 1120.85V1179.17H2337.5H2286.65V1120.85V1057.53V1042.76V998.161H2337.5H2388.35V1042.76V1057.53V1120.85Z"/><path fill="#AE574C" d="M2405.83 1000.15C2405.91 1000.34 2405.77 1000.55 2405.57 1000.55L2269.4 1000.55C2269.21 1000.55 2269.08 1000.35 2269.15 1000.17C2276.05 982.576 2293.03 971 2311.93 971L2361.65 971C2380.88 971 2398.26 982.467 2405.83 1000.15Z"/><path fill="#AE574C" d="M2271.17 1179.01C2270.17 1177.02 2271.62 1174.67 2273.85 1174.67H2401.33C2403.51 1174.67 2404.96 1176.93 2404.06 1178.92L2395.21 1198.25C2394.72 1199.32 2393.66 1200 2392.48 1200H2283.5C2282.36 1200 2281.33 1199.36 2280.82 1198.34L2271.17 1179.01Z"/><rect width="111.708" height="191.009" x="643.646" y="1259.16" fill="#A0E4F3"/><path fill="#88D8EA" d="M755.354 1251.77V1442.78H643.646L755.354 1251.77Z"/><path stroke="#fff" stroke-width="10" d="M750.354 1386.85V1445.17H699.5H648.646V1386.85V1323.53V1308.76V1264.16H699.5H750.354V1308.76V1323.53V1386.85Z"/><path fill="#AE574C" d="M767.829 1266.15C767.91 1266.34 767.771 1266.55 767.566 1266.55L631.402 1266.55C631.209 1266.55 631.076 1266.35 631.147 1266.17C638.051 1248.58 655.027 1237 673.931 1237L723.647 1237C742.881 1237 760.262 1248.47 767.829 1266.15Z"/><path fill="#AE574C" d="M633.167 1445.01C632.171 1443.02 633.622 1440.67 635.851 1440.67H763.328C765.513 1440.67 766.965 1442.93 766.055 1444.92L757.209 1464.25C756.721 1465.32 755.655 1466 754.481 1466H645.501C644.364 1466 643.325 1465.36 642.817 1464.34L633.167 1445.01Z"/><rect width="110.892" height="191.009" x="868.554" y="993.161" fill="#A0E4F3"/><path fill="#88D8EA" d="M979.446 985.774V1176.78H868.554L979.446 985.774Z"/><path stroke="#fff" stroke-width="10" d="M974.446 1120.85V1179.17H924H873.554V1120.85V1057.53V1042.76V998.161H924H974.446V1042.76V1057.53V1120.85Z"/><path fill="#AE574C" d="M991.831 1000.15C991.911 1000.34 991.773 1000.55 991.568 1000.55L856.399 1000.55C856.207 1000.55 856.075 1000.36 856.145 1000.18C862.996 982.585 879.94 971 898.818 971L947.773 971C966.977 971 984.322 982.476 991.831 1000.15Z"/><path fill="#AE574C" d="M858.147 1179.01C857.159 1177.01 858.61 1174.67 860.835 1174.67H987.342C989.523 1174.67 990.976 1176.93 990.073 1178.91L981.292 1198.24C980.805 1199.31 979.737 1200 978.56 1200H870.415C869.275 1200 868.234 1199.35 867.727 1198.33L858.147 1179.01Z"/><rect width="110.892" height="191.009" x="2506.55" y="993.161" fill="#A0E4F3"/><path fill="#88D8EA" d="M2617.45 985.774V1176.78H2506.55L2617.45 985.774Z"/><path stroke="#fff" stroke-width="10" d="M2612.45 1120.85V1179.17H2562H2511.55V1120.85V1057.53V1042.76V998.161H2562H2612.45V1042.76V1057.53V1120.85Z"/><path fill="#AE574C" d="M2629.83 1000.15C2629.91 1000.34 2629.77 1000.55 2629.57 1000.55L2494.4 1000.55C2494.21 1000.55 2494.08 1000.36 2494.14 1000.18C2501 982.585 2517.94 971 2536.82 971L2585.77 971C2604.98 971 2622.32 982.476 2629.83 1000.15Z"/><path fill="#AE574C" d="M2496.15 1179.01C2495.16 1177.01 2496.61 1174.67 2498.84 1174.67H2625.34C2627.52 1174.67 2628.98 1176.93 2628.07 1178.91L2619.29 1198.24C2618.8 1199.31 2617.74 1200 2616.56 1200H2508.42C2507.28 1200 2506.23 1199.35 2505.73 1198.33L2496.15 1179.01Z"/><rect width="110.892" height="191.009" x="868.554" y="1259.16" fill="#A0E4F3"/><path fill="#88D8EA" d="M979.446 1251.77V1442.78H868.554L979.446 1251.77Z"/><path stroke="#fff" stroke-width="10" d="M974.446 1386.85V1445.17H924H873.554V1386.85V1323.53V1308.76V1264.16H924H974.446V1308.76V1323.53V1386.85Z"/><path fill="#AE574C" d="M991.831 1266.15C991.911 1266.34 991.773 1266.55 991.568 1266.55L856.399 1266.55C856.207 1266.55 856.075 1266.36 856.145 1266.18C862.996 1248.58 879.94 1237 898.818 1237L947.773 1237C966.977 1237 984.322 1248.48 991.831 1266.15Z"/><path fill="#AE574C" d="M858.147 1445.01C857.159 1443.01 858.61 1440.67 860.835 1440.67H987.342C989.523 1440.67 990.976 1442.93 990.073 1444.91L981.292 1464.24C980.805 1465.31 979.737 1466 978.56 1466H870.415C869.275 1466 868.234 1465.35 867.727 1464.33L858.147 1445.01Z"/><rect width="110.892" height="191.009" x="2506.55" y="1259.16" fill="#A0E4F3"/><path fill="#88D8EA" d="M2617.45 1251.77V1442.78H2506.55L2617.45 1251.77Z"/><path stroke="#fff" stroke-width="10" d="M2612.45 1386.85V1445.17H2562H2511.55V1386.85V1323.53V1308.76V1264.16H2562H2612.45V1308.76V1323.53V1386.85Z"/><path fill="#AE574C" d="M2629.83 1266.15C2629.91 1266.34 2629.77 1266.55 2629.57 1266.55L2494.4 1266.55C2494.21 1266.55 2494.08 1266.36 2494.14 1266.18C2501 1248.58 2517.94 1237 2536.82 1237L2585.77 1237C2604.98 1237 2622.32 1248.48 2629.83 1266.15Z"/><path fill="#AE574C" d="M2496.15 1445.01C2495.16 1443.01 2496.61 1440.67 2498.84 1440.67H2625.34C2627.52 1440.67 2628.98 1442.93 2628.07 1444.91L2619.29 1464.24C2618.8 1465.31 2617.74 1466 2616.56 1466H2508.42C2507.28 1466 2506.23 1465.35 2505.73 1464.33L2496.15 1445.01Z"/><rect width="111.708" height="191.009" x="1092.65" y="993.161" fill="#A0E4F3"/><path fill="#88D8EA" d="M1204.35 985.774V1176.78H1092.65L1204.35 985.774Z"/><path stroke="#fff" stroke-width="10" d="M1199.35 1120.85V1179.17H1148.5H1097.65V1120.85V1057.53V1042.76V998.161H1148.5H1199.35V1042.76V1057.53V1120.85Z"/><path fill="#AE574C" d="M1216.83 1000.15C1216.91 1000.34 1216.77 1000.55 1216.57 1000.55L1080.4 1000.55C1080.21 1000.55 1080.08 1000.35 1080.15 1000.17C1087.05 982.576 1104.03 971 1122.93 971L1172.65 971C1191.88 971 1209.26 982.467 1216.83 1000.15Z"/><path fill="#AE574C" d="M1082.17 1179.01C1081.17 1177.02 1082.62 1174.67 1084.85 1174.67H1212.33C1214.51 1174.67 1215.96 1176.93 1215.06 1178.92L1206.21 1198.25C1205.72 1199.32 1204.66 1200 1203.48 1200H1094.5C1093.36 1200 1092.33 1199.36 1091.82 1198.34L1082.17 1179.01Z"/><rect width="111.708" height="191.009" x="2730.65" y="993.161" fill="#A0E4F3"/><path fill="#88D8EA" d="M2842.35 985.774V1176.78H2730.65L2842.35 985.774Z"/><path stroke="#fff" stroke-width="10" d="M2837.35 1120.85V1179.17H2786.5H2735.65V1120.85V1057.53V1042.76V998.161H2786.5H2837.35V1042.76V1057.53V1120.85Z"/><path fill="#AE574C" d="M2854.83 1000.15C2854.91 1000.34 2854.77 1000.55 2854.57 1000.55L2718.4 1000.55C2718.21 1000.55 2718.08 1000.35 2718.15 1000.17C2725.05 982.576 2742.03 971 2760.93 971L2810.65 971C2829.88 971 2847.26 982.467 2854.83 1000.15Z"/><path fill="#AE574C" d="M2720.17 1179.01C2719.17 1177.02 2720.62 1174.67 2722.85 1174.67H2850.33C2852.51 1174.67 2853.96 1176.93 2853.06 1178.92L2844.21 1198.25C2843.72 1199.32 2842.66 1200 2841.48 1200H2732.5C2731.36 1200 2730.33 1199.36 2729.82 1198.34L2720.17 1179.01Z"/><rect width="111.708" height="191.009" x="1092.65" y="1259.16" fill="#A0E4F3"/><path fill="#88D8EA" d="M1204.35 1251.77V1442.78H1092.65L1204.35 1251.77Z"/><path stroke="#fff" stroke-width="10" d="M1199.35 1386.85V1445.17H1148.5H1097.65V1386.85V1323.53V1308.76V1264.16H1148.5H1199.35V1308.76V1323.53V1386.85Z"/><path fill="#AE574C" d="M1216.83 1266.15C1216.91 1266.34 1216.77 1266.55 1216.57 1266.55L1080.4 1266.55C1080.21 1266.55 1080.08 1266.35 1080.15 1266.17C1087.05 1248.58 1104.03 1237 1122.93 1237L1172.65 1237C1191.88 1237 1209.26 1248.47 1216.83 1266.15Z"/><path fill="#AE574C" d="M1082.17 1445.01C1081.17 1443.02 1082.62 1440.67 1084.85 1440.67H1212.33C1214.51 1440.67 1215.96 1442.93 1215.06 1444.92L1206.21 1464.25C1205.72 1465.32 1204.66 1466 1203.48 1466H1094.5C1093.36 1466 1092.33 1465.36 1091.82 1464.34L1082.17 1445.01Z"/><rect width="111.708" height="191.009" x="2730.65" y="1259.16" fill="#A0E4F3"/><path fill="#88D8EA" d="M2842.35 1251.77V1442.78H2730.65L2842.35 1251.77Z"/><path stroke="#fff" stroke-width="10" d="M2837.35 1386.85V1445.17H2786.5H2735.65V1386.85V1323.53V1308.76V1264.16H2786.5H2837.35V1308.76V1323.53V1386.85Z"/><path fill="#AE574C" d="M2854.83 1266.15C2854.91 1266.34 2854.77 1266.55 2854.57 1266.55L2718.4 1266.55C2718.21 1266.55 2718.08 1266.35 2718.15 1266.17C2725.05 1248.58 2742.03 1237 2760.93 1237L2810.65 1237C2829.88 1237 2847.26 1248.47 2854.83 1266.15Z"/><path fill="#AE574C" d="M2720.17 1445.01C2719.17 1443.02 2720.62 1440.67 2722.85 1440.67H2850.33C2852.51 1440.67 2853.96 1442.93 2853.06 1444.92L2844.21 1464.25C2843.72 1465.32 2842.66 1466 2841.48 1466H2732.5C2731.36 1466 2730.33 1465.36 2729.82 1464.34L2720.17 1445.01Z"/><path fill="#84B963" fill-rule="evenodd" d="M218.763 906.427C282.128 904.626 347.292 923.59 386.718 973.206C426.067 1022.72 425.283 1089.38 413.524 1151.52C401.016 1217.6 380.673 1288.23 321.158 1319.62C259.737 1352 185.525 1336 123.734 1304.33C64.0729 1273.74 15.2726 1222.21 2.72327 1156.37C-9.35185 1093.03 20.196 1031.22 62.374 982.426C102.243 936.3 157.804 908.16 218.763 906.427Z" clip-rule="evenodd"/><path fill="#84B963" fill-rule="evenodd" d="M328.92 783.211C392.286 781.41 457.45 800.374 496.876 849.989C536.225 899.506 535.441 966.168 523.682 1028.3C511.174 1094.39 490.831 1165.02 431.316 1196.4C369.895 1228.79 295.683 1212.79 233.892 1181.11C174.231 1150.52 125.431 1098.99 112.881 1033.16C100.806 969.809 130.354 908.007 172.532 859.21C212.4 813.084 267.961 784.944 328.92 783.211Z" clip-rule="evenodd"/><path fill="#84B963" fill-rule="evenodd" d="M602.53 1270.96C572.408 1326.71 523.395 1373.64 460.694 1382.96C398.118 1392.26 340.753 1358.25 292.798 1317C241.794 1273.13 190.771 1220.21 193.338 1153C195.987 1083.64 246.957 1027.4 305.298 989.749C361.628 953.397 430.677 936.92 493.992 958.974C554.915 980.195 593.687 1036.67 614.877 1097.58C634.907 1155.16 631.508 1217.32 602.53 1270.96Z" clip-rule="evenodd"/><path fill="#84B963" fill-rule="evenodd" d="M564.733 935.076C628.098 933.274 693.262 952.239 732.689 1001.85C772.037 1051.37 771.253 1118.03 759.494 1180.17C746.987 1246.25 726.644 1316.88 667.129 1348.26C605.708 1380.65 531.496 1364.65 469.704 1332.97C410.044 1302.39 361.243 1250.86 348.694 1185.02C336.619 1121.67 366.167 1059.87 408.345 1011.07C448.213 964.949 503.774 936.809 564.733 935.076Z" clip-rule="evenodd"/><path fill="#81B162" fill-rule="evenodd" d="M2907.57 927.848C2970.93 926.046 3036.09 945.011 3075.52 994.626C3114.87 1044.14 3114.09 1110.8 3102.33 1172.94C3089.82 1239.02 3069.48 1309.65 3009.96 1341.04C2948.54 1373.42 2874.33 1357.42 2812.54 1325.75C2752.88 1295.16 2704.08 1243.63 2691.53 1177.79C2679.45 1114.45 2709 1052.64 2751.18 1003.85C2791.04 957.721 2846.61 929.58 2907.57 927.848Z" clip-rule="evenodd"/><path fill="#81B162" fill-rule="evenodd" d="M2977.24 775.04C3040.61 773.239 3105.77 792.203 3145.2 841.819C3184.55 891.335 3183.76 957.997 3172 1020.13C3159.5 1086.22 3139.15 1156.85 3079.64 1188.23C3018.22 1220.62 2944.01 1204.62 2882.21 1172.94C2822.55 1142.35 2773.75 1090.82 2761.2 1024.99C2749.13 961.638 2778.68 899.836 2820.85 851.039C2860.72 804.913 2916.28 776.773 2977.24 775.04Z" clip-rule="evenodd"/><path fill="#81B162" fill-rule="evenodd" d="M3250.85 1262.79C3220.73 1318.54 3171.72 1365.46 3109.02 1374.79C3046.44 1384.09 2989.08 1350.08 2941.12 1308.83C2890.12 1264.96 2839.09 1212.04 2841.66 1144.83C2844.31 1075.47 2895.28 1019.23 2953.62 981.578C3009.95 945.226 3079 928.749 3142.31 950.803C3203.24 972.025 3242.01 1028.5 3263.2 1089.41C3283.23 1146.99 3279.83 1209.15 3250.85 1262.79Z" clip-rule="evenodd"/><path fill="#81B162" fill-rule="evenodd" d="M3211.41 961.597C3148.05 959.796 3082.88 978.76 3043.46 1028.38C3004.11 1077.89 3004.89 1144.55 3016.65 1206.69C3029.16 1272.77 3049.5 1343.4 3109.02 1374.79C3170.44 1407.17 3244.65 1391.17 3306.44 1359.5C3366.1 1328.91 3414.9 1277.38 3427.45 1211.54C3439.53 1148.19 3409.98 1086.39 3367.8 1037.6C3327.93 991.47 3272.37 963.33 3211.41 961.597Z" clip-rule="evenodd"/><path fill="#84B963" fill-rule="evenodd" d="M316.001 733.195C379.366 731.394 444.53 750.358 483.957 799.973C523.306 849.49 522.522 916.152 510.762 978.286C498.255 1044.37 477.912 1115 418.397 1146.38C356.976 1178.77 282.764 1162.77 220.972 1131.09C161.312 1100.51 112.511 1048.98 99.962 983.14C87.8869 919.793 117.435 857.991 159.613 809.194C199.481 763.068 255.042 734.928 316.001 733.195Z" clip-rule="evenodd"/><path fill="#84B963" fill-rule="evenodd" d="M418.397 527.332C481.762 525.531 554.688 627.142 594.115 676.757C633.464 726.274 632.68 792.936 620.92 855.07C608.413 921.156 588.07 991.786 528.555 1023.17C467.134 1055.56 392.922 1039.55 331.13 1007.88C271.47 977.292 222.669 925.759 210.12 859.924C198.045 796.577 227.593 734.775 269.771 685.978C309.639 639.852 357.438 529.065 418.397 527.332Z" clip-rule="evenodd"/><path fill="#84B963" fill-rule="evenodd" d="M699.769 1097.73C669.647 1153.48 620.634 1200.4 557.933 1209.72C495.356 1219.03 437.991 1185.02 390.037 1143.77C339.033 1099.9 288.009 1046.98 290.576 979.768C293.226 910.406 344.196 854.166 402.537 816.516C458.866 780.164 527.916 763.688 591.231 785.742C652.154 806.963 690.926 863.442 712.116 924.351C732.146 981.925 728.747 1044.09 699.769 1097.73Z" clip-rule="evenodd"/><path fill="#976B59" d="M411.022 984.454C421.307 875.288 428.961 897.196 443.714 984.454C459.126 1247.39 477.154 1391.34 472.319 1641.08H386.503C391.467 1343.29 396.057 1203.41 411.022 984.454Z"/><path fill="#AB7F6D" d="M3059.34 976.283C3069.63 867.117 3077.28 889.025 3092.04 976.283C3107.45 1239.22 3125.48 1383.17 3120.64 1632.91H3034.83C3039.79 1335.12 3044.38 1195.24 3059.34 976.283Z"/><path fill="#976B59" d="M347.66 1046.61C342.457 1023.94 349.09 1025.26 366.459 1035.76C402.099 1077.02 427.126 1096.42 449.779 1142.08L400.43 1170.57C372.958 1116.4 361.352 1090.2 347.66 1046.61Z"/><path fill="#A9D38D" fill-rule="evenodd" d="M2786.9 1480.24C2812.83 1479.5 2839.51 1487.26 2855.65 1507.55C2871.75 1527.8 2918.64 1562.11 2913.83 1587.52C2908.71 1614.55 2938.19 1629.72 2913.83 1642.56C2888.69 1655.8 2773.29 1655.92 2748 1642.97C2723.58 1630.46 2703.6 1609.39 2698.47 1582.46C2693.52 1556.55 2705.62 1531.28 2722.88 1511.32C2739.2 1492.46 2761.94 1480.95 2786.9 1480.24Z" clip-rule="evenodd"/><path fill="#A9D38D" fill-rule="evenodd" d="M2851.69 1410.68C2877.62 1409.94 2904.3 1417.69 2920.43 1437.99C2936.54 1458.24 2936.22 1485.5 2931.41 1510.91C2926.29 1537.94 2917.96 1566.82 2893.6 1579.66C2868.46 1592.9 2838.08 1586.36 2812.79 1573.4C2788.37 1560.89 2768.39 1539.82 2763.25 1512.9C2758.31 1486.99 2770.41 1461.71 2787.67 1441.76C2803.99 1422.89 2826.73 1411.38 2851.69 1410.68Z" clip-rule="evenodd"/><path fill="#A9D38D" fill-rule="evenodd" d="M3008.89 1560.54C2996.56 1583.34 2976.49 1602.54 2950.83 1606.35C2925.21 1610.15 2901.73 1596.24 2882.1 1579.38C2861.23 1561.43 2840.34 1539.79 2841.39 1512.3C2842.48 1483.94 2863.34 1460.94 2887.22 1445.54C2910.28 1430.67 2938.54 1423.93 2964.46 1432.95C2989.4 1441.63 3005.27 1464.73 3013.94 1489.64C3022.14 1513.19 3020.75 1538.61 3008.89 1560.54Z" clip-rule="evenodd"/><path fill="#A9D38D" fill-rule="evenodd" d="M2995.42 1479.83C3021.36 1479.09 3048.03 1486.85 3064.17 1507.14C3080.28 1527.39 3079.96 1554.65 3075.14 1580.06C3070.02 1607.09 3061.7 1635.98 3037.33 1648.81C3012.19 1662.05 2928.56 1659.22 2903.27 1646.26C2878.85 1633.75 2918.97 1614.45 2913.83 1587.52C2908.89 1561.61 2914.14 1530.87 2931.41 1510.91C2947.73 1492.05 2970.47 1480.54 2995.42 1479.83Z" clip-rule="evenodd"/><path fill="#AB7F6D" d="M2995.98 1070.85C2990.78 1048.18 2997.41 1049.5 3014.78 1059.99C3050.42 1101.26 3075.45 1120.66 3098.1 1166.32L3048.75 1194.81C3021.28 1140.64 3009.68 1114.44 2995.98 1070.85Z"/><path fill="#976B59" d="M506.557 1092.81C526.011 1072.77 527.696 1080.02 525.357 1103.66C501.608 1165.27 494.122 1202.17 460.366 1254.22L411.017 1225.73C450.806 1163.4 470.795 1134.88 506.557 1092.81Z"/><path fill="#AB7F6D" d="M3144.26 999.927C3163.71 979.891 3165.4 987.138 3163.06 1010.78C3139.31 1072.38 3131.82 1109.29 3098.07 1161.34L3048.72 1132.85C3088.51 1070.52 3108.5 1042 3144.26 999.927Z"/><path fill="#976B59" d="M321.197 1169.96C311.63 1139.73 319.138 1142.57 339.996 1159.1C386.148 1218.57 416.929 1247.95 449.568 1310.9L400.219 1339.39C360.841 1264.59 343.643 1228.71 321.197 1169.96Z"/><path fill="#AB7F6D" d="M3188.17 1151.96C3197.74 1121.73 3190.23 1124.57 3169.37 1141.1C3123.22 1200.57 3092.44 1229.95 3059.8 1292.9L3109.15 1321.39C3148.53 1246.59 3165.72 1210.71 3188.17 1151.96Z"/><path fill="#A9D38D" fill-rule="evenodd" d="M1012.41 1445.31C982.739 1446.33 952.623 1453.95 933.901 1476.99C914.994 1500.26 910.329 1532.18 918.369 1561.07C925.969 1588.38 948.083 1607.85 973.7 1619.99C999.076 1632.01 1027.5 1635.49 1053.6 1625.13C1082.33 1613.73 1107.86 1593.04 1116.43 1563.34C1125.56 1531.73 1119.76 1496.03 1098 1471.35C1077.26 1447.81 1043.77 1444.23 1012.41 1445.31Z" clip-rule="evenodd"/><path fill="#A9D38D" fill-rule="evenodd" d="M1130.09 1420.53C1102.55 1422.59 1078.35 1436.79 1060.98 1458.26C1043.42 1479.95 1032.62 1507.01 1037.88 1534.42C1043.36 1562.96 1062.2 1587.36 1088.25 1600.24C1114.65 1613.29 1145.86 1613.97 1172.21 1600.83C1198.13 1587.9 1213.38 1562.07 1220.89 1534.09C1228.85 1504.42 1232.75 1470.8 1213.56 1446.8C1194.4 1422.83 1160.7 1418.23 1130.09 1420.53Z" clip-rule="evenodd"/><path fill="#A9D38D" fill-rule="evenodd" d="M988.996 1469.82C959.627 1472.24 936.665 1491.43 917.292 1513.63C896.365 1537.62 872.875 1564.68 878.984 1595.92C885.232 1627.87 916.55 1646.22 945.952 1660.19C975.1 1674.04 1007.61 1683.77 1037.32 1671.15C1097.64 1671.15 1142.72 1662.68 1150.45 1629.63C1158.23 1596.36 1099.6 1526.28 1077.25 1500.44C1055.81 1475.66 1021.64 1467.13 988.996 1469.82Z" clip-rule="evenodd"/><path fill="#A9D38D" fill-rule="evenodd" d="M1186.7 1480.11C1154.38 1479.08 1121.1 1488.05 1100.57 1513.03C1079.72 1538.4 1073.94 1573.9 1083.93 1605.18C1093.07 1633.79 1120.35 1650.41 1148.11 1661.87C1173.47 1672.35 1200.59 1673.51 1226.32 1663.99C1256.18 1652.95 1288.45 1637.57 1296.86 1606.86C1305.54 1575.17 1287.76 1543.12 1266.2 1518.32C1245.91 1494.97 1217.62 1481.1 1186.7 1480.11Z" clip-rule="evenodd"/><defs><linearGradient id="paint0_linear" x1="2312.28" x2="2312.28" y1="1702.82" y2="1835.47" gradientUnits="userSpaceOnUse"><stop stop-color="#E7DEED"/></linearGradient><linearGradient id="paint1_linear" x1="1977" x2="1977" y1="0" y2="1234" gradientUnits="userSpaceOnUse"><stop stop-color="#C5E8FF"/><stop offset="1" stop-color="#fff" stop-opacity="0"/></linearGradient><linearGradient id="paint2_linear" x1="923.767" x2="923.767" y1="881.944" y2="1564.25" gradientUnits="userSpaceOnUse"><stop stop-color="#F6BA91"/><stop offset="1" stop-color="#E7968D"/></linearGradient><linearGradient id="paint3_linear" x1="455.551" x2="455.551" y1="0" y2="682.305" gradientUnits="userSpaceOnUse"><stop stop-color="#F6BC91"/><stop offset="1" stop-color="#E48F8D"/></linearGradient><linearGradient id="paint4_linear" x1="1729.87" x2="1729.87" y1="477.464" y2="1609.19" gradientUnits="userSpaceOnUse"><stop stop-color="#F1CEAA"/><stop offset=".365" stop-color="#F3C5AC"/><stop offset="1" stop-color="#F5B6AF"/></linearGradient><linearGradient id="paint5_linear" x1="1729.87" x2="1729.87" y1="477.464" y2="1609.19" gradientUnits="userSpaceOnUse"><stop stop-color="#F1CEAA"/><stop offset=".365" stop-color="#F3C5AC"/><stop offset="1" stop-color="#F5B6AF"/></linearGradient><linearGradient id="paint6_linear" x1="1378.91" x2="1378.91" y1="1110.74" y2="1501.33" gradientUnits="userSpaceOnUse"><stop offset="1" stop-color="#D96D60"/></linearGradient><linearGradient id="paint7_linear" x1="2088.18" x2="2088.18" y1="1110.74" y2="1501.33" gradientUnits="userSpaceOnUse"><stop offset="1" stop-color="#D96D60"/></linearGradient></defs></svg>