<svg width="1000" height="1000" viewBox="0 0 1000 1000" fill="none" xmlns="http://www.w3.org/2000/svg">
<path d="M532 368.328C532 368.328 556.13 349.101 611.516 383.696C666.902 418.292 669.183 503.778 668 526.108C666.816 548.439 657.581 606.098 681.711 606.098C705.842 606.098 714 602.822 714 602.822C714 602.822 703.582 691.196 650.93 706.608C598.278 722.019 587.881 714.281 560.522 698.912C533.162 683.544 532 368.328 532 368.328Z" fill="black"/>
<path d="M632.326 477.106L384.701 454L347.683 612.407L385.52 662.728C385.52 662.728 371.542 745.241 332 782.322C332 782.322 419.216 840.086 482.142 822.757C482.142 822.757 470.212 737.777 482.142 730.357C482.142 730.357 591.986 750.974 627.343 623.916C627.386 623.959 640.48 528.249 632.326 477.106Z" fill="#FFD494"/>
<path d="M544.143 367.91C544.143 367.91 510.066 337.676 411.094 395.424C312.122 453.171 267.579 606.761 274.744 629.803C281.909 652.846 297.836 693.079 357.206 691.978C416.576 690.876 449.034 636.952 454.537 612.743C454.537 612.743 365.45 602.852 371.493 557.716C377.535 512.581 401.188 492.259 416.597 491.698C432.006 491.136 439.689 503.252 445.171 509.299L450.674 515.367L458.918 469.152L635 484.55C635 484.55 635.971 401.47 544.143 367.91Z" fill="black"/>
<path d="M531 255C546.464 255 559 242.464 559 227C559 211.536 546.464 199 531 199C515.536 199 503 211.536 503 227C503 242.464 515.536 255 531 255Z" fill="#F16B3D"/>
<path d="M474.681 264.472C469.732 260.391 465.731 255.08 463.007 248.973C460.282 242.866 458.911 236.136 459.005 229.334C459.005 206.917 473.016 190.105 473.611 189.358C474.141 188.67 474.792 188.107 475.526 187.704C476.259 187.3 477.06 187.065 477.878 187.012C478.697 186.958 479.517 187.088 480.289 187.394C481.061 187.699 481.768 188.173 482.368 188.788C482.968 189.403 483.449 190.145 483.781 190.97C484.113 191.795 484.289 192.685 484.299 193.587C484.309 194.489 484.153 195.384 483.84 196.217C483.526 197.051 483.062 197.806 482.476 198.437C482.289 198.661 471.114 212.279 471.114 229.334C471.024 233.955 471.909 238.537 473.701 242.718C475.493 246.899 478.142 250.567 481.44 253.431C489.134 258.867 483.189 270.076 474.681 264.472Z" fill="#F16B3D"/>
<path d="M441.976 287C440.765 287.015 439.578 286.639 438.575 285.92C437.571 285.219 414 268.186 414 232.61C414 197.933 436.534 171.926 437.486 170.847C438.599 169.687 440.093 169.026 441.655 169.001C443.218 168.976 444.729 169.589 445.875 170.713C447.021 171.837 447.713 173.384 447.807 175.034C447.901 176.684 447.39 178.308 446.381 179.57C446.023 179.965 426.126 203.185 426.126 232.61C426.126 261.118 444.527 274.697 445.309 275.273C446.392 276.038 447.212 277.152 447.649 278.449C448.086 279.746 448.116 281.158 447.734 282.474C447.352 283.791 446.579 284.942 445.529 285.757C444.48 286.573 443.21 287.008 441.908 287H441.976Z" fill="#F16B3D"/>
<path d="M410.249 307C408.938 307.006 407.655 306.623 406.563 305.901C405.108 304.931 371 281.785 371 233.222C371 185.612 403.984 149.813 405.403 148.311C405.978 147.637 406.685 147.085 407.481 146.69C408.277 146.294 409.145 146.064 410.033 146.011C410.921 145.959 411.811 146.087 412.648 146.386C413.486 146.685 414.253 147.15 414.904 147.753C415.555 148.355 416.077 149.083 416.437 149.891C416.797 150.7 416.989 151.573 417 152.457C417.01 153.341 416.841 154.218 416.501 155.035C416.161 155.852 415.657 156.593 415.021 157.211C414.69 157.54 384.138 190.813 384.138 233.222C384.138 274.881 413.621 294.841 413.842 295.024C415.019 295.804 415.912 296.941 416.387 298.265C416.863 299.589 416.896 301.03 416.483 302.374C416.069 303.719 415.23 304.895 414.09 305.728C412.951 306.562 411.571 307.007 410.157 307H410.249Z" fill="#F16B3D"/>
<path d="M582.32 266C581.091 266.014 579.885 265.655 578.853 264.966C577.821 264.278 577.009 263.291 576.519 262.129C576.028 260.967 575.881 259.682 576.096 258.434C576.311 257.186 576.878 256.032 577.727 255.115C577.832 254.97 589.5 241.727 589.5 225.11C589.602 220.621 588.688 216.169 586.831 212.107C584.973 208.045 582.224 204.485 578.8 201.708C572.517 196.375 580.623 186.984 585.752 190.951C590.88 194.917 595.025 200.078 597.848 206.012C600.672 211.945 602.093 218.484 601.995 225.092C601.995 246.861 587.476 263.188 586.86 263.895C586.284 264.548 585.583 265.072 584.802 265.434C584.021 265.796 583.176 265.988 582.32 266Z" fill="#F16B3D"/>
<path d="M617.446 287C616.193 287.01 614.965 286.652 613.914 285.97C612.863 285.289 612.036 284.314 611.534 283.167C611.033 282.02 610.88 280.751 611.094 279.518C611.308 278.285 611.88 277.142 612.739 276.23C612.99 275.961 634.136 252.753 634.136 223.299C634.136 194.849 614.697 181.298 613.871 180.741C613.171 180.27 612.571 179.665 612.106 178.963C611.64 178.26 611.317 177.472 611.156 176.644C610.995 175.817 610.999 174.966 611.167 174.14C611.336 173.313 611.665 172.529 612.137 171.83C612.609 171.131 613.214 170.532 613.918 170.066C614.621 169.601 615.41 169.279 616.238 169.118C617.066 168.957 617.918 168.961 618.745 169.129C619.572 169.297 620.358 169.626 621.057 170.098C622.117 170.816 647 187.795 647 223.299C647 257.904 623.195 283.859 622.189 284.954C621.584 285.605 620.849 286.123 620.033 286.475C619.216 286.827 618.335 287.006 617.446 287V287Z" fill="#F16B3D"/>
<path d="M652.475 307C651.215 307.002 649.983 306.631 648.929 305.933C647.874 305.236 647.044 304.242 646.54 303.073C646.036 301.905 645.88 300.613 646.092 299.356C646.303 298.099 646.872 296.931 647.729 295.997C648.055 295.649 678.086 262.329 678.086 219.878C678.086 178.16 649.106 158.172 648.888 157.97C648.183 157.494 647.577 156.883 647.106 156.17C646.634 155.458 646.305 154.658 646.139 153.817C645.972 152.975 645.971 152.109 646.135 151.268C646.299 150.426 646.625 149.625 647.095 148.911C647.565 148.197 648.169 147.584 648.873 147.106C649.577 146.629 650.367 146.296 651.198 146.127C652.029 145.959 652.884 145.958 653.715 146.124C654.547 146.29 655.338 146.62 656.043 147.096C657.474 148.049 691 171.228 691 219.878C691 267.556 658.579 303.387 657.202 304.891C656.6 305.554 655.87 306.083 655.056 306.446C654.243 306.809 653.364 306.997 652.475 307V307Z" fill="#F16B3D"/>
<path d="M482 537.307C492.326 534.422 516.182 531.922 529 545" stroke="black" stroke-width="2"/>
<path d="M576 550C583.378 545.472 601.508 539.133 615 550" stroke="black" stroke-width="2"/>
<ellipse cx="507" cy="570.5" rx="7" ry="8.5" fill="black"/>
<ellipse cx="591" cy="576.5" rx="6" ry="8.5" fill="black"/>
<path d="M551.256 574C549 588.933 546.517 619.867 554.641 624.133C562.764 628.4 554.265 635.156 549 638" stroke="black" stroke-width="2"/>
<path d="M530 669.715C520.827 669.715 509.5 664.572 504.983 662C501.856 667.511 500.814 681.839 514.364 682.942C525.205 683.823 529.305 674.492 530 669.715Z" stroke="black" stroke-width="2" stroke-linejoin="round"/>
</svg>
