<svg width="1135" height="866" viewBox="0 0 1135 866" fill="none" xmlns="http://www.w3.org/2000/svg">
<circle cx="647" cy="497" r="353.5" stroke="#EC297B"/>
<circle cx="1001.5" cy="699.5" r="103" stroke="#EC297B"/>
<mask id="mask0" mask-type="alpha" maskUnits="userSpaceOnUse" x="0" y="226" width="870" height="515">
<rect y="226" width="870" height="515" fill="#C4C4C4"/>
</mask>
<g mask="url(#mask0)">
<g clip-path="url(#clip0)">
<path d="M217.92 518.068C221.99 510.576 228.147 504.425 235.646 500.359C247.464 494.456 217.92 420.67 285.87 420.67C285.87 420.67 309.505 397.059 324.277 385.253C339.049 373.447 365.638 400.01 368.593 408.864C368.593 408.864 407 367.544 424.726 426.573C424.726 426.573 430.635 438.379 451.315 441.33C471.996 444.282 507.448 497.408 495.631 541.679C483.813 585.951 507.448 559.388 531.083 600.708C554.718 642.028 536.992 757.134 539.946 780.746C542.901 804.357 551.764 833.872 531.083 845.677C510.403 857.483 489.722 901.755 483.813 916.512C480.091 925.838 379.022 950.719 339.049 830.92C321.323 777.794 267.612 736.474 235.646 662.688C219.811 626.061 234.169 564.582 217.92 518.068Z" fill="black"/>
</g>
<g clip-path="url(#clip1)">
<path d="M855.7 445.709C860.85 450.859 791.324 461.158 788.749 466.307C786.174 471.457 866 463.732 866 468.882C866 474.031 793.899 484.33 793.899 484.33C824.799 484.33 855.7 492.054 853.125 499.778C850.55 507.502 726.947 510.077 716.647 515.226C706.347 520.376 696.047 533.249 696.047 533.249C668.88 575.037 517.904 706.707 461.974 754.854C467.356 741.157 470.266 720.739 469.287 698.082C467.768 662.886 457.365 633.869 444.824 627.38C461.047 612.911 632.365 502.173 652.271 497.204C672.871 492.054 680.596 481.755 693.472 458.583C706.347 435.411 688.321 396.79 698.622 396.79C708.922 396.79 724.372 430.261 721.797 437.985C719.222 445.709 726.947 443.135 744.973 437.985C762.998 432.836 842.825 422.537 853.125 427.687C863.425 432.836 781.023 445.709 778.448 450.859C775.873 456.008 850.55 440.56 855.7 445.709Z" fill="#D36E3C"/>
<path d="M469.287 698.082C470.266 720.739 467.356 741.157 461.974 754.854L443.949 770.302C452.163 704.982 449.639 634.409 443.717 628.488C444.046 628.064 444.426 627.684 444.85 627.355C457.365 633.869 467.768 662.886 469.287 698.082Z" fill="#B74016"/>
<path d="M443.692 628.513C449.614 634.435 452.138 705.008 443.923 770.328L441.889 772.027C428.447 767.908 416.86 737.629 415.263 700.425C413.512 659.976 424.198 626.66 439.108 626.016C439.536 625.977 439.967 625.977 440.396 626.016C441.59 626.714 442.696 627.553 443.692 628.513Z" fill="#B74016"/>
<path d="M246.416 855.859L245.412 855.139C242.35 814.729 242.772 774.13 246.674 733.793C251.283 690.564 261.764 646.253 284.038 620.841C296.805 615.171 310.285 611.265 324.106 609.229C323.316 612.457 321.956 615.517 320.089 618.266C350.989 644.013 379.315 618.266 379.315 618.266C377.952 615.408 377.023 612.362 376.56 609.229C376.56 609.229 424.713 616.953 440.395 626.119C439.967 626.08 439.536 626.08 439.108 626.119C424.198 626.763 413.512 660.079 415.263 700.528C416.859 737.732 428.447 768.011 441.889 772.13C442.46 772.31 443.046 772.44 443.64 772.516C438.85 809.36 430.765 844.273 417.606 864.613C414.398 869.997 410.132 874.674 405.065 878.362C405.065 878.362 325.908 913.996 246.416 855.859Z" fill="#D36E3C"/>
<path d="M421.778 506.189C431.022 515.458 429.503 531.936 418.405 543.059C408.362 553.1 393.916 555.315 384.414 548.826H384.053C383.688 548.609 383.343 548.359 383.023 548.08C385.022 544.575 386.794 540.946 388.328 537.214C392.922 526.289 395.32 514.565 395.384 502.713C404.86 498.465 415.16 499.572 421.778 506.189Z" fill="#D36E3C"/>
<path d="M395.435 502.456C395.371 514.308 392.974 526.031 388.379 536.957C386.845 540.688 385.073 544.317 383.075 547.822C382.536 547.386 382.02 546.922 381.53 546.432C372.285 537.189 373.804 520.685 384.903 509.562C387.917 506.53 391.495 504.116 395.435 502.456Z" fill="#D36E3C"/>
<path d="M395.435 502.456C391.495 504.116 387.917 506.53 384.903 509.562C373.779 520.685 372.285 537.189 381.53 546.432C382.02 546.922 382.536 547.386 383.075 547.822L382.843 548.208C361.933 543.059 325.496 584.615 325.496 584.615C322.043 584.242 318.661 583.375 315.454 582.04C296.501 574.316 286.69 551.787 288.776 526.298C292.988 528.409 297.859 528.788 302.347 527.353C312.647 523.852 317.797 510.927 313.651 498.439C311.783 492.657 307.971 487.699 302.862 484.407C319.368 457.991 346.509 444.448 368.5 453.511C385.701 460.643 395.383 479.953 395.435 502.456Z" fill="#D36E3C"/>
<path d="M384.105 548.569L384.414 548.826C383.719 551.118 372.8 586.777 376.689 609.177C377.152 612.31 378.081 615.356 379.444 618.215C379.444 618.215 351.118 643.962 320.218 618.215C322.085 615.466 323.446 612.405 324.235 609.177C324.716 607.564 325.094 605.921 325.368 604.26C325.368 604.26 362.577 609.177 380.551 552.225C381.401 550.938 382.225 549.65 383.126 548.234L384.105 548.569Z" fill="#D36E3C"/>
<path d="M325.496 584.615C325.496 584.615 361.933 543.162 382.843 548.208C382.07 549.573 381.246 550.783 380.268 552.199C366.311 574.058 344.964 586.803 325.496 584.615Z" fill="#D36E3C"/>
<path d="M380.396 552.199C362.371 609.152 325.213 604.234 325.213 604.234C326.283 597.735 326.369 591.113 325.47 584.589C344.964 586.803 366.311 574.058 380.396 552.199Z" fill="#B74016"/>
<path d="M313.651 498.465C317.849 510.952 312.776 523.877 302.347 527.379C297.859 528.814 292.988 528.435 288.776 526.323C289.579 516.801 291.864 507.462 295.549 498.645C297.581 493.71 300.028 488.956 302.862 484.433C307.971 487.724 311.783 492.682 313.651 498.465Z" fill="#D36E3C"/>
<path d="M302.862 484.433C300.027 488.956 297.581 493.71 295.548 498.645C291.866 507.454 289.581 516.784 288.776 526.298C285.729 524.747 283.021 522.605 280.81 519.997C278.6 517.389 276.931 514.367 275.901 511.107C271.729 498.645 276.802 485.695 287.205 482.193C289.818 481.382 292.578 481.162 295.286 481.549C297.994 481.937 300.582 482.922 302.862 484.433Z" fill="#D36E3C"/>
<path d="M284.038 620.789C261.764 646.253 251.283 690.512 246.674 733.741C235.035 720.559 134.685 476.606 124.384 440.56C117.84 418.29 107.376 397.364 93.4838 378.767C31.6825 358.17 13.6571 283.503 16.2321 280.929C18.8072 278.354 47.1328 322.124 52.2829 322.124C57.433 322.124 23.9573 273.204 29.1074 262.906C34.2575 252.607 60.0081 304.101 62.5831 301.526C65.1582 298.952 39.4076 244.883 47.1328 242.308C54.858 239.733 78.0335 296.377 80.6085 293.802C83.1836 291.227 67.7332 273.204 65.1582 242.308C62.5831 211.412 103.784 304.101 114.084 304.101C124.384 304.101 124.384 273.204 139.835 262.906C155.285 252.607 147.56 293.802 142.41 316.974C137.26 340.147 134.685 345.296 147.56 368.468C160.435 391.641 284.038 620.789 284.038 620.789Z" fill="#D36E3C"/>
</g>
<g clip-path="url(#clip2)">
<path d="M341.724 442.052C341.724 442.052 351.999 501.731 409.95 499.155C409.95 499.155 410.087 437.046 341.724 442.052Z" fill="black"/>
<path d="M344.632 442.907C344.632 442.907 331.323 475.556 307.426 473.832L283.594 472.386C283.594 472.386 297.48 431.861 344.632 442.907Z" fill="black"/>
</g>
<g clip-path="url(#clip3)">
<path d="M333.799 519.815C331.645 526.97 327.671 533.325 322.138 538.354C322.316 537.707 322.495 537.059 322.673 536.411C324.142 540.416 327.503 543.333 331.113 545.406C333.348 546.686 331.302 550.137 329.071 548.842C324.489 546.203 320.659 542.46 318.822 537.441C318.586 536.795 318.87 535.944 319.358 535.498C324.379 530.942 328.003 525.254 329.959 518.758C330.689 516.288 334.544 517.35 333.799 519.815Z" fill="#9E3800"/>
<path d="M347.732 555.244C346.645 563.406 340.58 570.727 331.887 570.904C323.958 571.076 317.234 565.374 314.706 558.108C314.186 556.621 315.793 555.305 317.17 555.668C326.295 558.016 336.099 557.299 344.743 553.508C345.743 553.07 346.887 553.252 347.472 554.259C347.964 555.125 347.705 556.547 346.72 556.989C337.077 561.218 326.328 562.172 316.104 559.538C316.926 558.72 317.745 557.917 318.568 557.098C320.479 562.569 325.606 566.901 331.539 566.926C338.004 566.948 342.901 561.396 343.727 555.268C343.872 554.197 344.538 553.285 345.722 553.263C346.693 553.232 347.878 554.172 347.732 555.244Z" fill="#9E3800"/>
<path d="M353.942 516.438C354.872 516.495 355.513 517.302 355.991 517.915C358.202 520.731 356.945 524.632 356.851 525.154C356.464 527.519 354.945 530.203 352.541 530.138C350.923 530.107 349.624 528.439 349.1 527.15C348.434 525.473 348.912 523.979 349.424 522.361C349.517 522.022 351.381 516.28 353.942 516.438Z" fill="black"/>
<path d="M312.259 504.955C313.189 505.013 313.829 505.819 314.307 506.432C316.518 509.248 315.261 513.149 315.167 513.671C314.781 516.036 313.262 518.72 310.857 518.655C309.24 518.625 307.941 516.956 307.417 515.667C306.75 513.99 307.217 512.476 307.725 510.874C307.849 510.543 309.713 504.802 312.259 504.955Z" fill="black"/>
<path d="M365.365 510.327C365.277 509.921 365.186 509.531 365.063 509.132C365.016 509.003 364.969 508.874 364.937 508.749C364.781 508.291 365.129 509.134 364.919 508.694C364.8 508.463 364.701 508.22 364.578 508.003C364.411 507.708 364.223 507.424 364.036 507.14C363.807 506.828 364.089 507.188 363.949 507.034C363.847 506.923 363.765 506.8 363.658 506.705C363.432 506.443 363.197 506.212 362.946 505.977C362.84 505.882 362.745 505.806 362.638 505.71C362.528 505.63 362.554 505.654 362.729 505.802C362.676 505.754 362.607 505.702 362.534 505.665C362.103 505.364 361.648 505.089 361.169 504.841C361.085 504.784 360.981 504.739 360.877 504.694C360.467 504.498 361.312 504.864 360.908 504.703C360.712 504.632 360.505 504.542 360.304 504.486C359.742 504.298 359.152 504.152 358.564 504.057C357.528 503.904 356.873 502.546 357.168 501.598C357.544 500.474 358.528 500.032 359.626 500.202C364.335 500.935 368.303 504.599 369.231 509.302C369.432 510.319 368.907 511.502 367.811 511.747C366.804 511.968 365.579 511.415 365.365 510.327Z" fill="black"/>
<path d="M317.653 491.459C317.511 491.371 317.35 491.293 317.205 491.22C317.043 491.142 316.757 491.096 317.324 491.269C317.247 491.248 317.158 491.207 317.081 491.186C316.75 491.061 316.391 490.979 316.044 490.916C315.758 490.871 316.233 490.952 316.268 490.945C316.213 490.963 316.024 490.928 315.962 490.911C315.8 490.899 315.617 490.898 315.45 490.902C315.283 490.906 315.116 490.91 314.945 490.929C314.774 490.948 314.5 491.039 315.05 490.908C314.985 490.907 314.883 490.912 314.813 490.926C314.482 490.984 314.142 491.073 313.829 491.186C313.755 491.215 313.676 491.26 313.591 491.269C314.114 491.115 313.853 491.159 313.685 491.229C313.531 491.303 313.378 491.377 313.236 491.47C313.079 491.56 312.941 491.638 312.799 491.732C312.756 491.769 312.468 491.972 312.76 491.754C313.033 491.547 312.78 491.743 312.732 491.796C312.582 491.92 312.447 492.049 312.327 492.182C312.207 492.315 311.788 492.813 312.216 492.284C311.884 492.707 311.557 493.049 311.018 493.199C310.503 493.322 309.856 493.26 309.436 492.979C309.016 492.697 308.65 492.281 308.522 491.781C308.41 491.285 308.417 490.657 308.729 490.245C309.418 489.373 310.169 488.634 311.141 488.056C311.936 487.578 312.845 487.231 313.768 487.071C315.799 486.685 317.915 486.952 319.694 488.023C320.589 488.568 320.982 489.854 320.382 490.768C319.802 491.67 318.621 492.041 317.653 491.459Z" fill="black"/>
</g>
<g clip-path="url(#clip4)">
<path d="M324.353 601.264C324.353 601.264 348.842 620.384 376.052 601.264C376.052 601.264 407.344 597.167 450.881 616.287C450.881 616.287 635.911 485.18 657.679 482.448C679.447 479.717 687.611 520.688 712.1 526.151C736.589 531.613 459.044 763.783 453.602 777.44C448.16 791.097 446.799 874.404 433.194 879.867C420.051 885.139 319.781 931.381 237.524 867.658C234.96 865.697 232.933 863.114 231.633 860.152C230.334 857.191 229.805 853.946 230.096 850.723C232.817 821.333 240.409 736.796 235.919 725.543C230.477 711.886 80.82 411.432 86.2621 395.043C91.7041 378.655 151.567 375.924 159.73 362.267C167.893 348.61 282.176 610.824 284.898 610.824C287.619 610.824 309.387 597.167 324.353 601.264Z" fill="#FF3489"/>
</g>
</g>
<circle cx="360.5" cy="602.5" r="263.5" fill="#FFA825"/>
<mask id="mask1" mask-type="alpha" maskUnits="userSpaceOnUse" x="97" y="339" width="527" height="527">
<circle cx="360.5" cy="602.5" r="263.5" fill="#FFA825"/>
</mask>
<g mask="url(#mask1)">
<g clip-path="url(#clip5)">
<path d="M217.92 519.281C221.99 511.79 228.147 505.638 235.646 501.572C247.464 495.67 217.92 421.884 285.87 421.884C285.87 421.884 309.505 398.272 324.277 386.466C339.049 374.661 365.638 401.224 368.593 410.078C368.593 410.078 407 368.758 424.726 427.786C424.726 427.786 430.635 439.592 451.315 442.544C471.996 445.495 507.448 498.621 495.631 542.893C483.813 587.164 507.448 560.601 531.083 601.921C554.718 643.241 536.992 758.348 539.946 781.959C542.901 805.571 551.764 835.085 531.083 846.891C510.403 858.697 489.722 902.968 483.813 917.725C480.091 927.052 379.022 951.932 339.049 832.134C321.323 779.008 267.612 737.688 235.646 663.902C219.811 627.274 234.169 565.796 217.92 519.281Z" fill="black"/>
</g>
<g clip-path="url(#clip6)">
<path d="M855.7 446.923C860.85 452.072 791.324 462.371 788.749 467.52C786.174 472.67 866 464.946 866 470.095C866 475.245 793.899 485.543 793.899 485.543C824.799 485.543 855.7 493.267 853.125 500.992C850.55 508.716 726.947 511.29 716.647 516.44C706.347 521.589 696.047 534.463 696.047 534.463C668.88 576.25 517.904 707.92 461.974 756.067C467.356 742.37 470.266 721.953 469.287 699.295C467.768 664.099 457.365 635.082 444.824 628.594C461.047 614.124 632.365 503.386 652.271 498.417C672.871 493.267 680.596 482.969 693.472 459.796C706.347 436.624 688.321 398.004 698.622 398.004C708.922 398.004 724.372 431.475 721.797 439.199C719.222 446.923 726.947 444.348 744.973 439.199C762.998 434.049 842.825 423.751 853.125 428.9C863.425 434.049 781.023 446.923 778.448 452.072C775.873 457.222 850.55 441.773 855.7 446.923Z" fill="#D36E3C"/>
<path d="M469.287 699.295C470.266 721.953 467.356 742.37 461.974 756.067L443.949 771.516C452.163 706.195 449.639 635.623 443.717 629.701C444.046 629.278 444.426 628.897 444.85 628.568C457.365 635.082 467.768 664.099 469.287 699.295Z" fill="#B74016"/>
<path d="M443.692 629.727C449.614 635.648 452.138 706.221 443.923 771.541L441.889 773.241C428.447 769.121 416.86 738.843 415.263 701.638C413.512 661.19 424.198 627.873 439.108 627.229C439.536 627.191 439.967 627.191 440.396 627.229C441.59 627.928 442.696 628.766 443.692 629.727Z" fill="#B74016"/>
<path d="M246.416 857.073L245.412 856.352C242.35 815.942 242.772 775.344 246.674 735.006C251.283 691.777 261.764 647.466 284.038 622.054C296.805 616.384 310.285 612.478 324.106 610.442C323.316 613.67 321.956 616.731 320.089 619.479C350.989 645.226 379.315 619.479 379.315 619.479C377.952 616.621 377.023 613.575 376.56 610.442C376.56 610.442 424.713 618.166 440.395 627.332C439.967 627.294 439.536 627.294 439.108 627.332C424.198 627.976 413.512 661.293 415.263 701.741C416.859 738.946 428.447 769.224 441.889 773.344C442.46 773.524 443.046 773.653 443.64 773.73C438.85 810.574 430.765 845.487 417.606 865.827C414.398 871.21 410.132 875.888 405.065 879.576C405.065 879.576 325.908 915.21 246.416 857.073Z" fill="#D36E3C"/>
<path d="M320.526 1017.73C298.973 1028.21 247.523 964.67 241.961 900.663C240.463 885.921 241.979 871.03 246.416 856.893C325.908 915.081 405.065 879.344 405.065 879.344C410.132 875.656 414.398 870.979 417.606 865.595C417.606 865.595 443.691 912.815 433.391 951.436C433.391 951.436 343.264 961.734 327.813 1008.08C327.326 1010.1 326.428 1012 325.174 1013.66C323.92 1015.33 322.338 1016.71 320.526 1017.73Z" fill="#B74016"/>
<path d="M421.778 507.403C431.022 516.672 429.503 533.15 418.405 544.272C408.362 554.314 393.916 556.528 384.414 550.04H384.053C383.688 549.823 383.343 549.573 383.023 549.293C385.022 545.788 386.794 542.159 388.328 538.428C392.922 527.502 395.32 515.779 395.384 503.927C404.86 499.679 415.16 500.786 421.778 507.403Z" fill="#D36E3C"/>
<path d="M395.435 503.669C395.371 515.521 392.974 527.245 388.379 538.17C386.845 541.902 385.073 545.531 383.075 549.036C382.536 548.599 382.02 548.135 381.53 547.645C372.285 538.402 373.804 521.898 384.903 510.775C387.917 507.743 391.495 505.329 395.435 503.669Z" fill="#D36E3C"/>
<path d="M395.435 503.669C391.495 505.329 387.917 507.743 384.903 510.776C373.779 521.898 372.285 538.402 381.53 547.645C382.02 548.135 382.536 548.599 383.075 549.036L382.843 549.422C361.933 544.272 325.496 585.828 325.496 585.828C322.043 585.456 318.661 584.589 315.454 583.253C296.501 575.529 286.69 553.001 288.776 527.511C292.988 529.623 297.859 530.002 302.347 528.567C312.647 525.065 317.797 512.14 313.651 499.653C311.783 493.87 307.971 488.912 302.862 485.621C319.368 459.204 346.509 445.661 368.5 454.724C385.701 461.856 395.383 481.166 395.435 503.669Z" fill="#D36E3C"/>
<path d="M384.105 549.782L384.414 550.04C383.719 552.331 372.8 587.991 376.689 610.391C377.152 613.523 378.081 616.57 379.444 619.428C379.444 619.428 351.118 645.175 320.218 619.428C322.085 616.679 323.446 613.619 324.235 610.391C324.716 608.777 325.094 607.134 325.368 605.473C325.368 605.473 362.577 610.391 380.551 553.438C381.401 552.151 382.225 550.864 383.126 549.448L384.105 549.782Z" fill="#D36E3C"/>
<path d="M325.496 585.828C325.496 585.828 361.933 544.375 382.843 549.422C382.07 550.786 381.246 551.996 380.268 553.413C366.311 575.272 344.964 588.017 325.496 585.828Z" fill="#D36E3C"/>
<path d="M380.396 553.413C362.371 610.365 325.213 605.447 325.213 605.447C326.283 598.949 326.369 592.327 325.47 585.802C344.964 588.017 366.311 575.272 380.396 553.413Z" fill="#B74016"/>
<path d="M313.651 499.678C317.849 512.166 312.776 525.091 302.347 528.592C297.859 530.027 292.988 529.648 288.776 527.537C289.579 518.014 291.864 508.676 295.549 499.859C297.581 494.923 300.028 490.169 302.862 485.646C307.971 488.938 311.783 493.896 313.651 499.678Z" fill="#D36E3C"/>
<path d="M302.862 485.646C300.027 490.169 297.581 494.924 295.548 499.859C291.866 508.668 289.581 517.998 288.776 527.511C285.729 525.961 283.021 523.819 280.81 521.211C278.6 518.602 276.931 515.58 275.901 512.32C271.729 499.859 276.802 486.908 287.205 483.406C289.818 482.595 292.578 482.375 295.286 482.763C297.994 483.15 300.582 484.135 302.862 485.646Z" fill="#D36E3C"/>
<path d="M284.038 622.003C261.764 647.466 251.283 691.726 246.674 734.955C235.035 721.772 134.685 477.819 124.384 441.773C117.84 419.503 107.376 398.578 93.4838 379.981C31.6825 359.383 13.6571 284.717 16.2321 282.142C18.8072 279.567 47.1328 323.337 52.2829 323.337C57.433 323.337 23.9573 274.418 29.1074 264.119C34.2575 253.82 60.0081 305.314 62.5831 302.74C65.1582 300.165 39.4076 246.096 47.1328 243.521C54.858 240.947 78.0335 297.59 80.6085 295.015C83.1836 292.441 67.7332 274.418 65.1582 243.521C62.5831 212.625 103.784 305.314 114.084 305.314C124.384 305.314 124.384 274.418 139.835 264.119C155.285 253.82 147.56 295.015 142.41 318.188C137.26 341.36 134.685 346.51 147.56 369.682C160.435 392.854 284.038 622.003 284.038 622.003Z" fill="#D36E3C"/>
</g>
<g clip-path="url(#clip7)">
<path d="M341.724 443.266C341.724 443.266 351.999 502.944 409.95 500.368C409.95 500.368 410.087 438.259 341.724 443.266Z" fill="black"/>
<path d="M344.632 444.121C344.632 444.121 331.323 476.77 307.426 475.046L283.594 473.599C283.594 473.599 297.48 433.074 344.632 444.121Z" fill="black"/>
</g>
<g clip-path="url(#clip8)">
<path d="M333.799 521.029C331.645 528.184 327.671 534.539 322.138 539.568C322.316 538.92 322.495 538.272 322.673 537.625C324.142 541.63 327.503 544.546 331.113 546.619C333.348 547.899 331.302 551.35 329.071 550.055C324.489 547.416 320.659 543.673 318.822 538.654C318.586 538.009 318.87 537.158 319.358 536.711C324.379 532.155 328.003 526.467 329.959 519.971C330.689 517.501 334.544 518.563 333.799 521.029Z" fill="#9E3800"/>
<path d="M347.732 556.457C346.645 564.619 340.58 571.941 331.887 572.118C323.958 572.29 317.234 566.588 314.706 559.321C314.186 557.834 315.793 556.518 317.17 556.881C326.295 559.229 336.099 558.512 344.743 554.721C345.743 554.283 346.887 554.465 347.472 555.473C347.964 556.338 347.705 557.76 346.72 558.202C337.077 562.431 326.328 563.386 316.104 560.752C316.926 559.933 317.745 559.13 318.568 558.311C320.479 563.782 325.606 568.115 331.539 568.14C338.004 568.162 342.901 562.609 343.727 556.482C343.872 555.41 344.538 554.499 345.722 554.477C346.693 554.445 347.878 555.386 347.732 556.457Z" fill="#9E3800"/>
<path d="M353.942 517.652C354.872 517.709 355.513 518.516 355.991 519.129C358.202 521.944 356.945 525.845 356.851 526.367C356.464 528.733 354.945 531.417 352.541 531.352C350.923 531.321 349.624 529.652 349.1 528.363C348.434 526.686 348.912 525.192 349.424 523.574C349.517 523.235 351.381 517.494 353.942 517.652Z" fill="black"/>
<path d="M312.259 506.169C313.189 506.226 313.829 507.033 314.307 507.646C316.518 510.461 315.261 514.362 315.167 514.884C314.781 517.25 313.262 519.934 310.857 519.869C309.24 519.838 307.941 518.169 307.417 516.88C306.75 515.203 307.217 513.689 307.725 512.087C307.849 511.757 309.713 506.015 312.259 506.169Z" fill="black"/>
<path d="M365.365 511.54C365.277 511.135 365.186 510.745 365.063 510.346C365.016 510.217 364.969 510.087 364.937 509.962C364.781 509.505 365.129 510.347 364.919 509.908C364.8 509.676 364.701 509.433 364.578 509.217C364.411 508.922 364.223 508.638 364.036 508.354C363.807 508.042 364.089 508.402 363.949 508.247C363.847 508.136 363.765 508.014 363.658 507.918C363.432 507.656 363.197 507.426 362.946 507.191C362.84 507.095 362.745 507.019 362.638 506.923C362.528 506.843 362.554 506.867 362.729 507.015C362.676 506.967 362.607 506.915 362.534 506.878C362.103 506.577 361.648 506.302 361.169 506.054C361.085 505.998 360.981 505.953 360.877 505.907C360.467 505.711 361.312 506.077 360.908 505.916C360.712 505.845 360.505 505.755 360.304 505.7C359.742 505.512 359.152 505.366 358.564 505.27C357.528 505.117 356.873 503.759 357.168 502.812C357.544 501.687 358.528 501.245 359.626 501.415C364.335 502.148 368.303 505.813 369.231 510.515C369.432 511.533 368.907 512.715 367.811 512.961C366.804 513.181 365.579 512.628 365.365 511.54Z" fill="black"/>
<path d="M317.653 492.673C317.511 492.584 317.35 492.506 317.205 492.433C317.043 492.355 316.757 492.31 317.324 492.482C317.247 492.461 317.158 492.42 317.081 492.399C316.75 492.275 316.391 492.192 316.044 492.13C315.758 492.084 316.233 492.165 316.268 492.158C316.213 492.177 316.024 492.141 315.962 492.124C315.8 492.112 315.617 492.112 315.45 492.116C315.283 492.119 315.116 492.123 314.945 492.142C314.774 492.162 314.5 492.252 315.05 492.122C314.985 492.12 314.883 492.125 314.813 492.139C314.482 492.197 314.142 492.286 313.829 492.399C313.755 492.428 313.676 492.473 313.591 492.483C314.114 492.328 313.853 492.372 313.685 492.442C313.531 492.516 313.378 492.59 313.236 492.684C313.079 492.773 312.941 492.851 312.799 492.945C312.756 492.983 312.468 493.185 312.76 492.967C313.033 492.76 312.78 492.956 312.732 493.009C312.582 493.134 312.447 493.263 312.327 493.396C312.207 493.528 311.788 494.027 312.216 493.498C311.884 493.92 311.557 494.262 311.018 494.412C310.503 494.536 309.856 494.474 309.436 494.192C309.016 493.91 308.65 493.494 308.522 492.994C308.41 492.499 308.417 491.87 308.729 491.459C309.418 490.586 310.169 489.848 311.141 489.269C311.936 488.792 312.845 488.445 313.768 488.284C315.799 487.898 317.915 488.166 319.694 489.237C320.589 489.782 320.982 491.068 320.382 491.981C319.802 492.883 318.621 493.255 317.653 492.673Z" fill="black"/>
</g>
<g clip-path="url(#clip9)">
<path d="M324.353 602.478C324.353 602.478 348.842 621.597 376.052 602.478C376.052 602.478 407.344 598.38 450.881 617.5C450.881 617.5 635.911 486.393 657.679 483.662C679.447 480.93 687.611 521.901 712.1 527.364C736.589 532.827 459.044 764.996 453.602 778.653C448.16 792.31 446.799 875.618 433.194 881.08C420.051 886.352 319.781 932.595 237.524 868.871C234.96 866.91 232.933 864.328 231.633 861.366C230.334 858.404 229.805 855.16 230.096 851.936C232.817 822.547 240.409 738.01 235.919 726.756C230.477 713.099 80.82 412.645 86.2621 396.257C91.7041 379.868 151.567 377.137 159.73 363.48C167.893 349.823 282.176 612.037 284.898 612.037C287.619 612.037 309.387 598.38 324.353 602.478Z" fill="#FF3489"/>
</g>
</g>
<circle cx="678" cy="164" r="122" fill="#FABEBE"/>
<mask id="mask2" mask-type="alpha" maskUnits="userSpaceOnUse" x="582" y="0" width="171" height="124">
<rect x="582" width="171" height="124" fill="#E5E5E5"/>
</mask>
<g mask="url(#mask2)">
<g clip-path="url(#clip10)">
<path d="M719.512 149.026C720.481 149.815 721.625 150.362 722.849 150.621C724.072 150.881 725.339 150.847 726.547 150.52C723.831 162.261 715.92 170.799 706.479 170.906C705.922 170.913 705.365 170.888 704.811 170.831C704.897 170.681 704.983 170.543 705.079 170.404C705.175 170.265 695.745 149.41 686.412 148.482C686.412 148.482 686.337 149.688 686.145 151.684C685.696 150.051 685.36 148.389 685.14 146.71C685.421 146.626 685.696 146.523 685.963 146.401C691.084 144.213 693.105 137.446 690.475 131.299C689.758 129.631 688.732 128.113 687.449 126.827C691.02 117.904 697.894 111.885 705.838 111.757C715.353 111.65 723.489 120.124 726.418 131.939C723.751 132.366 721.331 133.747 719.608 135.824C715.973 140.082 715.93 145.985 719.512 149.026Z" fill="#A04400"/>
<path d="M684.755 141.545C684.773 143.266 684.902 144.984 685.14 146.689C680.19 148.226 674.449 145.035 671.904 139.218C669.263 133.07 671.284 126.304 676.416 124.116C680.083 122.547 684.349 123.742 687.449 126.805C685.585 131.493 684.67 136.502 684.755 141.545Z" fill="#A04400"/>
<path d="M662.71 188.238C656.177 187.768 646.416 195.143 639.093 206.67C633.17 215.966 630.369 225.55 631.181 231.89C627.974 224.782 622.992 212.743 616.214 193.468C602.989 156.156 618.352 84.9254 607.372 80.5389C596.392 76.1523 583.221 38.915 586.513 37.8477C589.806 36.7804 604.079 52.0532 606.281 52.0532C608.484 52.0532 592.009 24.6561 595.355 21.3689C598.701 18.0816 613.958 49.8652 616.16 48.7659C618.362 47.6666 601.887 22.4682 605.18 14.7944C608.473 7.12068 622.746 38.9043 624.938 42.1915C627.129 45.4787 620.543 7.12068 624.938 6.02138C629.332 4.92208 632.625 41.0922 637.051 42.1915C641.477 43.2908 650.19 19.1809 656.776 19.1809C663.362 19.1809 644.695 60.8049 641.402 69.5886C638.109 78.3723 638.109 84.9254 642.471 135.333C645.529 170.094 656.295 183.339 662.71 188.238Z" fill="#A04400"/>
</g>
<g clip-path="url(#clip11)">
<path d="M684.93 127.6L685.93 141.6C685.93 141.6 691.93 121.6 695.93 120.6C699.93 119.6 713.93 132.6 721.93 132.6C729.93 132.6 729.93 134.6 731.93 132.6C733.93 130.6 735.93 124.6 731.93 118.6C727.93 112.6 723.93 110.6 720.93 107.6C717.93 104.6 697.93 95.6 693.93 102.6C689.93 109.6 680.93 105.6 677.93 108.6C674.93 111.6 669.93 119.6 672.93 125.6C672.93 125.6 679.93 124.6 684.93 127.6Z" fill="#FF7A00"/>
</g>
<g clip-path="url(#clip12)">
<path d="M641.183 85.4045C639.163 88.4354 649.727 147.564 650.637 152.644C650.637 152.813 650.52 152.982 650.457 153.151L605.23 181.506C602.057 175.169 601 90.6848 601 90.6848C612.632 101.245 639.068 85.4045 639.068 85.4045C639.068 85.4045 643.298 82.2364 641.183 85.4045Z" fill="#55AF1B"/>
</g>
</g>
<mask id="mask3" mask-type="alpha" maskUnits="userSpaceOnUse" x="556" y="42" width="244" height="244">
<circle cx="678" cy="164" r="122" fill="#FABEBE"/>
</mask>
<g mask="url(#mask3)">
<g clip-path="url(#clip13)">
<path d="M748.988 380.807C748.988 380.807 762.159 413.68 756.664 414.779C751.169 415.878 753.371 400.531 750.078 398.343C746.785 396.155 753.371 418.066 750.078 420.254C746.785 422.442 745.695 407.105 744.594 402.719C743.492 398.332 744.594 431.215 739.098 426.828C733.603 422.442 739.098 401.63 736.96 400.531C734.822 399.431 733.667 426.828 730.374 426.828C727.081 426.828 727.081 401.63 728.183 398.343C729.284 395.055 718.304 414.779 716.101 410.392C715.658 409.207 715.494 407.937 715.62 406.678C715.898 399.357 720.389 385.482 724.89 381.896C730.374 377.52 722.687 353.41 723.821 346.836C724.954 340.261 721.95 273.471 721.95 273.471C723.968 246.556 718.539 219.604 706.255 195.56C706.255 195.56 751.265 211.996 749.02 300.751C746.775 389.506 748.988 380.807 748.988 380.807Z" fill="#A04400"/>
<path d="M732.651 133.572C736.212 136.603 736.169 142.516 732.545 146.785C731 148.642 728.897 149.953 726.547 150.52C727.266 147.428 727.607 144.26 727.562 141.086C727.534 137.996 727.15 134.92 726.418 131.918C727.515 131.729 728.64 131.779 729.716 132.065C730.792 132.35 731.793 132.865 732.651 133.572Z" fill="#A04400"/>
<path d="M727.562 141.086C727.607 144.26 727.266 147.428 726.547 150.52C725.339 150.847 724.072 150.881 722.849 150.621C721.625 150.362 720.482 149.815 719.512 149.026C715.93 145.984 715.973 140.082 719.608 135.803C721.331 133.726 723.751 132.345 726.418 131.918C727.15 134.92 727.534 137.996 727.562 141.086Z" fill="#A04400"/>
<path d="M719.512 149.026C720.481 149.815 721.625 150.362 722.849 150.621C724.072 150.881 725.339 150.847 726.547 150.52C723.831 162.261 715.92 170.799 706.479 170.906C705.922 170.913 705.365 170.888 704.811 170.831C704.897 170.681 704.983 170.543 705.079 170.404C705.175 170.265 695.745 149.41 686.412 148.482C686.412 148.482 686.337 149.688 686.145 151.684C685.696 150.051 685.36 148.389 685.14 146.71C685.421 146.626 685.696 146.523 685.963 146.401C691.084 144.213 693.105 137.446 690.475 131.299C689.758 129.631 688.732 128.113 687.449 126.827C691.02 117.904 697.894 111.885 705.838 111.757C715.353 111.65 723.489 120.124 726.418 131.939C723.751 132.366 721.331 133.747 719.608 135.824C715.973 140.082 715.93 145.985 719.512 149.026Z" fill="#A04400"/>
<path d="M713.3 313.75C712.958 314.604 712.755 315.052 712.755 315.052C674.342 335.875 635.918 317.251 632.625 310.676C631.824 308.564 631.4 306.328 631.374 304.07C630.518 292.33 632.625 271.219 632.625 271.219C632.378 261.015 633.376 250.819 635.597 240.855C635.746 240.183 635.907 239.532 636.067 238.881C642.482 240.887 653.334 233.256 661.309 220.737C668.943 208.73 671.38 196.189 667.553 190.853C670.355 188.831 673.366 187.114 676.533 185.73L676.64 185.869L676.555 185.943C676.555 185.943 682.553 201.099 699.209 197.065C699.209 197.065 699.209 194.759 699.573 191.419C702.133 192.142 704.426 193.596 706.169 195.602C718.453 219.647 723.883 246.598 721.864 273.514C720.988 287.271 718.103 300.826 713.3 313.75Z" fill="#A04400"/>
<path d="M686.743 153.594C686.529 152.964 686.337 152.324 686.145 151.662C686.337 149.688 686.412 148.461 686.412 148.461C695.745 149.389 705.079 170.383 705.079 170.383C705.079 170.383 704.897 170.66 704.811 170.809C696.804 170.094 689.972 163.221 686.743 153.594Z" fill="#A04400"/>
<path d="M704.811 170.831C702.908 173.894 701.657 178.216 700.823 182.464C700.374 182.272 689.854 177.565 686.743 153.594C689.972 163.221 696.804 170.094 704.811 170.831Z" fill="#662200"/>
<path d="M700.823 182.464C700.203 185.666 699.819 188.868 699.573 191.429C699.263 194.77 699.209 197.075 699.209 197.075C682.552 201.109 676.608 185.954 676.608 185.954L676.693 185.879C682.916 180.981 685.46 159.784 686.198 151.662C686.39 152.324 686.583 152.964 686.797 153.594C689.854 177.565 700.374 182.272 700.823 182.464Z" fill="#A04400"/>
<path d="M690.506 131.277C693.137 137.425 691.116 144.191 685.995 146.379C685.728 146.501 685.453 146.605 685.172 146.689C684.934 144.984 684.805 143.266 684.787 141.545C684.702 136.502 685.617 131.493 687.481 126.805C688.764 128.092 689.79 129.609 690.506 131.277Z" fill="#A04400"/>
<path d="M684.755 141.545C684.773 143.266 684.902 144.984 685.14 146.689C680.19 148.226 674.449 145.035 671.904 139.218C669.263 133.07 671.284 126.304 676.416 124.116C680.083 122.547 684.349 123.742 687.449 126.805C685.585 131.493 684.67 136.502 684.755 141.545Z" fill="#A04400"/>
<path d="M667.552 190.864C671.38 196.2 668.942 208.73 661.309 220.747C653.333 233.267 642.503 240.898 636.067 238.891C642.802 212.038 657.813 197.673 667.542 190.864H667.552Z" fill="#662200"/>
<path d="M662.71 188.238C664.146 189.425 665.792 190.334 667.563 190.917C657.834 197.705 642.824 212.07 636.088 238.945C635.569 238.786 635.073 238.56 634.613 238.272C634.381 238.124 634.159 237.96 633.95 237.781C633.245 236.394 632.325 234.462 631.192 231.922C630.379 225.582 633.18 215.998 639.103 206.702C646.395 195.101 656.156 187.726 662.71 188.238Z" fill="#662200"/>
<path d="M662.71 188.238C656.177 187.768 646.416 195.143 639.093 206.67C633.17 215.966 630.369 225.55 631.181 231.89C627.974 224.782 622.992 212.743 616.214 193.468C602.989 156.156 618.352 84.9254 607.372 80.5389C596.392 76.1523 583.221 38.915 586.513 37.8477C589.806 36.7804 604.079 52.0532 606.281 52.0532C608.484 52.0532 592.009 24.6561 595.355 21.3689C598.701 18.0816 613.958 49.8652 616.16 48.7659C618.362 47.6666 601.887 22.4682 605.18 14.7944C608.473 7.12068 622.746 38.9043 624.938 42.1915C627.129 45.4787 620.543 7.12068 624.938 6.02138C629.332 4.92208 632.625 41.0922 637.051 42.1915C641.477 43.2908 650.19 19.1809 656.776 19.1809C663.362 19.1809 644.695 60.8049 641.402 69.5886C638.109 78.3723 638.109 84.9254 642.471 135.333C645.529 170.094 656.295 183.339 662.71 188.238Z" fill="#A04400"/>
</g>
<g clip-path="url(#clip14)">
<path d="M708.941 144.465C709.007 147.819 709.968 151.047 711.775 153.892C711.777 153.59 711.778 153.289 711.779 152.987C710.644 154.541 708.813 155.394 706.976 155.853C705.839 156.135 706.311 157.875 707.449 157.586C709.781 157 711.92 155.846 713.341 153.899C713.524 153.649 713.504 153.246 713.345 152.994C711.704 150.416 710.814 147.518 710.754 144.473C710.738 143.316 708.918 143.308 708.941 144.465Z" fill="#5E2100"/>
<path d="M700.466 160.865C702.865 163.325 706.443 164.411 709.851 164.232C711.016 164.172 711.031 162.377 709.859 162.437C706.909 162.589 703.841 161.735 701.761 159.6C700.941 158.77 699.647 160.036 700.466 160.865Z" fill="#5E2100"/>
<path d="M700.527 140.564C700.113 140.476 699.733 140.747 699.448 140.954C698.133 141.903 698.205 143.742 698.182 143.979C698.061 145.048 698.397 146.393 699.459 146.656C700.172 146.839 700.946 146.275 701.334 145.781C701.832 145.137 701.806 144.433 701.78 143.672C701.781 143.514 701.669 140.806 700.527 140.564Z" fill="black"/>
<path d="M720.207 140.651C719.793 140.563 719.413 140.834 719.128 141.041C717.813 141.991 717.885 143.829 717.862 144.066C717.741 145.136 718.077 146.48 719.139 146.743C719.852 146.926 720.626 146.362 721.014 145.869C721.512 145.224 721.494 144.513 721.468 143.759C721.454 143.601 721.342 140.893 720.207 140.651Z" fill="black"/>
<path d="M696.271 136.537C696.359 136.373 696.447 136.215 696.55 136.057C696.587 136.007 696.623 135.957 696.653 135.907C696.777 135.728 696.521 136.05 696.667 135.886C696.748 135.8 696.821 135.707 696.901 135.628C697.011 135.521 697.128 135.421 697.245 135.321C697.384 135.214 697.216 135.335 697.296 135.285C697.355 135.249 697.406 135.207 697.464 135.178C697.596 135.093 697.727 135.021 697.866 134.95C697.924 134.922 697.975 134.9 698.033 134.872C698.092 134.851 698.077 134.858 697.982 134.9C698.011 134.886 698.048 134.872 698.084 134.865C698.31 134.787 698.544 134.723 698.784 134.674C698.828 134.66 698.879 134.653 698.93 134.646C699.134 134.611 698.719 134.667 698.915 134.646C699.01 134.639 699.112 134.625 699.207 134.626C699.476 134.613 699.753 134.621 700.022 134.651C700.495 134.711 700.949 134.203 700.936 133.757C700.909 133.226 700.532 132.915 700.03 132.856C697.876 132.602 695.687 133.705 694.703 135.625C694.49 136.041 694.574 136.616 695.025 136.855C695.439 137.072 696.044 136.982 696.271 136.537Z" fill="black"/>
<path d="M719.501 134.163C719.574 134.142 719.654 134.128 719.727 134.114C719.807 134.1 719.938 134.115 719.669 134.121C719.705 134.121 719.749 134.114 719.785 134.114C719.946 134.101 720.113 134.109 720.273 134.124C720.404 134.139 720.186 134.116 720.171 134.109C720.193 134.123 720.28 134.131 720.309 134.131C720.382 134.146 720.462 134.168 720.535 134.189C720.608 134.211 720.68 134.233 720.753 134.262C720.826 134.291 720.935 134.364 720.709 134.24C720.739 134.248 720.782 134.262 720.811 134.277C720.949 134.342 721.087 134.422 721.211 134.508C721.24 134.53 721.269 134.559 721.305 134.573C721.094 134.443 721.203 134.494 721.269 134.545C721.327 134.595 721.385 134.646 721.435 134.703C721.493 134.761 721.544 134.812 721.595 134.869C721.609 134.891 721.711 135.013 721.609 134.884C721.515 134.761 721.602 134.876 721.617 134.905C721.667 134.977 721.711 135.049 721.747 135.121C721.783 135.193 721.905 135.459 721.783 135.179C721.877 135.402 721.978 135.589 722.195 135.719C722.406 135.835 722.697 135.887 722.916 135.816C723.135 135.745 723.346 135.609 723.464 135.409C723.574 135.208 723.648 134.936 723.561 134.72C723.367 134.259 723.128 133.849 722.773 133.481C722.483 133.178 722.128 132.918 721.743 132.737C720.9 132.324 719.94 132.183 719.028 132.43C718.569 132.558 718.239 133.066 718.39 133.534C718.534 133.994 719.005 134.297 719.501 134.163Z" fill="black"/>
</g>
<g clip-path="url(#clip15)">
<path d="M684.93 127.6L685.93 141.6C685.93 141.6 691.93 121.6 695.93 120.6C699.93 119.6 713.93 132.6 721.93 132.6C729.93 132.6 729.93 134.6 731.93 132.6C733.93 130.6 735.93 124.6 731.93 118.6C727.93 112.6 723.93 110.6 720.93 107.6C717.93 104.6 697.93 95.6 693.93 102.6C689.93 109.6 680.93 105.6 677.93 108.6C674.93 111.6 669.93 119.6 672.93 125.6C672.93 125.6 679.93 124.6 684.93 127.6Z" fill="#FF7A00"/>
</g>
<g clip-path="url(#clip16)">
<path d="M605.23 181.506L650.436 153.151C642.505 174.789 605.23 181.506 605.23 181.506Z" fill="#55AF1B"/>
<path d="M764.768 293.469L758.317 294.705H758.296C747.298 295.972 725.949 298.792 720.524 301.886L721.581 279.709L716.294 316.143C716.294 316.143 668.709 344.656 625.353 304.526C625.353 304.526 630.641 245.387 631.698 239.05C632.755 232.714 605.262 181.495 605.262 181.495C605.262 181.495 642.505 174.789 650.436 153.151L650.679 152.992L650.616 152.644L650.679 152.464C650.679 152.464 663.369 191.538 667.598 189.426C671.828 187.314 677.115 184.146 677.115 184.146C677.115 184.146 689.805 196.819 701.437 190.482C701.437 190.482 722.586 197.875 735.275 214.772C747.32 230.771 763.129 287.555 764.768 293.469Z" fill="#55AF1B"/>
<path d="M650.7 152.992L650.457 153.151C650.52 152.982 650.584 152.813 650.637 152.644L650.7 152.992Z" fill="#55AF1B"/>
<path d="M641.183 85.4045C639.163 88.4354 649.727 147.564 650.637 152.644C650.637 152.813 650.52 152.982 650.457 153.151L605.23 181.506C602.057 175.169 601 90.6848 601 90.6848C612.632 101.245 639.068 85.4045 639.068 85.4045C639.068 85.4045 643.298 82.2364 641.183 85.4045Z" fill="#55AF1B"/>
</g>
</g>
<circle cx="903" cy="705" r="78" fill="#0086FF"/>
<mask id="mask4" mask-type="alpha" maskUnits="userSpaceOnUse" x="825" y="627" width="156" height="156">
<circle cx="903" cy="705" r="78" fill="#0086FF"/>
</mask>
<g mask="url(#mask4)">
<g clip-path="url(#clip17)">
<path d="M883.583 685.911C883.442 687.606 883.3 689.3 883.159 691C881.795 689.674 880.218 689.079 879.082 689.617C878.881 689.714 878.663 689.861 878.446 690.093C877.951 688.926 877.326 687.062 877.234 684.699C877.169 683.05 877.375 681.65 877.614 680.619C876.19 678.924 876.06 676.34 876.016 673.994C875.967 671.535 876.043 668.73 877.68 667.132C878.837 665.999 880.517 665.778 881.697 664.667C882.909 663.528 883.376 661.664 884.322 660.236C886.013 657.68 889.09 656.773 891.884 657.051C895.553 657.414 896.053 659.182 899.967 659.629C904.017 660.094 904.343 657.946 907.697 658.201C914.65 658.723 919.597 668.435 921.331 671.83C922.532 674.187 923.326 675.734 923.739 678.097C924.728 683.707 922.679 688.393 921.613 690.456C921.374 690.071 921.108 689.855 920.896 689.731C919.863 689.113 918.303 689.504 916.96 690.688C916.868 689.136 916.775 687.577 916.683 686.025C916.145 685.486 915.34 684.614 914.525 683.412C912.622 680.619 913.198 679.831 911.894 678.091C909.844 675.366 906.507 674.493 903.386 674.023C902.142 673.836 893.129 672.402 889.41 677.819C888.861 678.618 888.655 679.236 888.128 680.097C887.807 680.619 887.513 680.987 887.301 681.27C886.007 682.987 884.181 685.197 883.583 685.911Z" fill="#050145"/>
</g>
<g clip-path="url(#clip18)">
<path d="M839.705 889.262C839.705 889.262 826.377 916.346 830.957 917.643C835.537 918.94 834.687 905.745 837.625 904.093C840.563 902.441 833.499 920.618 836.181 922.733C838.863 924.848 840.769 911.835 841.958 908.183C843.146 904.531 840.084 932.408 845.028 929.045C849.971 925.682 846.678 907.613 848.618 906.828C850.557 906.043 849.674 929.4 852.471 929.615C855.269 929.83 856.92 908.406 856.202 905.539C855.484 902.672 863.497 920.163 865.651 916.577C867.805 912.991 864.438 895.864 860.072 891.791C855.706 887.717 863.81 867.706 863.315 862.046C862.82 856.387 869.414 802.327 869.711 799.873V799.832C869.786 776.812 876.172 754.254 888.172 734.618C888.172 734.618 848.939 745.64 844.962 821.248C840.984 896.855 839.705 889.262 839.705 889.262Z" fill="#FFB288"/>
<path d="M869.719 799.824V799.865C869.652 808.982 870.557 818.081 872.418 827.006C873.013 829.959 873.779 832.875 874.712 835.74C905.915 855.965 939.717 842.655 942.936 837.276C943.761 835.946 944.298 833.22 944.694 829.84C945.378 822.513 945.673 815.155 945.577 807.797C945.577 805.318 945.527 803.707 945.527 803.707C945.593 803.062 945.643 802.443 945.701 801.815C949.868 748.994 918.112 730.396 914.283 728.38C914.684 729.901 915.42 731.313 916.437 732.511C916.437 732.511 909.464 744.516 895.971 738.989C895.971 738.989 896.425 735.419 896.515 730.859H896.268C892.463 731.685 888.131 734.643 888.131 734.643C876.154 754.275 869.786 776.82 869.719 799.824Z" fill="#FFB288"/>
<path d="M876.016 681.169C872.624 683.268 871.889 688.258 874.415 692.324C875.477 694.082 877.073 695.455 878.97 696.24C878.763 693.542 878.882 690.829 879.325 688.159C879.743 685.554 880.46 683.006 881.462 680.566C880.564 680.271 879.613 680.171 878.674 680.275C877.734 680.379 876.828 680.684 876.016 681.169Z" fill="#FFB288"/>
<path d="M879.325 688.159C878.882 690.829 878.763 693.542 878.971 696.24C879.947 696.665 881.01 696.853 882.073 696.788C883.135 696.724 884.168 696.408 885.086 695.868C888.477 693.769 889.212 688.779 886.687 684.722C885.502 682.758 883.646 681.29 881.463 680.591C880.462 683.023 879.745 685.563 879.325 688.159Z" fill="#FFB288"/>
<path d="M885.085 695.868C884.168 696.408 883.135 696.724 882.072 696.788C881.01 696.853 879.947 696.665 878.97 696.24C879.754 706.493 885.333 714.698 893.247 715.987C893.717 716.063 894.191 716.115 894.667 716.144L894.493 715.739C894.493 715.739 905.015 699.214 912.979 699.644C912.979 699.644 912.888 700.652 912.797 702.321C913.385 701.01 913.881 699.66 914.283 698.281C914.055 698.177 913.835 698.058 913.623 697.925C909.595 695.447 908.762 689.465 911.766 684.623C912.578 683.3 913.64 682.149 914.894 681.236C913.004 673.229 908.003 667.264 901.335 666.174C893.363 664.876 885.432 670.982 881.463 680.566C883.646 681.265 885.502 682.733 886.686 684.697C889.195 688.779 888.477 693.769 885.085 695.868Z" fill="#FFB288"/>
<path d="M894.477 715.739L894.65 716.144C901.689 716.515 908.514 711.285 912.401 703.155C912.533 702.883 912.657 702.61 912.781 702.329C912.872 700.677 912.962 699.652 912.962 699.652C905.015 699.222 894.477 715.739 894.477 715.739Z" fill="#FFB288"/>
<path d="M912.418 703.155C908.531 711.285 901.689 716.515 894.667 716.144C895.773 719.179 896.383 722.374 896.474 725.604C908.052 723.745 912.55 703.221 912.55 703.221L912.418 703.155Z" fill="#D36E3C"/>
<path d="M913.986 728.19H914.275C912.022 720.754 912.467 707.881 912.797 702.304C912.674 702.577 912.55 702.85 912.418 703.131L912.55 703.197C912.55 703.197 908.052 723.72 896.474 725.579C896.573 727.372 896.589 729.165 896.556 730.817C896.466 735.378 896.012 738.947 896.012 738.947C909.505 744.475 916.478 732.47 916.478 732.47C915.461 731.271 914.725 729.86 914.324 728.339L913.986 728.19Z" fill="#FFB288"/>
<path d="M911.766 684.623C908.762 689.465 909.596 695.43 913.623 697.925C913.835 698.058 914.055 698.177 914.283 698.281C914.697 696.879 915.022 695.452 915.257 694.009C915.971 689.768 915.848 685.429 914.894 681.236C913.64 682.149 912.578 683.3 911.766 684.623Z" fill="#FFB288"/>
<path d="M914.283 728.223L914.332 728.38C918.12 730.396 949.876 749.036 945.733 801.815H945.783L948.58 811.209C951.378 815.885 962.61 868.218 962.61 870.086C962.61 871.953 966.274 882.264 962.577 889.7C958.88 897.136 960.712 914.933 963.509 914.933C966.307 914.933 965.383 905.589 968.18 902.779C970.978 899.97 970.045 916.825 973.784 918.668C977.522 920.51 972.843 904.622 974.716 902.779C976.59 900.937 976.367 921.312 980.311 918.668C983.117 916.8 977.514 902.779 978.446 900.912C979.379 899.045 983.117 916.8 985.874 915.867C988.63 914.933 981.203 901.821 982.135 899.045C983.068 896.269 984.009 907.456 988.671 910.257C993.334 913.058 984.009 891.567 981.244 887.833C978.479 884.098 980.303 864.467 971.91 799.055C963.905 736.75 918.558 728.834 914.283 728.223Z" fill="#FFB288"/>
<path d="M915.257 694.009C915.022 695.452 914.696 696.879 914.283 698.281C918.252 700.214 923.509 698.281 926.356 693.679C929.36 688.837 928.527 682.88 924.5 680.376C921.619 678.583 917.898 679.046 914.894 681.203C915.852 685.406 915.976 689.758 915.257 694.009Z" fill="#FFB288"/>
</g>
<g clip-path="url(#clip19)">
<path d="M895.268 692.895C894.92 695.54 893.873 698.007 892.189 700.096C892.214 699.857 892.24 699.619 892.266 699.38C893.029 700.708 894.406 701.545 895.821 702.07C896.698 702.394 896.17 703.727 895.294 703.398C893.496 702.729 891.902 701.627 890.947 699.963C890.824 699.749 890.875 699.432 891.024 699.247C892.553 697.355 893.514 695.143 893.829 692.741C893.945 691.829 895.389 691.983 895.268 692.895Z" fill="#712800"/>
<path d="M900.541 706.608C898.422 708.339 895.489 708.881 892.803 708.438C891.884 708.288 892.03 706.868 892.955 707.019C895.28 707.4 897.788 706.996 899.626 705.493C900.349 704.91 901.263 706.024 900.541 706.608Z" fill="#712800"/>
<path d="M902.283 690.556C902.62 690.523 902.897 690.771 903.104 690.96C904.063 691.827 903.844 693.274 903.841 693.463C903.843 694.319 903.458 695.352 902.593 695.466C902.012 695.547 901.447 695.033 901.183 694.609C900.845 694.055 900.928 693.501 901.015 692.902C901.029 692.777 901.356 690.647 902.283 690.556Z" fill="black"/>
<path d="M886.672 688.884C887.008 688.852 887.286 689.1 887.493 689.288C888.452 690.155 888.233 691.602 888.23 691.791C888.232 692.647 887.847 693.68 886.981 693.794C886.4 693.875 885.836 693.361 885.572 692.937C885.234 692.384 885.311 691.823 885.398 691.229C885.423 691.106 885.751 688.975 886.672 688.884Z" fill="black"/>
<path d="M906.012 687.751C905.957 687.613 905.901 687.48 905.834 687.347C905.809 687.304 905.784 687.261 905.766 687.219C905.683 687.066 905.857 687.343 905.756 687.2C905.7 687.125 905.65 687.045 905.593 686.976C905.515 686.882 905.432 686.792 905.348 686.703C905.247 686.606 905.37 686.717 905.31 686.67C905.267 686.637 905.23 686.598 905.187 686.571C905.09 686.492 904.992 686.424 904.888 686.355C904.845 686.327 904.806 686.306 904.762 686.278C904.718 686.256 904.729 686.263 904.8 686.305C904.778 686.292 904.751 686.277 904.722 686.268C904.55 686.187 904.371 686.116 904.184 686.056C904.151 686.041 904.111 686.031 904.071 686.021C903.913 685.975 904.237 686.056 904.083 686.022C904.008 686.008 903.929 685.988 903.854 685.98C903.641 685.946 903.421 685.928 903.205 685.928C902.825 685.933 902.51 685.492 902.559 685.141C902.627 684.723 902.954 684.511 903.357 684.508C905.087 684.498 906.726 685.564 907.337 687.169C907.469 687.516 907.351 687.963 906.973 688.112C906.625 688.247 906.154 688.122 906.012 687.751Z" fill="black"/>
<path d="M887.804 683.819C887.748 683.796 887.686 683.778 887.629 683.76C887.567 683.742 887.462 683.742 887.675 683.771C887.646 683.768 887.612 683.758 887.583 683.755C887.457 683.73 887.324 683.722 887.195 683.719C887.09 683.72 887.265 683.721 887.277 683.717C887.259 683.726 887.189 683.724 887.166 683.722C887.107 683.727 887.042 683.737 886.982 683.748C886.922 683.759 886.863 683.77 886.803 683.786C886.742 683.803 886.65 683.85 886.839 683.773C886.815 683.776 886.779 683.784 886.755 683.793C886.64 683.832 886.524 683.883 886.418 683.941C886.393 683.955 886.368 683.975 886.338 683.984C886.516 683.899 886.425 683.93 886.369 683.964C886.318 683.999 886.268 684.034 886.223 684.075C886.172 684.115 886.127 684.151 886.082 684.192C886.068 684.207 885.977 684.295 886.069 684.202C886.154 684.113 886.075 684.197 886.061 684.218C886.015 684.271 885.974 684.324 885.939 684.377C885.904 684.431 885.783 684.631 885.905 684.42C885.811 684.588 885.715 684.727 885.53 684.81C885.353 684.883 885.118 684.898 884.951 684.823C884.784 684.748 884.628 684.622 884.552 684.453C884.483 684.285 884.448 684.063 884.536 683.9C884.73 683.553 884.956 683.25 885.27 682.99C885.526 682.777 885.831 682.603 886.152 682.493C886.857 682.241 887.631 682.215 888.332 682.491C888.685 682.632 888.901 683.063 888.74 683.42C888.586 683.771 888.185 683.969 887.804 683.819Z" fill="black"/>
</g>
<path d="M914.88 727C914.88 727 903.378 740.974 895.162 730.288C895.162 730.288 868.05 737.686 851.618 772.209C835.187 806.733 836.008 881.534 836.008 881.534C836.008 881.534 858.191 879.068 863.12 884L870.514 801.801C870.514 801.801 868.871 840.435 868.871 843.723C868.871 847.01 914.058 862.628 949.386 843.723C949.386 843.723 946.921 803.445 945.278 800.979C945.278 800.979 961.71 873.314 961.71 878.246C961.71 878.246 980.606 871.67 988 874.136C988 874.136 978.141 779.607 965.817 762.346C953.494 745.084 937.884 728.644 914.88 727Z" fill="#56028B"/>
</g>
<circle cx="522.5" cy="143.5" r="59" stroke="#EC297B"/>
<circle cx="1097.5" cy="657.5" r="37.5" fill="#D5AEFF"/>
<mask id="mask5" mask-type="alpha" maskUnits="userSpaceOnUse" x="1060" y="620" width="75" height="75">
<circle cx="1097.5" cy="657.5" r="37.5" fill="#0086FF"/>
</mask>
<g mask="url(#mask5)">
<g clip-path="url(#clip20)">
<path d="M1101.28 660C1101.28 660 1110.47 648.092 1108.8 643.165C1107.13 638.238 1105.04 640.701 1104.21 639.88C1103.37 639.059 1102.54 634.953 1098.78 634.131C1095.02 633.31 1093.35 636.595 1092.51 636.595C1091.68 636.595 1089.59 635.363 1088.34 636.184C1087.09 637.006 1086.25 639.469 1085 639.88C1083.75 640.291 1083.33 646.039 1085.83 648.503L1101.28 660Z" fill="#AD004F"/>
</g>
<g clip-path="url(#clip21)">
<path d="M1067.07 746.088C1067.07 746.088 1060.66 759.109 1062.86 759.732C1065.07 760.356 1064.66 754.012 1066.07 753.218C1067.48 752.423 1064.09 761.162 1065.37 762.179C1066.66 763.196 1067.58 756.94 1068.15 755.184C1068.72 753.428 1067.25 766.831 1069.63 765.214C1072 763.597 1070.42 754.91 1071.35 754.533C1072.29 754.155 1071.86 765.385 1073.21 765.488C1074.55 765.591 1075.35 755.291 1075 753.913C1074.66 752.535 1078.51 760.944 1079.54 759.22C1080.58 757.496 1078.96 749.261 1076.86 747.303C1074.76 745.345 1078.66 735.724 1078.42 733.003C1078.18 730.282 1081.35 704.292 1081.5 703.112V703.092C1081.53 692.025 1084.6 681.18 1090.37 671.739C1090.37 671.739 1071.51 677.038 1069.6 713.388C1067.68 749.738 1067.07 746.088 1067.07 746.088Z" fill="#D36E3C"/>
<path d="M1081.5 703.088V703.108C1081.47 707.492 1081.9 711.866 1082.8 716.157C1083.08 717.577 1083.45 718.979 1083.9 720.356C1098.9 730.08 1115.15 723.68 1116.7 721.094C1117.1 720.455 1117.35 719.144 1117.54 717.519C1117.87 713.997 1118.02 710.459 1117.97 706.921C1117.97 705.73 1117.95 704.955 1117.95 704.955C1117.98 704.645 1118 704.347 1118.03 704.046C1120.03 678.651 1104.77 669.71 1102.92 668.74C1103.12 669.472 1103.47 670.15 1103.96 670.726C1103.96 670.726 1100.61 676.498 1094.12 673.841C1094.12 673.841 1094.34 672.125 1094.38 669.932H1094.26C1092.43 670.329 1090.35 671.751 1090.35 671.751C1084.59 681.19 1081.53 692.029 1081.5 703.088Z" fill="#D36E3C"/>
<path d="M1084.53 646.043C1082.9 647.052 1082.54 649.451 1083.76 651.405C1084.27 652.251 1085.03 652.911 1085.95 653.288C1085.85 651.991 1085.9 650.687 1086.12 649.403C1086.32 648.151 1086.66 646.926 1087.15 645.753C1086.71 645.611 1086.26 645.563 1085.8 645.613C1085.35 645.663 1084.92 645.81 1084.53 646.043Z" fill="#D36E3C"/>
<path d="M1086.12 649.404C1085.9 650.687 1085.85 651.991 1085.95 653.288C1086.42 653.493 1086.93 653.583 1087.44 653.552C1087.95 653.521 1088.45 653.369 1088.89 653.11C1090.52 652.101 1090.87 649.701 1089.66 647.751C1089.09 646.807 1088.19 646.101 1087.15 645.765C1086.66 646.934 1086.32 648.155 1086.12 649.404Z" fill="#D36E3C"/>
<path d="M1088.89 653.11C1088.45 653.369 1087.95 653.521 1087.44 653.552C1086.93 653.583 1086.42 653.493 1085.95 653.288C1086.32 658.218 1089.01 662.162 1092.81 662.782C1093.04 662.819 1093.26 662.844 1093.49 662.857L1093.41 662.663C1093.41 662.663 1098.47 654.718 1102.3 654.925C1102.3 654.925 1102.25 655.41 1102.21 656.212C1102.49 655.582 1102.73 654.933 1102.92 654.269C1102.81 654.22 1102.71 654.163 1102.61 654.099C1100.67 652.907 1100.27 650.031 1101.71 647.703C1102.1 647.067 1102.62 646.514 1103.22 646.075C1102.31 642.226 1099.9 639.358 1096.7 638.833C1092.87 638.21 1089.05 641.145 1087.15 645.753C1088.19 646.089 1089.09 646.795 1089.66 647.739C1090.86 649.701 1090.52 652.101 1088.89 653.11Z" fill="#D36E3C"/>
<path d="M1093.4 662.663L1093.49 662.857C1096.87 663.036 1100.15 660.522 1102.02 656.613C1102.08 656.482 1102.14 656.351 1102.2 656.216C1102.25 655.421 1102.29 654.929 1102.29 654.929C1098.47 654.722 1093.4 662.663 1093.4 662.663Z" fill="#D36E3C"/>
<path d="M1102.03 656.613C1100.16 660.522 1096.87 663.036 1093.49 662.857C1094.03 664.317 1094.32 665.853 1094.36 667.406C1099.93 666.512 1102.09 656.645 1102.09 656.645L1102.03 656.613Z" fill="#A04400"/>
<path d="M1102.78 668.649H1102.92C1101.84 665.074 1102.05 658.885 1102.21 656.204C1102.15 656.335 1102.09 656.466 1102.03 656.601L1102.09 656.633C1102.09 656.633 1099.93 666.5 1094.36 667.394C1094.41 668.256 1094.42 669.118 1094.4 669.912C1094.36 672.105 1094.14 673.821 1094.14 673.821C1100.63 676.478 1103.98 670.707 1103.98 670.707C1103.49 670.13 1103.14 669.452 1102.94 668.72L1102.78 668.649Z" fill="#D36E3C"/>
<path d="M1101.71 647.703C1100.27 650.031 1100.67 652.899 1102.61 654.099C1102.71 654.163 1102.81 654.22 1102.92 654.269C1103.12 653.595 1103.28 652.91 1103.39 652.216C1103.74 650.177 1103.68 648.091 1103.22 646.075C1102.62 646.514 1102.1 647.067 1101.71 647.703Z" fill="#D36E3C"/>
<path d="M1102.92 668.665L1102.95 668.74C1104.77 669.71 1120.04 678.671 1118.04 704.046H1118.07L1119.41 708.562C1120.76 710.81 1126.16 735.97 1126.16 736.868C1126.16 737.766 1127.92 742.723 1126.14 746.298C1124.36 749.873 1125.25 758.429 1126.59 758.429C1127.94 758.429 1127.49 753.937 1128.84 752.586C1130.18 751.236 1129.73 759.339 1131.53 760.225C1133.33 761.111 1131.08 753.472 1131.98 752.586C1132.88 751.7 1132.77 761.496 1134.67 760.225C1136.02 759.327 1133.32 752.586 1133.77 751.688C1134.22 750.791 1136.02 759.327 1137.34 758.878C1138.67 758.429 1135.1 752.125 1135.55 750.791C1135.99 749.456 1136.45 754.834 1138.69 756.181C1140.93 757.528 1136.45 747.196 1135.12 745.4C1133.79 743.605 1134.66 734.167 1130.63 702.719C1126.78 672.764 1104.98 668.959 1102.92 668.665Z" fill="#D36E3C"/>
<path d="M1103.39 652.216C1103.28 652.91 1103.12 653.595 1102.92 654.27C1104.83 655.199 1107.36 654.27 1108.73 652.057C1110.17 649.729 1109.77 646.865 1107.84 645.662C1106.45 644.8 1104.66 645.022 1103.22 646.059C1103.68 648.08 1103.74 650.172 1103.39 652.216Z" fill="#D36E3C"/>
</g>
<g clip-path="url(#clip22)">
<path d="M1088.8 642.55C1088.61 642.916 1088.42 643.281 1088.23 643.648C1087.85 643.169 1087.32 642.827 1086.87 642.801C1086.79 642.796 1086.7 642.801 1086.6 642.825C1086.52 642.496 1086.44 641.991 1086.61 641.443C1086.72 641.061 1086.91 640.77 1087.08 640.568C1086.7 639.997 1086.87 639.394 1087.04 638.856C1087.23 638.292 1087.49 637.666 1088.21 637.518C1088.72 637.412 1089.35 637.582 1089.87 637.485C1090.4 637.386 1090.72 637.024 1091.18 636.824C1092 636.466 1093.19 636.664 1094.18 637.093C1095.47 637.656 1095.51 638.122 1096.89 638.737C1098.31 639.373 1098.61 638.929 1099.8 639.426C1102.27 640.455 1103.26 643.306 1103.61 644.303C1103.85 644.995 1104.01 645.45 1103.97 646.04C1103.86 647.442 1102.74 648.236 1102.18 648.564C1102.13 648.445 1102.05 648.361 1101.98 648.305C1101.66 648.03 1101.06 647.914 1100.48 648.007C1100.57 647.643 1100.67 647.277 1100.76 646.913C1100.61 646.72 1100.39 646.417 1100.2 646.038C1099.74 645.155 1100.01 645.052 1099.68 644.486C1099.17 643.6 1098.03 642.964 1096.94 642.449C1096.51 642.243 1093.36 640.737 1091.57 641.479C1091.31 641.588 1091.18 641.701 1090.92 641.827C1090.76 641.903 1090.63 641.948 1090.53 641.985C1089.92 642.205 1089.08 642.466 1088.8 642.55Z" fill="#AD004F"/>
</g>
<g clip-path="url(#clip23)">
<path d="M1093.78 651.68C1093.62 652.952 1093.11 654.138 1092.3 655.142C1092.31 655.028 1092.33 654.913 1092.34 654.798C1092.71 655.437 1093.37 655.839 1094.05 656.091C1094.47 656.247 1094.22 656.888 1093.8 656.73C1092.93 656.408 1092.16 655.879 1091.71 655.078C1091.65 654.975 1091.67 654.823 1091.74 654.734C1092.48 653.824 1092.94 652.761 1093.09 651.606C1093.15 651.168 1093.84 651.242 1093.78 651.68Z" fill="#6A2500"/>
<path d="M1096.32 658.273C1095.3 659.105 1093.89 659.366 1092.6 659.153C1092.16 659.081 1092.23 658.398 1092.67 658.471C1093.79 658.654 1094.99 658.46 1095.88 657.737C1096.23 657.457 1096.66 657.993 1096.32 658.273Z" fill="#6A2500"/>
<path d="M1097.16 650.556C1097.32 650.54 1097.45 650.659 1097.55 650.75C1098.01 651.167 1097.91 651.862 1097.9 651.953C1097.91 652.365 1097.72 652.861 1097.3 652.916C1097.02 652.955 1096.75 652.708 1096.63 652.504C1096.46 652.238 1096.5 651.972 1096.55 651.684C1096.55 651.624 1096.71 650.599 1097.16 650.556Z" fill="black"/>
<path d="M1089.65 649.752C1089.81 649.736 1089.94 649.856 1090.04 649.946C1090.51 650.363 1090.4 651.059 1090.4 651.15C1090.4 651.561 1090.21 652.058 1089.8 652.113C1089.52 652.152 1089.25 651.904 1089.12 651.7C1088.96 651.434 1089 651.165 1089.04 650.88C1089.05 650.82 1089.21 649.796 1089.65 649.752Z" fill="black"/>
<path d="M1098.95 649.207C1098.92 649.141 1098.89 649.077 1098.86 649.013C1098.85 648.992 1098.84 648.972 1098.83 648.951C1098.79 648.878 1098.87 649.011 1098.82 648.943C1098.8 648.907 1098.77 648.868 1098.75 648.835C1098.71 648.789 1098.67 648.746 1098.63 648.703C1098.58 648.657 1098.64 648.71 1098.61 648.688C1098.59 648.672 1098.57 648.653 1098.55 648.64C1098.5 648.602 1098.46 648.569 1098.41 648.536C1098.39 648.523 1098.37 648.513 1098.35 648.499C1098.33 648.489 1098.33 648.492 1098.37 648.512C1098.36 648.506 1098.34 648.499 1098.33 648.494C1098.25 648.455 1098.16 648.421 1098.07 648.392C1098.05 648.385 1098.03 648.38 1098.02 648.375C1097.94 648.353 1098.09 648.392 1098.02 648.376C1097.98 648.369 1097.95 648.36 1097.91 648.356C1097.81 648.339 1097.7 648.331 1097.6 648.331C1097.42 648.333 1097.26 648.121 1097.29 647.952C1097.32 647.751 1097.48 647.65 1097.67 647.648C1098.5 647.643 1099.29 648.156 1099.58 648.927C1099.65 649.094 1099.59 649.309 1099.41 649.381C1099.24 649.446 1099.02 649.386 1098.95 649.207Z" fill="black"/>
<path d="M1090.19 647.317C1090.17 647.306 1090.14 647.297 1090.11 647.289C1090.08 647.28 1090.03 647.28 1090.13 647.294C1090.12 647.292 1090.1 647.288 1090.09 647.286C1090.03 647.274 1089.96 647.27 1089.9 647.269C1089.85 647.269 1089.94 647.27 1089.94 647.268C1089.93 647.272 1089.9 647.271 1089.89 647.27C1089.86 647.273 1089.83 647.278 1089.8 647.283C1089.77 647.288 1089.74 647.293 1089.71 647.301C1089.68 647.309 1089.64 647.332 1089.73 647.295C1089.72 647.296 1089.7 647.3 1089.69 647.304C1089.63 647.323 1089.58 647.348 1089.53 647.375C1089.52 647.382 1089.5 647.392 1089.49 647.396C1089.57 647.355 1089.53 647.37 1089.5 647.387C1089.48 647.403 1089.46 647.42 1089.43 647.44C1089.41 647.459 1089.39 647.476 1089.37 647.496C1089.36 647.504 1089.32 647.546 1089.36 647.501C1089.4 647.458 1089.36 647.498 1089.36 647.509C1089.33 647.534 1089.31 647.56 1089.3 647.585C1089.28 647.611 1089.22 647.707 1089.28 647.606C1089.24 647.686 1089.19 647.753 1089.1 647.794C1089.02 647.829 1088.9 647.836 1088.82 647.8C1088.74 647.763 1088.67 647.703 1088.63 647.622C1088.6 647.541 1088.58 647.434 1088.62 647.356C1088.72 647.189 1088.82 647.043 1088.98 646.919C1089.1 646.816 1089.25 646.732 1089.4 646.68C1089.74 646.558 1090.11 646.546 1090.45 646.679C1090.62 646.746 1090.72 646.954 1090.64 647.125C1090.57 647.294 1090.38 647.389 1090.19 647.317Z" fill="black"/>
</g>
<g clip-path="url(#clip24)">
<path d="M1103.21 668.077C1103.21 668.077 1097.68 674.795 1093.73 669.658C1093.73 669.658 1080.7 673.214 1072.8 689.812C1064.9 706.41 1065.29 742.372 1065.29 742.372C1065.29 742.372 1075.96 741.187 1078.33 743.558L1081.88 704.039C1081.88 704.039 1081.09 722.613 1081.09 724.194C1081.09 725.774 1102.82 733.283 1119.8 724.194C1119.8 724.194 1118.62 704.829 1117.83 703.644C1117.83 703.644 1125.73 738.42 1125.73 740.791C1125.73 740.791 1134.81 737.63 1138.37 738.815C1138.37 738.815 1133.63 693.369 1127.7 685.07C1121.78 676.771 1114.27 668.867 1103.21 668.077Z" fill="#FFA825"/>
</g>
</g>
<circle cx="1058.5" cy="784.5" r="24.5" fill="#55AF1B"/>
<mask id="mask6" mask-type="alpha" maskUnits="userSpaceOnUse" x="1034" y="760" width="49" height="49">
<circle cx="1058.5" cy="784.5" r="24.5" fill="#0086FF"/>
</mask>
<g mask="url(#mask6)">
<path d="M1050.29 782.335C1050.29 782.335 1048.3 788.572 1054.69 798.403C1054.69 798.403 1059.23 802.687 1060.51 804C1060.51 804 1062.42 803.058 1063.62 799.716C1066.82 790.719 1070.46 772.599 1060.51 771.175C1047.77 769.356 1050.29 782.335 1050.29 782.335Z" fill="#6B3A09"/>
<g clip-path="url(#clip25)">
<path d="M1038.62 842.377C1038.62 842.377 1034.43 850.884 1035.87 851.292C1037.31 851.699 1037.04 847.555 1037.97 847.036C1038.89 846.517 1036.67 852.226 1037.51 852.89C1038.35 853.555 1038.95 849.467 1039.33 848.32C1039.7 847.173 1038.74 855.929 1040.29 854.873C1041.84 853.817 1040.81 848.141 1041.42 847.895C1042.03 847.648 1041.75 854.985 1042.63 855.052C1043.51 855.12 1044.03 848.39 1043.8 847.49C1043.58 846.589 1046.09 852.083 1046.77 850.957C1047.45 849.831 1046.39 844.451 1045.02 843.171C1043.65 841.892 1046.19 835.606 1046.04 833.829C1045.88 832.051 1047.95 815.071 1048.04 814.3V814.287C1048.07 807.056 1050.07 799.971 1053.84 793.803C1053.84 793.803 1041.52 797.265 1040.27 821.014C1039.02 844.762 1038.62 842.377 1038.62 842.377Z" fill="#FFB288"/>
<path d="M1048.05 814.284V814.297C1048.03 817.161 1048.31 820.019 1048.89 822.823C1049.08 823.75 1049.32 824.666 1049.61 825.566C1059.42 831.919 1070.03 827.738 1071.04 826.048C1071.3 825.631 1071.47 824.774 1071.6 823.713C1071.81 821.411 1071.9 819.1 1071.87 816.789C1071.87 816.01 1071.86 815.504 1071.86 815.504C1071.88 815.302 1071.89 815.107 1071.91 814.91C1073.22 798.319 1063.25 792.477 1062.04 791.844C1062.17 792.321 1062.4 792.765 1062.72 793.141C1062.72 793.141 1060.53 796.912 1056.29 795.176C1056.29 795.176 1056.43 794.055 1056.46 792.622H1056.39C1055.19 792.882 1053.83 793.811 1053.83 793.811C1050.07 799.977 1048.07 807.059 1048.05 814.284Z" fill="#FFB288"/>
<path d="M1050.02 777.015C1048.96 777.674 1048.73 779.241 1049.52 780.518C1049.85 781.071 1050.36 781.502 1050.95 781.748C1050.89 780.901 1050.92 780.049 1051.06 779.21C1051.19 778.392 1051.42 777.592 1051.73 776.825C1051.45 776.732 1051.15 776.701 1050.86 776.734C1050.56 776.767 1050.28 776.862 1050.02 777.015Z" fill="#FFB288"/>
<path d="M1051.06 779.21C1050.92 780.049 1050.89 780.901 1050.95 781.748C1051.26 781.882 1051.59 781.941 1051.93 781.921C1052.26 781.9 1052.58 781.801 1052.87 781.632C1053.94 780.972 1054.17 779.405 1053.38 778.131C1053 777.514 1052.42 777.053 1051.73 776.833C1051.42 777.597 1051.2 778.395 1051.06 779.21Z" fill="#FFB288"/>
<path d="M1052.87 781.632C1052.58 781.801 1052.26 781.9 1051.93 781.921C1051.59 781.941 1051.26 781.882 1050.95 781.748C1051.2 784.969 1052.95 787.546 1055.44 787.951C1055.58 787.975 1055.73 787.991 1055.88 788L1055.83 787.873C1055.83 787.873 1059.13 782.683 1061.63 782.818C1061.63 782.818 1061.61 783.134 1061.58 783.658C1061.76 783.247 1061.92 782.823 1062.04 782.389C1061.97 782.357 1061.9 782.32 1061.84 782.278C1060.57 781.499 1060.31 779.62 1061.25 778.1C1061.51 777.684 1061.84 777.323 1062.24 777.036C1061.64 774.521 1060.07 772.647 1057.98 772.305C1055.47 771.897 1052.98 773.815 1051.74 776.825C1052.42 777.045 1053 777.506 1053.38 778.123C1054.16 779.405 1053.94 780.972 1052.87 781.632Z" fill="#FFB288"/>
<path d="M1055.82 787.873L1055.88 788C1058.09 788.117 1060.23 786.474 1061.45 783.921C1061.49 783.835 1061.53 783.749 1061.57 783.661C1061.6 783.142 1061.63 782.82 1061.63 782.82C1059.13 782.685 1055.82 787.873 1055.82 787.873Z" fill="#FFB288"/>
<path d="M1061.46 783.921C1060.24 786.474 1058.09 788.117 1055.88 788C1056.23 788.954 1056.42 789.957 1056.45 790.972C1060.09 790.388 1061.5 783.941 1061.5 783.941L1061.46 783.921Z" fill="#D36E3C"/>
<path d="M1061.95 791.784H1062.04C1061.33 789.448 1061.47 785.405 1061.58 783.653C1061.54 783.739 1061.5 783.825 1061.46 783.913L1061.5 783.934C1061.5 783.934 1060.09 790.38 1056.45 790.964C1056.48 791.527 1056.49 792.09 1056.48 792.609C1056.45 794.042 1056.3 795.163 1056.3 795.163C1060.54 796.899 1062.73 793.128 1062.73 793.128C1062.41 792.752 1062.18 792.309 1062.06 791.831L1061.95 791.784Z" fill="#FFB288"/>
<path d="M1061.25 778.1C1060.31 779.62 1060.57 781.494 1061.84 782.278C1061.9 782.32 1061.97 782.357 1062.04 782.389C1062.17 781.949 1062.28 781.501 1062.35 781.048C1062.57 779.716 1062.54 778.353 1062.24 777.036C1061.84 777.323 1061.51 777.684 1061.25 778.1Z" fill="#FFB288"/>
<path d="M1062.04 791.794L1062.06 791.844C1063.25 792.477 1073.22 798.332 1071.92 814.91H1071.94L1072.82 817.861C1073.7 819.329 1077.22 835.767 1077.22 836.354C1077.22 836.94 1078.37 840.179 1077.21 842.515C1076.05 844.851 1076.63 850.441 1077.51 850.441C1078.38 850.441 1078.09 847.505 1078.97 846.623C1079.85 845.741 1079.56 851.035 1080.73 851.614C1081.91 852.192 1080.44 847.202 1081.03 846.623C1081.61 846.044 1081.54 852.444 1082.78 851.614C1083.67 851.027 1081.9 846.623 1082.2 846.037C1082.49 845.45 1083.67 851.027 1084.53 850.734C1085.4 850.441 1083.06 846.322 1083.36 845.45C1083.65 844.578 1083.95 848.092 1085.41 848.972C1086.87 849.851 1083.95 843.101 1083.08 841.928C1082.21 840.755 1082.78 834.589 1080.14 814.043C1077.63 794.473 1063.39 791.986 1062.04 791.794Z" fill="#FFB288"/>
<path d="M1062.35 781.048C1062.28 781.501 1062.17 781.949 1062.04 782.389C1063.29 782.997 1064.94 782.389 1065.84 780.944C1066.78 779.423 1066.52 777.552 1065.25 776.766C1064.35 776.203 1063.18 776.348 1062.24 777.025C1062.54 778.346 1062.58 779.712 1062.35 781.048Z" fill="#FFB288"/>
</g>
<g clip-path="url(#clip26)">
<path d="M1056.07 780.698C1055.96 781.529 1055.63 782.304 1055.1 782.96C1055.11 782.885 1055.12 782.81 1055.13 782.735C1055.37 783.152 1055.8 783.415 1056.25 783.58C1056.52 783.681 1056.35 784.1 1056.08 783.997C1055.51 783.787 1055.01 783.441 1054.71 782.918C1054.68 782.851 1054.69 782.751 1054.74 782.693C1055.22 782.099 1055.52 781.404 1055.62 780.65C1055.66 780.363 1056.11 780.411 1056.07 780.698Z" fill="#6A2500"/>
<path d="M1057.73 785.005C1057.06 785.549 1056.14 785.719 1055.3 785.58C1055.01 785.533 1055.05 785.087 1055.34 785.134C1056.07 785.254 1056.86 785.127 1057.44 784.655C1057.67 784.472 1057.95 784.822 1057.73 785.005Z" fill="#6A2500"/>
<path d="M1058.27 779.963C1058.38 779.953 1058.47 780.031 1058.53 780.09C1058.83 780.362 1058.76 780.817 1058.76 780.876C1058.76 781.145 1058.64 781.47 1058.37 781.505C1058.19 781.531 1058.01 781.369 1057.93 781.236C1057.82 781.062 1057.85 780.888 1057.88 780.7C1057.88 780.661 1057.98 779.992 1058.27 779.963Z" fill="black"/>
<path d="M1053.37 779.438C1053.48 779.428 1053.56 779.506 1053.63 779.565C1053.93 779.837 1053.86 780.292 1053.86 780.351C1053.86 780.62 1053.74 780.944 1053.47 780.98C1053.29 781.006 1053.11 780.844 1053.03 780.711C1052.92 780.537 1052.94 780.361 1052.97 780.175C1052.98 780.136 1053.08 779.467 1053.37 779.438Z" fill="black"/>
<path d="M1059.45 779.082C1059.43 779.039 1059.41 778.997 1059.39 778.955C1059.38 778.942 1059.37 778.928 1059.37 778.915C1059.34 778.867 1059.4 778.954 1059.37 778.909C1059.35 778.886 1059.33 778.86 1059.31 778.839C1059.29 778.809 1059.26 778.781 1059.24 778.753C1059.21 778.722 1059.24 778.757 1059.23 778.743C1059.21 778.732 1059.2 778.72 1059.19 778.711C1059.16 778.686 1059.13 778.665 1059.09 778.644C1059.08 778.635 1059.07 778.628 1059.05 778.62C1059.04 778.613 1059.04 778.615 1059.07 778.628C1059.06 778.624 1059.05 778.619 1059.04 778.616C1058.99 778.591 1058.93 778.568 1058.87 778.55C1058.86 778.545 1058.85 778.542 1058.84 778.539C1058.79 778.524 1058.89 778.55 1058.84 778.539C1058.82 778.535 1058.79 778.528 1058.77 778.526C1058.7 778.515 1058.63 778.509 1058.56 778.509C1058.44 778.511 1058.35 778.372 1058.36 778.262C1058.38 778.131 1058.49 778.064 1058.61 778.063C1059.16 778.06 1059.67 778.395 1059.86 778.899C1059.9 779.008 1059.87 779.149 1059.75 779.195C1059.64 779.238 1059.49 779.199 1059.45 779.082Z" fill="black"/>
<path d="M1053.73 777.847C1053.71 777.84 1053.69 777.834 1053.67 777.829C1053.65 777.823 1053.62 777.823 1053.69 777.832C1053.68 777.831 1053.67 777.828 1053.66 777.827C1053.62 777.819 1053.58 777.816 1053.54 777.816C1053.5 777.816 1053.56 777.816 1053.56 777.815C1053.56 777.818 1053.53 777.817 1053.53 777.817C1053.51 777.818 1053.49 777.821 1053.47 777.825C1053.45 777.828 1053.43 777.832 1053.41 777.837C1053.39 777.842 1053.36 777.857 1053.42 777.833C1053.42 777.834 1053.4 777.836 1053.4 777.839C1053.36 777.851 1053.32 777.867 1053.29 777.885C1053.28 777.89 1053.28 777.896 1053.27 777.899C1053.32 777.872 1053.29 777.882 1053.28 777.893C1053.26 777.904 1053.24 777.914 1053.23 777.927C1053.21 777.94 1053.2 777.951 1053.19 777.964C1053.18 777.969 1053.15 777.997 1053.18 777.967C1053.21 777.939 1053.18 777.966 1053.18 777.972C1053.16 777.989 1053.15 778.006 1053.14 778.022C1053.13 778.039 1053.09 778.102 1053.13 778.036C1053.1 778.089 1053.07 778.132 1053.01 778.158C1052.96 778.181 1052.88 778.186 1052.83 778.162C1052.78 778.139 1052.73 778.099 1052.71 778.046C1052.68 777.993 1052.67 777.924 1052.7 777.872C1052.76 777.763 1052.83 777.668 1052.93 777.587C1053.01 777.52 1053.11 777.465 1053.21 777.431C1053.43 777.352 1053.67 777.343 1053.89 777.43C1054 777.474 1054.07 777.61 1054.02 777.722C1053.97 777.832 1053.85 777.894 1053.73 777.847Z" fill="black"/>
</g>
<g clip-path="url(#clip27)">
<path d="M1062.23 791.41C1062.23 791.41 1058.62 795.799 1056.04 792.443C1056.04 792.443 1047.52 794.767 1042.36 805.611C1037.2 816.455 1037.46 839.95 1037.46 839.95C1037.46 839.95 1044.42 839.175 1045.97 840.724L1048.3 814.905C1048.3 814.905 1047.78 827.04 1047.78 828.073C1047.78 829.106 1061.97 834.011 1073.07 828.073C1073.07 828.073 1072.3 815.422 1071.78 814.647C1071.78 814.647 1076.94 837.368 1076.94 838.917C1076.94 838.917 1082.88 836.852 1085.2 837.626C1085.2 837.626 1082.1 807.934 1078.23 802.512C1074.36 797.09 1069.46 791.927 1062.23 791.41Z" fill="#EC297B"/>
</g>
</g>
<path d="M1049.97 782.339C1049.97 782.339 1050.33 779.79 1051.31 779.098C1052.3 778.405 1053.1 779.014 1053.57 779.347C1054.04 779.681 1055.34 780.257 1055.96 779.654C1056.58 779.051 1057.21 778.449 1057.78 779.205C1058.35 779.962 1059.08 779.782 1059.44 779.693C1059.96 779.66 1060.48 779.681 1061 779.757C1061 779.757 1060.21 775.008 1060.68 775.341C1060.68 775.341 1062 778.854 1061.95 780.213C1061.9 781.573 1062.2 785.557 1062.2 785.557C1062.2 785.557 1063.48 779.627 1063.44 779.014C1063.29 776.971 1061.89 771.862 1056.83 772.25C1051.21 772.683 1049.66 781.07 1049.97 782.339Z" fill="#6B3A09"/>
<g clip-path="url(#clip28)">
<path d="M907.82 665.237C907.82 665.237 895.049 691.291 873.419 685.231C873.419 685.231 882.597 657.2 907.82 665.237Z" fill="#050145"/>
<path d="M906.588 665.377C906.588 665.377 906.792 681.23 916.125 682.472L925.393 683.834C925.393 683.834 926.14 664.379 906.588 665.377Z" fill="#050145"/>
</g>
<defs>
<clipPath id="clip0">
<rect width="326.458" height="542.888" fill="white" transform="translate(217.92 382.302)"/>
</clipPath>
<clipPath id="clip1">
<rect width="850" height="1299.79" fill="white" transform="translate(16 236)"/>
</clipPath>
<clipPath id="clip2">
<rect width="118.208" height="76.4172" fill="white" transform="translate(278.679 451.332) rotate(-13.142)"/>
</clipPath>
<clipPath id="clip3">
<rect width="63.7102" height="77.6263" fill="white" transform="matrix(-0.964087 -0.265586 -0.265586 0.964087 371.493 501.994)"/>
</clipPath>
<clipPath id="clip4">
<rect width="627.525" height="539.26" fill="white" transform="translate(86.1279 361.747)"/>
</clipPath>
<clipPath id="clip5">
<rect width="326.458" height="542.888" fill="white" transform="translate(217.92 383.515)"/>
</clipPath>
<clipPath id="clip6">
<rect width="850" height="1299.79" fill="white" transform="translate(16 237.213)"/>
</clipPath>
<clipPath id="clip7">
<rect width="118.208" height="76.4172" fill="white" transform="translate(278.679 452.545) rotate(-13.142)"/>
</clipPath>
<clipPath id="clip8">
<rect width="63.7102" height="77.6263" fill="white" transform="matrix(-0.964087 -0.265586 -0.265586 0.964087 371.493 503.207)"/>
</clipPath>
<clipPath id="clip9">
<rect width="627.525" height="539.26" fill="white" transform="translate(86.1279 362.96)"/>
</clipPath>
<clipPath id="clip10">
<rect width="172" height="543" fill="white" transform="translate(586 6)"/>
</clipPath>
<clipPath id="clip11">
<rect width="62.23" height="41.6" fill="white" transform="translate(672 100)"/>
</clipPath>
<clipPath id="clip12">
<rect width="164" height="292" fill="white" transform="translate(601 84)"/>
</clipPath>
<clipPath id="clip13">
<rect width="172" height="543" fill="white" transform="translate(586 6)"/>
</clipPath>
<clipPath id="clip14">
<rect width="29" height="32" fill="white" transform="translate(694.609 132.192) rotate(0.255467)"/>
</clipPath>
<clipPath id="clip15">
<rect width="62.23" height="41.6" fill="white" transform="translate(672 100)"/>
</clipPath>
<clipPath id="clip16">
<rect width="164" height="292" fill="white" transform="translate(601 84)"/>
</clipPath>
<clipPath id="clip17">
<rect width="48" height="34" fill="white" transform="translate(876 657)"/>
</clipPath>
<clipPath id="clip18">
<rect width="160" height="369" fill="white" transform="matrix(-1 0 0 1 990 666)"/>
</clipPath>
<clipPath id="clip19">
<rect width="23.1356" height="25.4491" fill="white" transform="matrix(-0.994315 -0.106482 -0.106482 0.994315 907.714 684.464)"/>
</clipPath>
<clipPath id="clip20">
<rect width="25" height="26" fill="white" transform="translate(1084 634)"/>
</clipPath>
<clipPath id="clip21">
<rect width="76.9231" height="177.404" fill="white" transform="matrix(-1 0 0 1 1139.33 638.75)"/>
</clipPath>
<clipPath id="clip22">
<rect width="18.4624" height="8.2009" fill="white" transform="translate(1088.44 635) rotate(19.9179)"/>
</clipPath>
<clipPath id="clip23">
<rect width="11.1229" height="12.2352" fill="white" transform="matrix(-0.994315 -0.106482 -0.106482 0.994315 1099.77 647.627)"/>
</clipPath>
<clipPath id="clip24">
<rect width="73.0769" height="75.4808" fill="white" transform="matrix(-1 0 0 1 1138.37 668.077)"/>
</clipPath>
<clipPath id="clip25">
<rect width="50.2564" height="115.904" fill="white" transform="matrix(-1 0 0 1 1085.83 772.25)"/>
</clipPath>
<clipPath id="clip26">
<rect width="7.26695" height="7.99364" fill="white" transform="matrix(-0.994315 -0.106482 -0.106482 0.994315 1059.98 778.049)"/>
</clipPath>
<clipPath id="clip27">
<rect width="47.7436" height="49.3141" fill="white" transform="matrix(-1 0 0 1 1085.2 791.41)"/>
</clipPath>
<clipPath id="clip28">
<rect width="45.3444" height="36.6387" fill="white" transform="matrix(-0.876193 -0.48196 -0.48196 0.876193 930.389 674.752)"/>
</clipPath>
</defs>
</svg>
