<svg width="774" height="618" viewBox="0 0 774 618" fill="none" xmlns="http://www.w3.org/2000/svg">
<g clip-path="url(#clip0)">
<path d="M641.905 236.091C685.417 236.091 720.691 200.797 720.691 157.26C720.691 113.723 685.417 78.4296 641.905 78.4296C598.393 78.4296 563.12 113.723 563.12 157.26C563.12 200.797 598.393 236.091 641.905 236.091Z" fill="#5665A9"/>
<path d="M771.503 220.99C776.954 193.666 759.236 167.094 731.929 161.639C704.621 156.184 678.064 173.913 672.612 201.236C667.16 228.56 684.878 255.132 712.186 260.587C739.494 266.042 766.051 248.314 771.503 220.99Z" stroke="#F5A135" stroke-width="2.52" stroke-linecap="round" stroke-linejoin="round" stroke-dasharray="8.96 8.96"/>
<path d="M324.819 332.179C327.274 332.179 329.264 330.188 329.264 327.732C329.264 325.276 327.274 323.285 324.819 323.285C322.365 323.285 320.375 325.276 320.375 327.732C320.375 330.188 322.365 332.179 324.819 332.179Z" fill="#9D82BC"/>
<path d="M469.823 259.446C472.727 259.446 475.081 257.091 475.081 254.185C475.081 251.28 472.727 248.925 469.823 248.925C466.919 248.925 464.565 251.28 464.565 254.185C464.565 257.091 466.919 259.446 469.823 259.446Z" fill="#9D82BC"/>
<path d="M290.184 8.89395C292.638 8.89395 294.628 6.90297 294.628 4.44698C294.628 1.99098 292.638 0 290.184 0C287.729 0 285.739 1.99098 285.739 4.44698C285.739 6.90297 287.729 8.89395 290.184 8.89395Z" fill="white"/>
<path d="M330.832 120.552C333.515 120.552 335.689 118.376 335.689 115.692C335.689 113.008 333.515 110.832 330.832 110.832C328.15 110.832 325.975 113.008 325.975 115.692C325.975 118.376 328.15 120.552 330.832 120.552Z" fill="#F5A134"/>
<path d="M596.082 195.03C598.094 195.03 599.724 193.398 599.724 191.385C599.724 189.372 598.094 187.74 596.082 187.74C594.07 187.74 592.439 189.372 592.439 191.385C592.439 193.398 594.07 195.03 596.082 195.03Z" fill="white"/>
<path d="M504.824 86.2147C506.836 86.2147 508.467 84.5829 508.467 82.5699C508.467 80.5569 506.836 78.925 504.824 78.925C502.813 78.925 501.182 80.5569 501.182 82.5699C501.182 84.5829 502.813 86.2147 504.824 86.2147Z" fill="#9D82BC"/>
<path opacity="0.62" d="M191.275 104.793C136.551 94.4127 115.826 112.472 107.574 131.262C98.0009 153.002 141.761 180.427 131.328 206.307C122.581 228.034 87.7092 218.704 62.5753 246.329C45.281 265.321 36.0031 297.971 45.0924 320.135C72.478 387.111 280.988 391.782 321.365 320.135C331.822 301.592 327.389 284.359 345.12 270.098C373.413 247.391 406.764 273.271 440.126 252.593C465.367 236.952 511.473 181.382 479.737 154.606C438.287 119.644 440.964 177.454 349.918 159.218C264.118 142.032 246.977 115.35 191.275 104.793Z" fill="url(#paint0_linear)"/>
<path d="M409.771 185.204C412.674 185.204 415.028 182.849 415.028 179.943C415.028 177.038 412.674 174.682 409.771 174.682C406.867 174.682 404.513 177.038 404.513 179.943C404.513 182.849 406.867 185.204 409.771 185.204Z" fill="white"/>
<path d="M17.6952 281.198L98.7792 279.416C101.267 279.416 101.278 275.477 98.7792 275.536L17.6952 277.317C15.2078 277.317 15.196 281.245 17.6952 281.198V281.198Z" fill="#9D82BC"/>
<path d="M1.87441 254.952L98.6848 252.829C101.184 252.77 101.184 248.889 98.6848 248.948L1.87441 251.071C-0.613046 251.13 -0.624835 255.011 1.87441 254.952Z" fill="#9D82BC"/>
<path d="M191.051 171.45C194.176 171.45 196.709 168.915 196.709 165.788C196.709 162.661 194.176 160.127 191.051 160.127C187.926 160.127 185.392 162.661 185.392 165.788C185.392 168.915 187.926 171.45 191.051 171.45Z" fill="white"/>
<path d="M250.219 153.332L280.198 239.441" stroke="white" stroke-width="0.75" stroke-miterlimit="10"/>
<path d="M256.538 144.426L288.592 236.433" stroke="white" stroke-width="0.75" stroke-miterlimit="10"/>
<path d="M267.49 147.305L300.311 241.552" stroke="white" stroke-width="0.75" stroke-miterlimit="10"/>
<path d="M271.085 130.555L305.874 230.452" stroke="white" stroke-width="0.75" stroke-miterlimit="10"/>
<path d="M284.772 141.277L314.752 227.386" stroke="white" stroke-width="0.75" stroke-miterlimit="10"/>
<path d="M293.178 138.352L326.54 234.215" stroke="white" stroke-width="0.75" stroke-miterlimit="10"/>
<path d="M299.32 127.405L332.035 221.334" stroke="white" stroke-width="0.75" stroke-miterlimit="10"/>
<path d="M310.46 132.324L340.44 218.433" stroke="white" stroke-width="0.75" stroke-miterlimit="10"/>
<path d="M257.151 230.323L356.048 195.832" stroke="white" stroke-width="0.75" stroke-miterlimit="10"/>
<path d="M237.888 227.598L360.658 184.791" stroke="white" stroke-width="0.75" stroke-miterlimit="10"/>
<path d="M244.219 215.437L350.024 178.54" stroke="white" stroke-width="0.75" stroke-miterlimit="10"/>
<path d="M221.195 214.033L357.015 166.673" stroke="white" stroke-width="0.75" stroke-miterlimit="10"/>
<path d="M238.195 198.144L344.012 161.247" stroke="white" stroke-width="0.75" stroke-miterlimit="10"/>
<path d="M234.009 190.17L341.076 152.825" stroke="white" stroke-width="0.75" stroke-miterlimit="10"/>
<path d="M232.17 180.852L361.53 135.745" stroke="white" stroke-width="0.75" stroke-miterlimit="10"/>
<path d="M229.247 172.441L335.099 135.544" stroke="white" stroke-width="0.75" stroke-miterlimit="10"/>
<path d="M596.165 82.6052C599.29 82.6052 601.823 80.0703 601.823 76.9433C601.823 73.8163 599.29 71.2814 596.165 71.2814C593.039 71.2814 590.506 73.8163 590.506 76.9433C590.506 80.0703 593.039 82.6052 596.165 82.6052Z" fill="#292562"/>
<path d="M405.738 302.937C407.301 302.937 408.567 301.67 408.567 300.106C408.567 298.543 407.301 297.275 405.738 297.275C404.175 297.275 402.909 298.543 402.909 300.106C402.909 301.67 404.175 302.937 405.738 302.937Z" fill="#292562"/>
<path d="M212.105 255.223C215.231 255.223 217.764 252.689 217.764 249.562C217.764 246.435 215.231 243.9 212.105 243.9C208.98 243.9 206.447 246.435 206.447 249.562C206.447 252.689 208.98 255.223 212.105 255.223Z" fill="#292562"/>
<path d="M650.004 129.54C653.13 129.54 655.663 127.005 655.663 123.878C655.663 120.751 653.13 118.216 650.004 118.216C646.879 118.216 644.346 120.751 644.346 123.878C644.346 127.005 646.879 129.54 650.004 129.54Z" fill="#F5A134"/>
<path d="M522.225 282C525.35 282 527.883 279.465 527.883 276.338C527.883 273.211 525.35 270.676 522.225 270.676C519.099 270.676 516.566 273.211 516.566 276.338C516.566 279.465 519.099 282 522.225 282Z" fill="#F5A134"/>
<path d="M563.533 311.843C555.811 318.035 551.048 321.669 547.299 327.177C536.43 343.243 539.813 360.064 540.745 364.322C544.281 380.505 553.217 381.048 551.154 391.452C549.575 399.508 544.01 400.275 534.249 418.405C529.805 426.662 527.576 430.85 528.166 435.285C529.345 444.238 537.998 445.311 538.245 453.863C538.375 458.239 535.888 462.214 530.889 470.188C524.83 479.884 521.859 480.403 520.963 485.416C519.784 492.164 523.981 497.637 526.94 501.47C533.247 509.668 537.668 508.324 541.853 513.891C550.565 525.498 537.137 538.969 544.812 545.905C549.315 549.951 557.897 548.689 575.05 546.164C597.261 542.897 599.017 538.438 607.812 540.019C621.958 542.555 620.98 548.37 638.168 554.893C648.165 558.691 656.641 556.957 667.039 556.167C678.18 555.318 697.584 561.098 714.195 548.299C728.86 536.987 734.236 520.733 734.566 519.577C738.044 509.031 736.558 501.706 742.665 498.345C749.396 494.617 757.259 500.173 762.128 496.221C766.785 492.447 763.979 483.753 763.602 482.621C759.122 469.315 743.726 469.587 742.229 459.926C741.05 452.153 750.74 450.171 752.839 439.779C755.915 424.999 741.946 411.575 729.862 400.653C705.907 379.007 692.373 382.782 684.086 365.49C678.71 354.26 682.058 347.725 673.275 339.964C664.28 332.013 654.897 333.688 650.476 324.794C647.328 318.46 650.346 314.119 645.1 308.457C642.007 305.356 638.12 303.168 633.865 302.135C627.24 300.59 625.719 303.244 619.082 301.746C612.445 300.248 611.62 297.157 605.607 296.839C602.579 296.721 599.56 297.252 596.754 298.396C591.548 298.302 586.365 299.1 581.428 300.755C579.424 301.451 573.824 303.586 563.533 311.843Z" fill="#2E1600"/>
<path d="M624.057 365.761C625.577 365.935 627.111 365.935 628.631 365.761C630.164 365.596 636.683 364.888 641.198 359.745C645.525 354.838 647.658 346.263 643.485 339.692C643.391 339.539 643.19 339.209 642.884 338.772C642.294 337.958 638.899 333.264 633.193 332.875C630.225 332.73 627.302 333.64 624.941 335.446L620.992 337.899C621.457 335.693 621.549 333.424 621.263 331.188C619.801 320.171 608.826 311.43 598.428 309.684C595.76 309.171 593.02 309.171 590.352 309.684C584.069 310.958 580.167 314.898 576.925 318.271C571.382 324.11 567.27 331.156 564.912 338.855C562.847 338.356 560.693 338.356 558.629 338.855C557.803 339.067 553.17 340.211 550.907 344.293C547.901 349.719 551.496 355.994 552.333 357.457C554.435 360.979 557.656 363.696 561.481 365.171C561.891 367.497 562.467 369.792 563.203 372.036C565.101 377.828 568.272 387.524 576.63 392.348C581.562 394.99 587.238 395.896 592.746 394.92C594.078 398.491 594.931 402.224 595.28 406.02C595.625 409.495 595.625 412.995 595.28 416.471C601.058 418.384 607.26 418.618 613.165 417.146C619.07 415.674 624.437 412.556 628.643 408.155C624.043 398.363 621.891 387.599 622.371 376.79C622.6 373.07 623.164 369.379 624.057 365.761V365.761Z" fill="#F4B68E"/>
<path d="M592.71 394.967C593.901 399.225 594.796 403.56 595.386 407.942C597.704 406.544 599.937 405.008 602.071 403.342C606.492 399.909 615.781 392.726 618.917 381.603C618.917 381.603 618.917 381.532 621.122 370.727C618.163 376.813 618.127 376.872 618.127 376.872C615.671 381.718 612.073 385.894 607.646 389.04C603.218 392.186 598.093 394.208 592.71 394.932V394.967Z" fill="#D08861"/>
<path d="M599.336 426.591C608.531 422.84 617.102 424.492 626.038 426.214C638.501 428.681 650.163 434.187 659.99 442.244C660.096 443.907 660.249 446.585 660.367 449.876C661.03 472.667 659.112 495.46 654.649 517.819C653.765 522.36 652.421 528.801 650.452 536.527C648.043 538.374 645.492 540.031 642.825 541.481C633.98 546.089 624.184 548.572 614.213 548.736C604.477 548.927 594.818 546.974 585.92 543.015C582.776 524.307 579.597 505.603 576.383 486.903C575.529 484.418 574.891 481.865 574.473 479.271C571.49 460.056 580.308 434.365 599.336 426.591Z" fill="#F4B68E"/>
<path d="M452.788 409.971C455.629 419.302 459.437 431.604 464.058 446.078C471.132 468.254 474.727 478.504 482.862 490.453C484.371 492.671 486.28 498.569 492.128 502.249C494.518 503.746 497.17 504.774 499.944 505.28C500.065 505.298 500.188 505.298 500.309 505.28C501.996 505.1 503.667 504.793 505.308 504.36C509.679 503.194 513.782 501.191 517.391 498.462C526.174 492.01 547.382 483.517 557.556 477.395C566.268 472.158 583.279 458.817 597.178 421.861C597.25 421.646 597.265 421.416 597.221 421.194C597.176 420.972 597.074 420.765 596.925 420.595C596.776 420.424 596.585 420.296 596.371 420.222C596.157 420.148 595.927 420.132 595.705 420.174C582.179 422.446 568.978 426.348 556.389 431.793C537.053 440.181 519.486 452.17 504.624 467.121C504.478 467.265 504.3 467.372 504.105 467.435C503.91 467.497 503.703 467.514 503.501 467.483C503.299 467.452 503.106 467.375 502.939 467.257C502.772 467.139 502.634 466.983 502.537 466.803L470.212 405.784C470.135 405.645 470.087 405.491 470.071 405.333C470.055 405.175 470.071 405.015 470.118 404.864" fill="#F4B68E"/>
<path d="M679.335 434.258C671.719 433.916 663.644 442.044 660.732 450.395C655.074 466.732 668.631 485.464 685.583 508.89C691.87 517.598 698.668 525.925 705.943 533.826C704.095 536.499 702.075 539.049 699.895 541.458C696.087 545.681 689.591 552.888 679.052 557.748C671.255 561.283 662.745 562.963 654.189 562.655C649.368 564.884 649.474 566.288 649.474 566.583C649.698 568.199 653.989 569.307 657.655 569.095C662.842 568.8 665.79 565.934 667.016 567.125C667.841 567.927 667.134 569.885 666.709 571.1C665.566 573.97 663.76 576.529 661.44 578.567C657.113 582.955 653.187 588.971 654.048 589.903C654.909 590.835 663.102 585.314 665.707 583.368C667.979 581.754 670.123 579.967 672.12 578.024C673.735 576.42 674.631 575.311 674.785 575.429C675.138 575.689 670.34 582.082 665.79 591.495C664.045 595.105 665.212 595.199 665.79 595.6C666.756 596.308 670.434 591.943 679.406 581.787C681.127 579.841 682.212 578.001 682.553 578.19C683.225 578.567 680.314 585.692 676.789 591.79C675.468 594.078 673.924 596.213 672.474 598.407C670.8 600.967 671.837 600.896 672.026 601.085C672.521 601.58 675.763 598.525 679.17 595.364C684.864 590.103 687.587 585.644 687.917 585.928C688.248 586.211 678.486 598.396 680.16 600.082C681.08 601.026 684.958 598.714 686.75 597.393C689.446 595.305 691.561 592.56 692.892 589.419C695.655 583.408 697.114 576.879 697.172 570.263C703.066 565.722 708.1 562.324 711.637 560.048C722.53 552.97 728.141 550.824 732.126 543.664C733.534 541.145 734.503 538.404 734.99 535.56C736.417 526.713 732.314 519.494 729.768 514.658C721.516 498.828 726.668 502.39 715.892 480.45C709.657 467.427 701.836 455.224 692.609 444.12C687.021 437.373 683.65 434.447 679.335 434.258Z" fill="#F4B68E"/>
<path d="M666.532 489.462V490.382L666.615 489.616L666.532 489.462Z" fill="#EF8885"/>
<path d="M662.265 413.51C658.177 410.055 653.484 407.387 648.425 405.642C641.557 403.415 634.254 402.877 627.134 404.073C624.189 407.281 620.564 409.787 616.524 411.41C613.577 412.59 603.992 416.353 597.898 411.41C595.021 409.051 595.434 407.47 595.056 405.324C589.928 406.126 580.91 405.937 572.339 409.311C557.562 415.244 544.278 424.371 533.436 436.04C527.406 442.267 522.052 449.115 517.462 456.47C517.639 460.988 518.947 484.225 537.161 497.342C541.048 500.123 545.366 502.247 549.94 503.629C554.554 498.73 559.175 493.854 563.804 489.002C564.653 503.157 569.357 519.164 570.135 533.319C570.312 536.574 568.024 546.495 570.347 548.83C576.878 555.365 588.879 554.126 603.745 556.592C618.151 558.951 639.265 551.744 647.222 551.744C654.567 551.744 659.895 555.282 664.505 553.23C664.505 548.287 666.568 533.095 666.568 528.164C666.568 533.083 664.67 539.382 664.658 544.301C662.465 545.232 662.123 544.784 659.943 545.716L666.58 490.441V489.521L666.662 489.675V489.344V489.745C671.228 497.531 675.799 505.316 680.373 513.101C684.77 513.03 715.834 512.098 727.222 491.621C728.677 488.99 729.753 486.167 730.417 483.234C698.445 447.859 673.146 422.333 662.265 413.51ZM549.929 503.617C549.351 503.44 548.75 503.24 548.196 503.039C545.059 501.903 542.051 500.436 539.224 498.663L563.745 488.932L549.929 503.617Z" fill="#EF8885"/>
<path d="M548.196 503.016C548.785 503.216 549.374 503.417 549.929 503.594L563.804 488.908L539.283 498.639C542.092 500.408 545.079 501.875 548.196 503.016V503.016Z" fill="#D87373"/>
<path d="M666.626 489.793L666.532 490.559L656.677 553.324C658.928 552.392 662.217 554.091 664.469 553.171C664.469 548.24 666.509 533.201 666.532 528.27C666.532 515.468 666.575 502.666 666.662 489.863V489.462L666.626 489.793Z" fill="#D87373"/>
<path d="M601.163 352.172C602.271 352.467 602.613 354.048 602.825 355.015C602.967 355.64 603.592 358.554 602 359.651C601.71 359.853 601.379 359.989 601.031 360.051C600.683 360.112 600.326 360.096 599.984 360.005C598.734 359.639 598.275 358.235 598.086 357.645C597.836 356.936 597.759 356.178 597.862 355.433C597.965 354.688 598.243 353.979 598.676 353.364C598.793 353.187 599.984 351.818 601.163 352.172Z" fill="#050606"/>
<path d="M575.322 351.854C576.43 352.149 576.772 353.729 576.984 354.697C577.125 355.322 577.75 358.235 576.159 359.332C575.871 359.539 575.54 359.678 575.191 359.739C574.842 359.801 574.484 359.782 574.143 359.686C572.893 359.32 572.433 357.917 572.245 357.327C571.995 356.618 571.918 355.859 572.021 355.115C572.123 354.37 572.402 353.66 572.834 353.045C572.952 352.892 574.143 351.523 575.322 351.854Z" fill="#050606"/>
<path d="M576.678 343.738C575.399 343.618 574.111 343.833 572.94 344.363C572.419 344.606 571.957 344.958 571.584 345.395C571.212 345.833 570.939 346.346 570.783 346.9C570.512 348.079 572.386 348.633 572.669 347.419C573.07 345.661 575.286 345.685 576.678 345.696C576.937 345.696 577.186 345.593 577.369 345.41C577.553 345.226 577.656 344.977 577.656 344.717C577.656 344.458 577.553 344.209 577.369 344.025C577.186 343.841 576.937 343.738 576.678 343.738V343.738Z" fill="#050606"/>
<path d="M606.327 348.28C605.678 345.154 602.342 343.62 599.418 343.561C599.179 343.588 598.957 343.702 598.797 343.881C598.636 344.061 598.547 344.293 598.547 344.535C598.547 344.776 598.636 345.008 598.797 345.188C598.957 345.367 599.179 345.481 599.418 345.508C601.517 345.567 603.98 346.558 604.452 348.799C604.711 350.037 606.586 349.518 606.327 348.291V348.28Z" fill="#050606"/>
<path d="M586.592 357.044C586.592 360.724 586.509 365.301 583.244 367.766C583.025 367.903 582.866 368.118 582.8 368.368C582.735 368.618 582.767 368.884 582.89 369.111C584.824 371.559 587.461 373.354 590.447 374.254C591.626 374.631 592.168 372.744 590.965 372.378C588.475 371.594 586.259 370.117 584.576 368.12L584.222 369.453C588.124 366.539 588.537 361.609 588.537 357.044C588.511 356.804 588.397 356.583 588.217 356.422C588.038 356.261 587.805 356.172 587.564 356.172C587.324 356.172 587.091 356.261 586.912 356.422C586.732 356.583 586.618 356.804 586.592 357.044V357.044Z" fill="#692E15"/>
<path d="M600.703 374.454C596.222 378.083 590.658 380.109 584.894 380.211C584.635 380.211 584.386 380.314 584.202 380.497C584.019 380.681 583.916 380.93 583.916 381.19C583.916 381.449 584.019 381.698 584.202 381.882C584.386 382.066 584.635 382.169 584.894 382.169C591.175 382.067 597.236 379.834 602.082 375.834C603.037 375.009 601.658 373.64 600.703 374.454V374.454Z" fill="#692E15"/>
<path d="M600.444 375.138C600.857 378.901 598.876 383.03 594.974 383.962C591.744 384.74 586.981 384.139 585.543 380.765C585.048 379.585 583.374 380.612 583.857 381.756C585.72 386.108 591.826 386.852 595.929 385.79C600.409 384.61 602.861 379.467 602.389 375.174C602.259 373.935 600.314 373.924 600.444 375.174V375.138Z" fill="#692E15"/>
<path d="M572.882 372.001C574.522 372.001 575.852 370.67 575.852 369.028C575.852 367.387 574.522 366.056 572.882 366.056C571.241 366.056 569.911 367.387 569.911 369.028C569.911 370.67 571.241 372.001 572.882 372.001Z" fill="#EF8885"/>
<path d="M606.067 369.996C607.708 369.996 609.038 368.665 609.038 367.023C609.038 365.381 607.708 364.051 606.067 364.051C604.426 364.051 603.096 365.381 603.096 367.023C603.096 368.665 604.426 369.996 606.067 369.996Z" fill="#EF8885"/>
<path d="M562.012 324.393C561.175 327.802 562.012 332.013 562.472 334.042C563.238 337.699 563.946 337.923 564.005 340.329C564.099 344.092 562.413 344.882 561.859 348.917C561.199 353.847 562.932 358.459 563.698 358.424C564.252 358.424 564.181 355.994 565.231 352.444C566.516 348.115 567.176 345.543 569.368 344.01C571.184 342.759 571.856 343.679 573.966 342.323C576.194 340.733 577.773 338.391 578.411 335.729C579.283 332.19 580.167 331.872 581.452 330.621C583.055 329.064 583.268 330.02 585.46 328.38C586.462 327.625 587.205 325.526 588.679 321.303L589.103 320.123C589.516 318.944 591.461 317.08 590.365 316.585C590.235 316.526 583.716 324.712 588.313 331.07C590.671 334.266 590.671 333.783 591.013 334.101C592.572 335.278 594.365 336.107 596.271 336.531C599.241 337.286 597.685 339.999 601.246 341.875C604.358 343.514 605.513 342.228 608.755 344.021C610.648 345.01 612.237 346.494 613.353 348.315C615.027 351.217 613.919 352.786 615.711 358.436C615.911 359.084 616.984 362.529 617.55 362.423C617.915 362.352 617.821 360.877 618.009 358.742C618.238 356.569 618.632 354.416 619.188 352.302C621.652 341.426 621.369 341.945 621.794 340.801C623.904 334.998 625.979 335.139 627.158 331.447C629.386 324.441 624.623 315.228 618.422 310.298C611.349 304.683 603.214 305.214 595.74 305.697C583.268 306.499 575.145 311.984 570.147 315.358C563.934 319.522 562.531 322.282 562.012 324.393Z" fill="#2E1600"/>
<path d="M470.825 407.411C474.421 394.873 481.895 382.216 485.502 369.665C485.739 368.989 485.805 368.266 485.696 367.558C485.587 366.851 485.306 366.181 484.877 365.608C484.298 364.804 483.47 364.215 482.521 363.931C481.572 363.647 480.556 363.685 479.631 364.039C478.874 364.426 478.253 365.035 477.851 365.784C475.776 369.264 473.454 381.272 473.454 381.272C473.342 381.586 473.138 381.859 472.868 382.054C472.599 382.25 472.276 382.359 471.944 382.368C471.611 382.377 471.283 382.285 471.003 382.104C470.724 381.923 470.505 381.662 470.377 381.355C465.154 368.733 462.125 355.157 454.733 343.479C454.203 342.653 453.047 341.804 452.305 342.016C451.196 342.346 451.267 345.036 451.302 346.109C451.479 352.42 456.902 367.919 457.197 375.268C457.197 376.719 456.525 377.45 455.947 377.557C453.542 377.997 448.434 367.078 440.622 344.8C440.495 344.442 440.285 344.121 440.008 343.862C439.731 343.603 439.395 343.415 439.03 343.314C438.8 343.23 438.555 343.193 438.31 343.205C438.065 343.217 437.825 343.278 437.604 343.384C437.203 343.62 436.708 344.281 437.073 346.499C437.91 351.641 446.139 376.778 446.375 380.623C446.469 382.18 445.738 382.511 445.432 382.558C443.64 382.794 440.916 372.402 433.301 358.967C430.047 353.234 429.198 352.762 428.762 352.868C427.371 353.198 427.489 359.757 429.799 365.69C430.485 367.311 431.272 368.887 432.157 370.408C434.325 374.572 436.223 378.87 437.84 383.277C438.04 384.764 437.84 385.271 437.557 385.377C437.557 385.377 436.378 385.837 424.412 367.861C423.811 367.176 422.809 366.209 421.983 366.398C420.581 366.728 420.533 370.22 420.51 371.446C420.439 377.097 423.846 389.14 436.319 400.877C439.596 403.979 447.542 407.813 455.099 411.764" fill="#F4B68E"/>
<path d="M664.917 556.533V549.974H605.631C605.631 549.974 578.517 484.602 573.035 472.123C568.626 462.167 562.519 462.521 543.374 462.592C536.077 462.592 497.668 462.368 486.976 462.592C476.283 462.816 474.326 464.951 483.085 489.863C491.845 514.776 500.097 540.007 503.02 547.662C505.944 555.318 506.416 555.554 522.46 556.533C538.505 557.512 664.917 556.533 664.917 556.533Z" fill="#292562"/>
<path d="M529.145 503.983C531.84 503.983 534.025 502.045 534.025 499.654C534.025 497.263 531.84 495.325 529.145 495.325C526.449 495.325 524.264 497.263 524.264 499.654C524.264 502.045 526.449 503.983 529.145 503.983Z" fill="#97B2DC"/>
<path d="M172.295 295.364C177.01 294.326 181.667 297.016 185.793 297.405C195.696 298.325 203.7 296.791 210.019 302.984C212.212 305.119 213.874 307.703 217.305 308.281C219.85 308.58 222.422 307.997 224.59 306.629C227.207 305.025 228.127 303.031 229.223 301.663C234.458 294.928 249.795 293.559 255.371 299.67C257.198 301.675 258.023 304.529 259.014 307.927C259.73 310.411 260.173 312.966 260.334 315.547C262.69 315.52 265.035 315.854 267.29 316.537C272.913 318.248 277.522 318.897 282.615 324.346C287.519 329.654 289.688 336.378 288.51 339.681C287.844 341.131 286.817 342.386 285.527 343.325C282.839 345.531 280.87 345.177 279.904 346.97C278.937 348.763 279.833 350.957 280.234 351.936C281.719 355.617 284.407 355.345 286.187 358.896C287.154 360.83 287.967 364.11 286.517 366.186C285.067 368.262 282.509 367.566 281.884 369.158C281.259 370.75 283.653 372.697 285.857 375.787C288.486 379.499 290.085 383.842 290.49 388.373C290.915 394.023 288.851 400.83 285.857 401.29C284.325 401.514 284.879 401.29 279.904 398.305C275.766 395.84 275.188 395.368 274.61 395.651C272.936 396.453 274.752 401.195 273.939 407.577C273.327 411.034 272.215 414.384 270.638 417.52C265.285 428.679 216.986 449.133 157.464 434.034C143.6 430.496 141.62 427.771 134.11 424.244C133.686 425.636 129.136 431.522 126.872 433.61C123.229 436.972 111.641 433.291 107.149 430.732C105.015 429.427 103.383 427.441 102.516 425.093C100.453 419.29 104.874 415.22 102.186 410.526C101.962 410.136 100.677 407.931 98.8734 407.872C97.0697 407.813 96.3506 409.664 94.2404 411.516C92.119 413.453 89.4741 414.721 86.6365 415.161C81.025 415.456 73.3033 406.267 73.6688 397.609C74.0342 388.951 82.145 387.76 82.2747 378.394C82.3454 373.228 79.9169 372.001 80.2823 365.148C80.4827 361.668 80.7893 356.195 84.2552 353.894C89.2773 350.556 97.6945 356.053 98.4844 354.555C99.0974 353.375 97.1287 354.791 93.8749 349.105C90.4915 343.208 88.6524 335.517 93.1086 331.86C96.9754 328.699 103.613 330.928 104.367 331.2C111.028 333.559 108.8 333.429 114.376 334.019C117.653 334.361 118.655 333.523 120.27 330.975C121.449 329.159 122.215 325.302 123.807 323.556C127.957 318.92 134.417 318.614 139.97 310.333C143.506 305.001 143.506 305.556 146.265 303.834C150.98 300.861 153.338 301.746 161.696 299.245C167.355 297.653 167.367 296.438 172.295 295.364Z" fill="#050606"/>
<path d="M169.748 373.57C168.126 373.749 166.49 373.749 164.868 373.57C163.217 373.393 156.25 372.65 151.428 367.153C146.807 361.904 144.544 352.75 148.988 345.767C149.094 345.602 149.306 345.248 149.636 344.788C150.261 343.915 153.892 338.89 159.975 338.442C163.16 338.269 166.301 339.244 168.829 341.19L173.061 343.809C172.56 341.448 172.465 339.019 172.778 336.626C174.334 324.83 186.052 315.535 197.157 313.671C200.004 313.122 202.929 313.122 205.775 313.671C212.495 315.039 216.668 319.239 220.134 322.836C226.051 329.077 230.438 336.608 232.948 344.835C235.156 344.295 237.461 344.295 239.668 344.835C240.552 345.048 245.504 346.274 247.92 350.639C251.127 356.442 247.284 363.13 246.388 364.687C244.147 368.458 240.705 371.366 236.615 372.944C236.177 375.426 235.567 377.874 234.788 380.27C232.76 386.462 229.365 396.784 220.44 401.962C214.063 405.63 207.166 405.324 203.229 404.71C201.807 408.525 200.895 412.511 200.517 416.565C200.154 420.276 200.154 424.013 200.517 427.724C194.332 429.782 187.689 430.036 181.365 428.454C175.042 426.873 169.299 423.522 164.809 418.794C169.717 408.339 172.015 396.847 171.505 385.306C171.275 381.349 170.687 377.421 169.748 373.57Z" fill="#9A4522"/>
<path d="M203.229 404.757C201.957 409.322 200.999 413.969 200.364 418.665C197.892 417.167 195.511 415.524 193.232 413.746C188.516 410.077 178.59 402.387 175.23 390.52C175.23 390.52 175.23 390.449 172.873 378.913C176.032 385.413 176.067 385.471 176.067 385.471C178.689 390.642 182.526 395.099 187.249 398.458C191.972 401.817 197.44 403.979 203.182 404.757H203.229Z" fill="#9A4522"/>
<path d="M351.946 411.033C348.916 421 345.591 443.884 340.64 459.395C333.072 483.081 329.252 494.027 320.599 506.778C318.984 509.138 316.944 515.46 310.696 519.435C308.143 521.033 305.311 522.134 302.35 522.679C302.225 522.697 302.098 522.697 301.973 522.679C295.342 521.964 289.031 519.46 283.712 515.437C274.339 508.536 251.681 499.477 240.812 492.93C231.498 487.339 213.344 473.078 198.501 433.61C198.423 433.382 198.406 433.137 198.452 432.9C198.497 432.664 198.604 432.443 198.762 432.26C198.919 432.078 199.122 431.94 199.349 431.86C199.576 431.78 199.821 431.761 200.058 431.805C214.494 434.223 228.586 438.378 242.026 444.179C262.703 453.132 281.487 465.942 297.375 481.925C297.532 482.077 297.721 482.191 297.929 482.257C298.137 482.323 298.358 482.341 298.574 482.307C298.79 482.274 298.995 482.192 299.173 482.066C299.352 481.94 299.499 481.775 299.603 481.583C311.109 459.855 323.64 430.413 335.158 408.685C335.335 408.343 334.168 416.034 334.239 415.421C336.113 398.329 342.161 385.472 344.919 369.205C345.627 364.994 348.692 348.598 350.507 340.447C352.394 331.884 353.337 329.583 354.233 329.607C355.412 329.607 356.508 333.818 356.85 337.074C358.029 347.772 350.566 358.306 353.313 362.753C354.763 365.112 357.038 363.307 361.153 366.115C362.237 366.846 367.637 370.739 367.884 377.321C368.073 382.77 363.664 392.655 362.827 393.493" fill="#9A4522"/>
<path d="M119.964 439.802C128.098 439.437 136.716 448.059 139.816 457.036C145.876 474.482 131.399 494.487 113.279 519.553C106.557 528.834 99.2863 537.705 91.5051 546.117C93.4827 548.969 95.6405 551.692 97.9655 554.268C102.033 558.786 108.976 566.488 120.223 571.667C128.551 575.451 137.643 577.248 146.783 576.916C151.935 579.275 151.864 580.808 151.817 581.115C151.57 582.837 146.995 584.017 143.082 583.792C137.541 583.486 134.381 580.419 133.085 581.693C132.2 582.554 132.943 584.642 133.403 585.939C134.617 589.01 136.549 591.744 139.038 593.913C143.647 598.631 147.809 605.037 146.925 606.016C145.876 607.195 137.258 601.12 134.476 599.044C132.049 597.32 129.759 595.411 127.626 593.335C125.893 591.625 124.938 590.445 124.773 590.563C124.396 590.846 129.489 597.641 134.393 607.726C136.244 611.583 135.006 611.678 134.393 612.114C133.368 612.857 129.442 608.21 119.857 597.358C118.018 595.281 116.863 593.312 116.486 593.512C115.767 593.913 118.844 601.521 122.651 608.044C124.054 610.486 125.705 612.763 127.261 615.122C129.053 617.847 127.945 617.776 127.744 617.988C127.214 618.519 123.748 615.24 120.105 611.878C114.022 606.24 111.122 601.486 110.768 601.722C110.415 601.958 120.848 615.051 119.02 616.879C118.03 617.882 113.892 615.405 111.947 614.001C109.07 611.766 106.813 608.829 105.392 605.473C102.445 599.054 100.886 592.083 100.818 585.019C94.5231 580.171 89.1474 576.538 85.3749 574.108C73.7393 566.594 67.6916 564.259 63.4829 556.603C61.9807 553.916 60.9481 550.992 60.4296 547.957C58.9088 538.521 63.2825 530.794 65.994 525.628C74.871 508.725 69.3184 512.511 80.8244 489.061C87.4846 475.152 95.8396 462.121 105.699 450.265C111.723 443.129 115.319 440.003 119.964 439.802Z" fill="#9A4522"/>
<path d="M124.384 505.693V506.696L124.278 505.87L124.384 505.693Z" fill="#F5A134"/>
<path d="M227.384 552.475C228.209 537.353 233.279 520.285 234.139 505.139L248.923 520.851C253.808 519.373 258.42 517.106 262.574 514.139C282.026 500.114 283.429 475.296 283.617 470.495C278.716 462.633 272.994 455.314 266.547 448.661C260.252 442.173 246.883 428.679 225.038 420.115C215.819 416.506 206.247 416.718 200.777 415.857C200.364 418.146 200.777 419.868 197.735 422.357C191.228 427.629 180.995 423.595 177.835 422.357C173.504 420.633 169.616 417.956 166.459 414.524C158.855 413.24 151.053 413.815 143.718 416.199C138.313 418.065 133.297 420.912 128.923 424.598C117.311 434.034 90.2911 461.318 56.1387 499.04C56.8475 502.17 57.9945 505.184 59.5457 507.993C71.7236 529.863 104.898 530.865 109.59 530.936L124.243 505.988V505.516V505.87L124.349 505.705V506.696L124.255 549.538L227.384 552.475ZM234.127 505.115L260.322 515.507C257.309 517.425 254.095 519.007 250.738 520.226L248.899 520.851L234.127 505.115Z" fill="#F5A134"/>
<path d="M250.773 520.167L248.934 520.792L234.163 505.103L260.357 515.495C257.342 517.396 254.128 518.963 250.773 520.167V520.167Z" fill="#F28C34"/>
<path d="M124.384 547.155C124.337 533.472 124.286 519.793 124.231 506.118V505.693V506.047L124.337 506.873L137.211 549.892" fill="#F28C34"/>
<path d="M194.199 359.014C193.02 359.344 192.643 361.019 192.419 362.057C192.277 362.729 191.605 365.784 193.315 367.011C193.622 367.229 193.974 367.376 194.345 367.441C194.716 367.506 195.097 367.488 195.46 367.389C196.792 366.999 197.276 365.501 197.488 364.853C197.759 364.098 197.844 363.288 197.735 362.493C197.626 361.699 197.327 360.942 196.863 360.288C196.722 360.123 195.46 358.672 194.199 359.014Z" fill="#050606"/>
<path d="M221.796 358.707C220.617 359.026 220.252 360.712 220.028 361.75C219.875 362.411 219.215 365.478 220.912 366.693C221.222 366.91 221.576 367.056 221.949 367.122C222.322 367.187 222.704 367.169 223.07 367.07C224.39 366.693 224.885 365.195 225.097 364.534C225.363 363.778 225.444 362.968 225.333 362.174C225.222 361.38 224.923 360.624 224.461 359.969C224.284 359.816 223.105 358.353 221.796 358.707Z" fill="#050606"/>
<path d="M220.358 352.172C221.831 352.172 224.201 352.172 224.637 354.012C224.932 355.322 226.995 354.767 226.641 353.458C226.477 352.868 226.186 352.321 225.789 351.854C225.392 351.388 224.898 351.013 224.342 350.757C223.097 350.186 221.721 349.958 220.358 350.096C220.083 350.096 219.819 350.206 219.624 350.4C219.43 350.595 219.32 350.859 219.32 351.134C219.32 351.41 219.43 351.674 219.624 351.868C219.819 352.063 220.083 352.172 220.358 352.172V352.172Z" fill="#050606"/>
<path d="M190.686 355.44C191.192 353.081 193.833 351.972 196.061 351.901C196.319 351.874 196.557 351.752 196.73 351.559C196.904 351.366 196.999 351.116 196.999 350.857C196.999 350.598 196.904 350.348 196.73 350.155C196.557 349.962 196.319 349.841 196.061 349.813C192.937 349.896 189.377 351.523 188.681 354.862C188.41 356.171 190.414 356.725 190.686 355.416V355.44Z" fill="#050606"/>
<path d="M207.685 364.251C207.685 369.123 208.121 374.395 212.294 377.509L211.917 376.082C210.125 378.221 207.755 379.797 205.091 380.623C203.818 381.024 204.36 383.042 205.645 382.64C208.837 381.681 211.653 379.757 213.709 377.132C213.845 376.893 213.882 376.611 213.814 376.345C213.746 376.078 213.577 375.849 213.344 375.705C209.807 373.11 209.807 368.191 209.807 364.251C209.807 363.976 209.698 363.712 209.503 363.517C209.308 363.322 209.045 363.213 208.769 363.213C208.494 363.213 208.23 363.322 208.036 363.517C207.841 363.712 207.732 363.976 207.732 364.251H207.685Z" fill="#692E15"/>
<path d="M193.22 384.316C198.391 388.597 204.865 390.989 211.575 391.098C211.833 391.071 212.071 390.949 212.244 390.756C212.418 390.563 212.514 390.313 212.514 390.054C212.514 389.795 212.418 389.545 212.244 389.352C212.071 389.159 211.833 389.038 211.575 389.01C205.413 388.901 199.466 386.729 194.682 382.841C193.668 381.98 192.194 383.443 193.22 384.316V384.316Z" fill="#692E15"/>
<path d="M192.878 383.584C192.383 388.208 194.988 393.705 199.786 394.955C204.184 396.135 210.703 395.309 212.683 390.65C213.202 389.47 211.41 388.361 210.892 389.6C209.347 393.139 204.254 393.835 200.812 393.009C196.639 392.006 194.529 387.595 194.918 383.572C195.059 382.239 192.984 382.251 192.831 383.572L192.878 383.584Z" fill="#692E15"/>
<path d="M224.402 380.234C226.153 380.234 227.573 378.814 227.573 377.061C227.573 375.309 226.153 373.888 224.402 373.888C222.65 373.888 221.23 375.309 221.23 377.061C221.23 378.814 222.65 380.234 224.402 380.234Z" fill="#EF8885"/>
<path d="M188.952 378.087C190.704 378.087 192.124 376.667 192.124 374.914C192.124 373.162 190.704 371.741 188.952 371.741C187.201 371.741 185.781 373.162 185.781 374.914C185.781 376.667 187.201 378.087 188.952 378.087Z" fill="#EF8885"/>
<path d="M188.339 311.937C191.017 313.134 193.442 314.832 195.483 316.939C198.914 320.477 199.574 323.367 204.148 327.814C205.787 329.418 209.229 333.181 210.573 333.995C216.538 337.628 219.061 335.812 223.482 338.902C226.181 340.789 229.482 346.864 230.838 350.934C231.027 351.488 231.864 354.071 232.206 353.965C232.547 353.859 231.876 351.866 232.665 350.214C233.455 348.563 232.547 341.662 233.632 340.66C235.99 338.407 234.74 330.209 231.805 324.252C227.62 315.735 220.417 312.338 216.915 310.687C210.95 307.879 205.881 307.608 200.045 307.301C195.313 306.818 190.534 307.117 185.899 308.186C178.708 310.054 172.178 313.885 167.037 319.25C163.653 322.789 158.572 328.192 158.784 335.127C158.784 335.93 156.851 343.007 159.126 346.05C159.61 346.699 161.684 349.483 164.443 349.436C165.74 349.436 165.74 348.787 167.025 348.716C168.852 348.622 171.74 354.354 172.377 358.978C172.754 362.01 177.093 355.204 177.965 355.322C180.323 355.628 185.109 350.745 186.441 348.327C187.773 345.909 186.677 344.446 188.115 342.087C188.952 340.73 190.249 340.034 192.831 338.702C197.334 336.342 198.183 337.015 199.668 335.304C201.378 333.346 202.333 330.091 201.496 327.814C201.129 326.971 200.553 326.236 199.822 325.679C197.464 323.438 197.947 323.131 194.198 318.543C192.937 316.903 190.956 314.603 188.339 311.937Z" fill="#050606"/>
<g clip-path="url(#clip1)">
<path d="M650.788 632.618C657.236 632.618 662.463 628.383 662.463 623.159C662.463 617.934 657.236 613.699 650.788 613.699C644.34 613.699 639.112 617.934 639.112 623.159C639.112 628.383 644.34 632.618 650.788 632.618Z" fill="#4F7FC1"/>
</g>
</g>
<defs>
<linearGradient id="paint0_linear" x1="41.5321" y1="236.94" x2="490.465" y2="236.94" gradientUnits="userSpaceOnUse">
<stop stop-color="#F7BD6D"/>
<stop offset="0.05" stop-color="#F1AC6B"/>
<stop offset="0.27" stop-color="#D96B64"/>
<stop offset="0.43" stop-color="#CB425F"/>
<stop offset="0.51" stop-color="#C4335E"/>
<stop offset="0.85" stop-color="#789BC7"/>
<stop offset="1" stop-color="#59C5F1"/>
</linearGradient>
<clipPath id="clip0">
<rect width="774" height="618" fill="white"/>
</clipPath>
<clipPath id="clip1">
<rect width="1567" height="971" fill="white" transform="translate(121 561)"/>
</clipPath>
</defs>
</svg>
