<svg width="1288" height="1164" viewBox="0 0 1288 1164" fill="none" xmlns="http://www.w3.org/2000/svg">
<circle cx="638.412" cy="537.2" r="488.333" transform="rotate(-5.9191 638.412 537.2)" stroke="#0086FF" stroke-width="2.02426" stroke-miterlimit="16" stroke-linecap="round" stroke-dasharray="30.36 40.49"/>
<circle cx="189.268" cy="482.785" r="189.268" fill="#F6DDFF"/>
<g filter="url(#filter0_d)">
<path d="M357 613.364C357 596.594 370.594 583 387.364 583H999.636C1016.41 583 1030 596.594 1030 613.364V641H357V613.364Z" fill="#FFF4EE"/>
</g>
<g filter="url(#filter1_d)">
<path d="M357 649H1030V1064.64C1030 1081.41 1016.41 1095 999.636 1095H387.364C370.594 1095 357 1081.41 357 1064.64V649Z" fill="#FFF4EE"/>
</g>
<circle cx="392" cy="614" r="9" fill="#D4145A"/>
<circle cx="425" cy="614" r="9" fill="#FFA825"/>
<circle cx="461" cy="614" r="9" fill="#55AF1B"/>
<path d="M1126.5 12.1455L1265.87 253.538H987.131L1126.5 12.1455Z" fill="#FF2883"/>
<g filter="url(#filter2_d)">
<path d="M694.32 163.965C694.32 147.195 707.914 133.601 724.684 133.601H1109.29C1126.06 133.601 1139.66 147.195 1139.66 163.965V182.183H694.32V163.965Z" fill="#FFF4EE"/>
</g>
<g filter="url(#filter3_d)">
<path d="M694.32 188.256H1139.66V429.142C1139.66 445.912 1126.06 459.506 1109.29 459.506H724.684C707.914 459.506 694.32 445.912 694.32 429.142V188.256Z" fill="#FFF4EE"/>
</g>
<circle cx="729.262" cy="157.954" r="7.41189" fill="#D4145A"/>
<circle cx="756.792" cy="157.954" r="7.41189" fill="#FFA825"/>
<circle cx="786.439" cy="157.954" r="7.41189" fill="#55AF1B"/>
<path d="M1076.9 1012.13H1105.24V1040.47H1076.9V1012.13Z" fill="#9DE96C"/>
<rect x="1099.17" y="795.533" width="153.843" height="153.843" fill="#9DE96C"/>
<path d="M1016.18 927.109H1074.88V985.813H1016.18V927.109Z" fill="#9DE96C"/>
<g filter="url(#filter4_d)">
<path d="M117.407 457.482C117.407 440.713 131.002 427.118 147.771 427.118H443.313C460.082 427.118 473.676 440.713 473.676 457.482V475.7H117.407V457.482Z" fill="#FFF4EE"/>
</g>
<g filter="url(#filter5_d)">
<path d="M117.407 483.797H473.676V712.538C473.676 729.308 460.082 742.902 443.313 742.902H147.771C131.002 742.902 117.407 729.308 117.407 712.538V483.797Z" fill="#FFF4EE"/>
</g>
<mask id="mask0" mask-type="alpha" maskUnits="userSpaceOnUse" x="117" y="334" width="337" height="409">
<path d="M119.431 336.027H451.41V712.538C451.41 728.19 438.721 740.878 423.07 740.878H147.771C132.12 740.878 119.431 728.19 119.431 712.538V336.027Z" fill="#FFF4EE" stroke="#EC297B" stroke-width="4.04851"/>
</mask>
<g mask="url(#mask0)">
<g clip-path="url(#clip0)">
<path d="M235.747 599.05C244.774 592.227 256.679 582.507 275.168 570.741C269.511 536.067 265.338 496.83 273.729 489.616C276.938 486.944 280.42 484.619 284.117 482.681C271.452 484.493 193.648 571.87 194.964 599.072C195.982 601.311 197.121 603.491 198.379 605.604C198.569 605.727 198.767 605.839 198.97 605.94C214.123 613.534 221.197 610.045 235.747 599.05Z" fill="#D36E3C"/>
<path d="M255.91 695.71C256.088 695.028 257.103 691.304 258.733 685.879C257.204 680.521 255.876 675.812 255.876 674.168C255.876 672.289 257.449 676.338 259.871 682.154C261.087 678.239 262.537 673.743 264.166 669.034C263.932 668.33 263.776 667.793 263.687 667.457C263.475 666.629 263.854 666.797 264.646 667.67C267.224 660.355 270.225 652.615 273.405 645.803C271.91 645.154 270.515 644.539 269.266 643.969C257.137 638.443 236.249 599.956 235.792 599.05C221.286 610.045 214.167 613.59 198.97 605.94C198.767 605.839 198.57 605.727 198.379 605.604C209.838 624.988 235.792 652.917 235.792 652.917C231.328 678.642 249.181 704.368 252.529 703.249C255.876 702.131 246.95 688.709 246.95 680.879C246.95 676.092 251.547 686.796 255.876 695.822L255.91 695.71Z" fill="#D36E3C"/>
<path d="M255.909 695.71C255.909 695.71 255.909 695.789 255.909 695.833C257.907 696.113 259.837 696.404 261.711 696.706C260.841 693.35 259.736 689.447 258.721 685.879C257.103 691.304 256.088 695.028 255.909 695.71Z" fill="#D36E3C"/>
<path d="M255.92 695.833C255.916 695.871 255.916 695.908 255.92 695.945C258.643 701.627 261.254 706.605 262.548 706.605C263.842 706.605 263.106 702.254 261.7 696.706C259.848 696.404 257.917 696.113 255.92 695.833Z" fill="#D36E3C"/>
<path d="M259.87 682.154C259.468 683.463 259.078 684.716 258.754 685.879C259.769 689.447 260.874 693.306 261.744 696.706C263.541 696.997 265.293 697.299 266.978 697.612C264.343 692.586 261.97 687.427 259.87 682.154V682.154Z" fill="#B74016"/>
<path d="M336.961 755.024C336.85 744.745 336.47 737.755 335.734 735.518C319.499 726.861 319.577 709.065 273.874 699.021C275.213 704.524 275.313 707.812 272.613 705.497C270.315 703.213 268.404 700.569 266.956 697.668C265.271 697.355 263.519 697.053 261.723 696.762C263.129 702.354 263.888 706.66 262.571 706.66C261.254 706.66 258.666 701.683 255.943 696.001C257.148 707.186 277.378 892.711 280.044 923.906C283.135 960.09 277.98 1046.7 279.81 1063.14C279.838 1064.02 280.047 1064.9 280.424 1065.7C281.741 1067.64 283.636 1069.12 285.839 1069.92C288.043 1070.73 290.442 1070.81 292.697 1070.17C292.697 1070.17 292.887 1069.55 293.255 1068.39C297.562 1054.41 326.227 962.942 326.908 957.405C332.375 912.621 337.463 800.983 336.961 755.024Z" fill="#D36E3C"/>
<path d="M264.167 669.034C262.538 673.743 261.087 678.239 259.871 682.154C261.964 687.426 264.329 692.586 266.956 697.612C269.377 698.059 271.676 698.518 273.874 699.01C271.642 689.782 265.952 674.47 264.167 669.034Z" fill="#D36E3C"/>
<path d="M264.646 667.67C264.479 668.128 264.322 668.587 264.166 669.034C265.951 674.47 271.642 689.827 273.874 699.01C319.621 709.077 319.499 726.849 335.734 735.507C336.582 735.954 337.485 736.39 338.445 736.793C359.645 745.741 384.193 701.001 392.215 688.463C393.733 686.103 394.19 682.725 393.934 678.81C392.818 661.954 378.614 635.01 378.614 635.01C375.266 640.602 323.94 656.261 286.002 627.18C281.762 630.122 277.422 637.247 273.405 645.792C286.616 651.541 307.415 660.075 299.392 664.091C290.466 668.564 278.192 655.143 277.076 659.617C275.96 664.091 293.813 698.764 286.002 693.171C279.642 688.664 268.105 671.473 264.646 667.67Z" fill="#B74016"/>
<path d="M273.405 645.803C270.214 652.615 267.223 660.343 264.646 667.67C268.105 671.473 279.642 688.63 286.002 693.183C293.813 698.775 275.96 664.102 277.076 659.628C278.192 655.154 290.465 668.576 299.392 664.102C307.414 660.086 286.616 651.552 273.405 645.803Z" fill="#D36E3C"/>
<path d="M266.956 697.612C268.404 700.513 270.315 703.157 272.613 705.441C275.313 707.757 275.213 704.468 273.874 698.965C271.676 698.518 269.377 698.059 266.956 697.612Z" fill="#D36E3C"/>
<path d="M273.729 489.571C265.338 496.785 269.511 535.978 275.168 570.696C323.471 539.982 284.095 482.636 284.095 482.636C280.406 484.576 276.931 486.901 273.729 489.571V489.571Z" fill="#D36E3C"/>
<path d="M275.167 570.741C280.032 600.627 286.002 627.191 286.002 627.191C323.939 656.272 375.266 640.613 378.613 635.021C381.258 630.603 389.492 583.491 393.364 557.352C377.453 540.821 363.985 523.797 361.876 511.986C359.221 497.065 358.529 486.719 358.607 479.963C335.566 489.84 321.786 469.695 321.786 469.695L321.853 469.606L321.696 469.483C321.696 469.483 300.496 473.89 284.105 482.681C284.116 482.681 323.47 540.027 275.167 570.741Z" fill="#D36E3C"/>
<path d="M311.275 389.096C303.743 393.761 302.17 404.901 307.749 413.972C312.803 422.17 321.964 425.884 329.25 423.065C329.248 423.039 329.248 423.013 329.25 422.987H329.552C329.807 422.898 330.053 422.786 330.288 422.651C329.523 420.018 328.919 417.34 328.48 414.632C327.16 406.704 327.41 398.594 329.217 390.763C323.638 386.669 316.664 385.775 311.275 389.096Z" fill="#D36E3C"/>
<path d="M321.864 469.606L321.797 469.695C321.797 469.695 335.566 489.828 358.619 479.963C358.619 472.548 359.556 469.483 359.556 469.483C359.556 468.7 359.645 467.883 359.746 467.022C359.746 467.022 335.778 457.112 331.07 425.112C330.824 424.385 330.601 423.658 330.378 422.875C330.099 422.875 329.82 422.875 329.552 422.875C329.462 422.929 329.364 422.966 329.262 422.987C329.374 424.9 331.494 457.873 321.864 469.606Z" fill="#D36E3C"/>
<path d="M329.217 390.752C327.409 398.586 327.159 406.701 328.481 414.632C328.917 417.332 329.517 420.002 330.278 422.629C330.704 422.436 331.118 422.215 331.516 421.969C339.048 417.305 340.621 406.176 335.042 397.105C333.532 394.627 331.553 392.469 329.217 390.752Z" fill="#D36E3C"/>
<path d="M330.277 422.618L330.367 422.909C344.805 422.842 362.178 455.412 362.457 455.916C364.794 456.21 367.161 456.169 369.487 455.793C383.166 453.589 393.13 440.357 395.752 423.166C392.652 423.901 389.389 423.391 386.659 421.745C380.332 417.808 379.015 408.469 383.713 400.897C385.839 397.357 389.13 394.672 393.019 393.302C386.224 373.247 370.468 360.105 354.579 362.655C342.116 364.668 332.754 375.831 329.217 390.752C331.552 392.466 333.53 394.62 335.042 397.094C340.621 406.165 339.047 417.294 331.516 421.958C331.117 422.204 330.704 422.425 330.277 422.618V422.618Z" fill="#D36E3C"/>
<path d="M362.457 455.916C362.178 455.412 344.805 422.842 330.366 422.909C330.589 423.658 330.812 424.385 331.058 425.146C336.827 442.18 349.112 454.282 362.457 455.916Z" fill="#D36E3C"/>
<path d="M335.734 735.518C336.47 737.755 336.849 744.745 336.961 755.024C342.116 776.041 371.551 896.928 371.551 919.376C371.551 942.026 386.994 1036.44 390.319 1053.09C391.793 1052.62 393.337 1052.42 394.882 1052.48H394.983C394.983 1052.48 399.323 1053.16 405.549 1054.29C407.167 1039.75 421.717 905.608 414.331 865.431C406.52 822.928 394.012 678.821 394.012 678.821H393.945C394.202 682.736 393.744 686.114 392.227 688.474C384.193 700.967 359.645 745.707 338.445 736.759C337.485 736.401 336.615 735.965 335.734 735.518Z" fill="#D36E3C"/>
<path d="M331.036 425.112C335.745 457.112 359.713 467.022 359.713 467.022C360.164 463.226 361.078 459.5 362.435 455.927V455.927C349.112 454.282 336.827 442.18 331.036 425.112Z" fill="#B74016"/>
<path d="M358.608 479.963C358.608 486.674 359.221 497.065 361.877 511.986C363.986 523.842 377.498 540.821 393.365 557.352C394.391 550.44 395.117 545.049 395.351 542.185C396.467 528.763 361.877 478.431 361.877 478.431H360.594C360.717 478.766 360.795 478.945 360.795 478.945C360.047 479.315 359.322 479.65 358.608 479.963Z" fill="#D36E3C"/>
<path d="M360.593 478.386C359.69 475.495 359.334 472.46 359.545 469.438C359.545 469.438 358.652 472.503 358.607 479.918C359.321 479.605 360.058 479.27 360.839 478.901C360.794 478.945 360.716 478.766 360.593 478.386Z" fill="#D36E3C"/>
<path d="M383.679 400.897C378.982 408.469 380.332 417.808 386.625 421.745C389.364 423.4 392.642 423.91 395.752 423.166V423.166C396.701 416.751 396.652 410.227 395.607 403.827C395.039 400.251 394.169 396.73 393.007 393.302C389.111 394.667 385.811 397.353 383.679 400.897V400.897Z" fill="#D36E3C"/>
<path d="M392.986 393.302C394.147 396.73 395.017 400.251 395.585 403.827C396.638 410.226 396.694 416.75 395.753 423.166C398.001 422.617 400.118 421.626 401.98 420.249C403.842 418.872 405.412 417.137 406.598 415.146C411.296 407.563 409.946 398.235 403.653 394.297C402.061 393.345 400.277 392.762 398.431 392.59C396.586 392.418 394.725 392.661 392.986 393.302V393.302Z" fill="#D36E3C"/>
</g>
<g clip-path="url(#clip1)">
<path d="M380.725 614.649C374.808 612.331 362.793 625.54 283.77 610.698C283.77 610.698 254.075 637.939 254.075 723.727C254.075 794.512 260.63 1024.18 257.501 1036.78C257.501 1036.78 298.674 1054.85 322.602 1045.69C322.602 1045.69 354.204 821.422 333.418 745.819C333.418 745.819 372.924 1003.56 369.806 1018.45C369.806 1018.45 406.194 1044.8 437.385 1003.6C437.385 1003.56 423.109 631.249 380.725 614.649Z" fill="#FE9901"/>
</g>
<path d="M236.335 658.111C236.335 685.375 254.498 711.844 259.039 710.676C263.58 709.508 251.471 695.491 251.471 687.314C251.471 679.137 268.121 714.18 272.661 714.18C277.202 714.18 263.58 684.978 263.58 680.305C263.58 675.633 275.688 706.003 286.283 713.012C296.879 720.021 275.688 677.969 274.175 673.297C272.661 668.624 293.851 694.322 304.446 700.163C315.041 706.003 290.824 669.792 292.338 665.12C293.851 660.448 310.501 674.465 322.609 669.792C334.718 665.12 298.392 654.607 281.743 648.767C281.743 648.767 268.121 640.59 252.985 644.094C237.849 647.599 236.335 656.943 236.335 658.111Z" fill="#D36E3C"/>
<g clip-path="url(#clip2)">
<path d="M366.265 412.912C366.379 417.87 367.771 422.637 370.369 426.83C370.369 426.384 370.369 425.938 370.369 425.492C368.759 427.796 366.15 429.07 363.531 429.76C361.91 430.185 362.596 432.754 364.217 432.319C367.543 431.438 370.588 429.718 372.604 426.83C372.864 426.459 372.832 425.864 372.604 425.492C370.245 421.692 368.956 417.414 368.852 412.912C368.821 411.203 366.223 411.203 366.265 412.912Z" fill="#712800"/>
<path d="M354.272 437.213C357.712 440.833 362.825 442.415 367.689 442.128C369.352 442.033 369.362 439.379 367.689 439.474C363.48 439.718 359.094 438.476 356.112 435.334C354.937 434.113 353.098 435.992 354.272 437.213Z" fill="#712800"/>
<path d="M354.231 407.201C353.638 407.073 353.098 407.477 352.692 407.785C350.822 409.197 350.936 411.914 350.905 412.265C350.739 413.847 351.227 415.832 352.744 416.214C353.763 416.479 354.864 415.641 355.415 414.908C356.122 413.953 356.08 412.912 356.039 411.787C356.039 411.553 355.862 407.551 354.231 407.201Z" fill="black"/>
<path d="M382.321 407.201C381.729 407.073 381.189 407.477 380.783 407.785C378.913 409.197 379.027 411.914 378.996 412.265C378.83 413.847 379.318 415.832 380.835 416.214C381.854 416.479 382.955 415.641 383.506 414.908C384.213 413.953 384.182 412.902 384.14 411.787C384.119 411.553 383.943 407.551 382.321 407.201Z" fill="black"/>
<path d="M348.13 401.277C348.255 401.033 348.38 400.799 348.525 400.566C348.577 400.491 348.629 400.417 348.671 400.343C348.847 400.077 348.484 400.555 348.691 400.311C348.806 400.183 348.91 400.045 349.024 399.929C349.18 399.769 349.346 399.621 349.512 399.472C349.71 399.313 349.471 399.493 349.585 399.419C349.668 399.366 349.741 399.302 349.824 399.26C350.011 399.132 350.198 399.026 350.396 398.92C350.479 398.878 350.552 398.846 350.635 398.803C350.718 398.771 350.697 398.782 350.562 398.846C350.604 398.825 350.656 398.803 350.708 398.793C351.03 398.676 351.362 398.58 351.705 398.506C351.768 398.485 351.84 398.474 351.913 398.464C352.204 398.41 351.612 398.495 351.892 398.464C352.027 398.453 352.173 398.432 352.308 398.432C352.692 398.41 353.087 398.421 353.472 398.464C354.147 398.548 354.792 397.795 354.771 397.137C354.729 396.351 354.189 395.894 353.472 395.809C350.396 395.449 347.278 397.094 345.885 399.939C345.584 400.555 345.709 401.404 346.353 401.755C346.945 402.073 347.808 401.935 348.13 401.277Z" fill="black"/>
<path d="M381.271 397.614C381.375 397.582 381.49 397.561 381.593 397.54C381.708 397.519 381.895 397.54 381.51 397.551C381.562 397.551 381.625 397.54 381.677 397.54C381.905 397.519 382.144 397.529 382.373 397.551C382.56 397.572 382.248 397.54 382.227 397.529C382.259 397.551 382.383 397.561 382.425 397.561C382.529 397.582 382.643 397.614 382.747 397.646C382.851 397.678 382.955 397.71 383.059 397.752C383.163 397.795 383.319 397.901 382.996 397.72C383.038 397.731 383.1 397.752 383.142 397.774C383.339 397.869 383.537 397.986 383.713 398.113C383.755 398.145 383.797 398.188 383.849 398.209C383.547 398.018 383.703 398.092 383.797 398.166C383.88 398.241 383.963 398.315 384.036 398.4C384.119 398.485 384.192 398.559 384.264 398.644C384.285 398.676 384.431 398.856 384.285 398.665C384.15 398.485 384.275 398.655 384.295 398.697C384.368 398.803 384.431 398.909 384.483 399.016C384.534 399.122 384.711 399.515 384.534 399.101C384.67 399.43 384.815 399.706 385.127 399.897C385.428 400.067 385.844 400.141 386.156 400.035C386.467 399.929 386.769 399.727 386.935 399.43C387.091 399.132 387.195 398.729 387.07 398.41C386.79 397.731 386.447 397.126 385.937 396.585C385.522 396.139 385.013 395.756 384.462 395.491C383.256 394.886 381.884 394.684 380.585 395.056C379.931 395.247 379.463 396.001 379.681 396.691C379.889 397.37 380.565 397.816 381.271 397.614Z" fill="black"/>
</g>
<circle r="2.95662" transform="matrix(-1 0 0 1 351.642 424.431)" fill="#FFA9A9"/>
<circle r="2.95662" transform="matrix(-1 0 0 1 384.166 427.388)" fill="#FFA9A9"/>
</g>
<circle cx="152.349" cy="452.748" r="7.41189" fill="#D4145A"/>
<circle cx="179.879" cy="452.748" r="7.41189" fill="#FFA825"/>
<circle cx="209.526" cy="452.748" r="7.41189" fill="#55AF1B"/>
<mask id="mask1" mask-type="alpha" maskUnits="userSpaceOnUse" x="659" y="133" width="447" height="327">
<path d="M690.272 134.613H1074.88C1091.09 134.613 1104.23 147.754 1104.23 163.965V181.171H660.92V163.965C660.92 147.754 674.062 134.613 690.272 134.613Z" fill="#0086FF" stroke="#0086FF" stroke-width="2.02426"/>
<path d="M660.92 189.268H1104.23V429.142C1104.23 445.353 1091.09 458.494 1074.88 458.494H690.272C674.061 458.494 660.92 445.353 660.92 429.142V189.268Z" fill="#0086FF" stroke="#0086FF" stroke-width="2.02426"/>
<circle cx="694.849" cy="157.954" r="7.41189" fill="#FFF4EE"/>
<circle cx="722.38" cy="157.954" r="7.41189" fill="#FFF4EE"/>
<circle cx="752.027" cy="157.954" r="7.41189" fill="#FFF4EE"/>
</mask>
<g mask="url(#mask1)">
<g clip-path="url(#clip3)">
<path d="M915.213 257.96C914.716 255.999 914.898 253.931 915.729 252.082C916.561 250.233 917.995 248.707 919.806 247.745L919.956 247.676C923.731 245.815 914.854 223.523 933.826 221.397C935.906 221.185 937.853 220.295 939.358 218.871C942.114 216.246 946.637 212.034 949.912 209.478C952.908 207.166 957.192 209.282 960.457 212.005C961.799 213.143 963.442 213.887 965.196 214.15C966.95 214.414 968.744 214.186 970.372 213.493C974.366 211.77 979.809 211.887 983.293 221.476C983.979 223.477 985.366 225.174 987.208 226.265C988.951 227.224 990.867 227.843 992.849 228.087C999.839 229.067 1011.82 246.697 1007.83 261.388C1003.83 276.08 1011.82 267.265 1019.81 280.977C1027.8 294.689 1021.81 332.888 1022.81 340.723C1023.8 348.559 1026.8 358.353 1019.81 362.271C1012.82 366.189 1005.83 380.88 1003.83 385.777C1002.58 388.873 968.415 397.129 954.905 357.374C948.914 339.744 930.76 326.031 919.956 301.545C915.063 290.517 918.608 272.691 915.213 257.96Z" fill="#A40045"/>
</g>
<g clip-path="url(#clip4)">
<path d="M1044.92 388.779C1038.74 384.108 1030.59 377.453 1017.93 369.397C1021.8 345.658 1024.66 318.794 1018.91 313.855C1016.72 312.026 1014.33 310.434 1011.8 309.107C1020.47 310.348 1073.74 370.17 1072.84 388.794C1072.14 390.327 1071.36 391.82 1070.5 393.266C1070.37 393.35 1070.24 393.427 1070.1 393.496C1059.72 398.696 1054.88 396.307 1044.92 388.779Z" fill="#FFB88F"/>
<path d="M1031.11 454.958C1030.99 454.491 1030.3 451.941 1029.18 448.227C1030.23 444.559 1031.14 441.335 1031.14 440.209C1031.14 438.922 1030.06 441.694 1028.4 445.677C1027.57 442.996 1026.58 439.918 1025.46 436.694C1025.62 436.212 1025.73 435.844 1025.79 435.614C1025.93 435.048 1025.68 435.162 1025.13 435.76C1023.37 430.751 1021.31 425.452 1019.14 420.789C1020.16 420.344 1021.11 419.923 1021.97 419.533C1030.27 415.75 1044.57 389.399 1044.89 388.779C1054.82 396.307 1059.69 398.734 1070.1 393.496C1070.24 393.427 1070.37 393.35 1070.5 393.266C1062.66 406.537 1044.89 425.659 1044.89 425.659C1047.94 443.272 1035.72 460.885 1033.43 460.119C1031.14 459.353 1037.25 450.164 1037.25 444.804C1037.25 441.526 1034.1 448.855 1031.14 455.034L1031.11 454.958Z" fill="#FFB88F"/>
<path d="M1031.11 454.958C1031.11 454.958 1031.11 455.011 1031.11 455.042C1029.75 455.233 1028.43 455.433 1027.14 455.639C1027.74 453.342 1028.49 450.669 1029.19 448.227C1030.3 451.941 1030.99 454.491 1031.11 454.958Z" fill="#FFB88F"/>
<path d="M1031.11 455.042C1031.11 455.067 1031.11 455.093 1031.11 455.119C1029.24 459.009 1027.46 462.417 1026.57 462.417C1025.68 462.417 1026.19 459.438 1027.15 455.639C1028.42 455.433 1029.74 455.233 1031.11 455.042Z" fill="#FFB88F"/>
<path d="M1028.4 445.677C1028.68 446.573 1028.94 447.43 1029.17 448.227C1028.47 450.67 1027.71 453.311 1027.12 455.639C1025.89 455.839 1024.69 456.045 1023.54 456.26C1025.34 452.819 1026.96 449.286 1028.4 445.677V445.677Z" fill="#C55832"/>
<path d="M975.622 495.567C975.699 488.53 975.958 483.744 976.462 482.212C987.578 476.285 987.524 464.101 1018.82 457.225C1017.9 460.992 1017.83 463.244 1019.68 461.658C1021.25 460.095 1022.56 458.284 1023.55 456.298C1024.7 456.084 1025.9 455.877 1027.13 455.678C1026.17 459.507 1025.65 462.455 1026.55 462.455C1027.46 462.455 1029.23 459.047 1031.09 455.157C1030.27 462.815 1016.42 589.835 1014.59 611.193C1012.47 635.966 1016 695.26 1014.75 706.517C1014.73 707.124 1014.59 707.721 1014.33 708.271C1013.43 709.601 1012.13 710.613 1010.62 711.163C1009.11 711.713 1007.47 711.773 1005.93 711.334C1005.93 711.334 1005.8 710.905 1005.55 710.116C1002.6 700.544 982.971 637.918 982.505 634.128C978.762 603.466 975.278 527.033 975.622 495.567Z" fill="#FFB88F"/>
<path d="M1025.46 436.694C1026.58 439.918 1027.57 442.996 1028.4 445.677C1026.97 449.286 1025.35 452.819 1023.55 456.26C1021.89 456.566 1020.32 456.88 1018.82 457.217C1020.34 450.899 1024.24 440.416 1025.46 436.694Z" fill="#FFB88F"/>
<path d="M1025.13 435.76C1025.25 436.074 1025.35 436.388 1025.46 436.694C1024.24 440.416 1020.34 450.93 1018.82 457.217C987.494 464.109 987.578 476.277 976.463 482.204C975.883 482.511 975.264 482.809 974.607 483.085C960.092 489.211 943.286 458.58 937.793 449.996C936.754 448.38 936.441 446.067 936.616 443.387C937.38 431.846 947.105 413.399 947.105 413.399C949.397 417.228 984.538 427.949 1010.51 408.038C1013.41 410.052 1016.39 414.93 1019.14 420.781C1010.09 424.717 995.852 430.56 1001.34 433.309C1007.46 436.372 1015.86 427.183 1016.62 430.246C1017.39 433.309 1005.16 457.048 1010.51 453.219C1014.87 450.133 1022.77 438.363 1025.13 435.76Z" fill="#C55832"/>
<path d="M1019.14 420.789C1021.32 425.452 1023.37 430.744 1025.13 435.76C1022.76 438.363 1014.87 450.11 1010.51 453.227C1005.16 457.056 1017.39 433.317 1016.62 430.254C1015.86 427.191 1007.45 436.38 1001.34 433.317C995.851 430.568 1010.09 424.725 1019.14 420.789Z" fill="#FFB88F"/>
<path d="M1023.55 456.26C1022.56 458.246 1021.25 460.056 1019.68 461.62C1017.83 463.205 1017.9 460.954 1018.82 457.186C1020.32 456.88 1021.89 456.566 1023.55 456.26Z" fill="#FFB88F"/>
<path d="M1018.91 313.824C1024.66 318.764 1021.8 345.597 1017.93 369.366C984.858 348.338 1011.82 309.076 1011.82 309.076C1014.34 310.404 1016.72 311.996 1018.91 313.824V313.824Z" fill="#FFB88F"/>
<path d="M1017.93 369.397C1014.6 389.859 1010.51 408.046 1010.51 408.046C984.537 427.957 949.396 417.236 947.105 413.407C945.294 410.382 939.656 378.127 937.005 360.231C947.899 348.913 957.12 337.257 958.564 329.171C960.382 318.955 960.855 311.872 960.802 307.246C976.577 314.008 986.012 300.217 986.012 300.217L985.966 300.155L986.073 300.071C986.073 300.071 1000.59 303.088 1011.81 309.107C1011.8 309.107 984.858 348.369 1017.93 369.397Z" fill="#FFB88F"/>
<path d="M993.208 245.034C998.364 248.227 999.442 255.855 995.622 262.065C992.161 267.678 985.889 270.221 980.901 268.291C980.902 268.273 980.902 268.255 980.901 268.237H980.695C980.52 268.177 980.351 268.1 980.19 268.008C980.715 266.204 981.128 264.371 981.428 262.517C982.332 257.089 982.161 251.536 980.924 246.175C984.743 243.372 989.518 242.76 993.208 245.034Z" fill="#FFB88F"/>
<path d="M985.959 300.155L986.004 300.216C986.004 300.216 976.577 314 960.795 307.246C960.795 302.169 960.153 300.071 960.153 300.071C960.153 299.535 960.092 298.976 960.023 298.386C960.023 298.386 976.432 291.601 979.656 269.692C979.824 269.195 979.977 268.697 980.13 268.161C980.321 268.161 980.512 268.161 980.695 268.161C980.756 268.197 980.824 268.223 980.894 268.237C980.817 269.547 979.366 292.122 985.959 300.155Z" fill="#FFB88F"/>
<path d="M980.924 246.167C982.162 251.531 982.333 257.087 981.428 262.517C981.13 264.365 980.719 266.194 980.198 267.992C979.906 267.86 979.623 267.709 979.35 267.54C974.193 264.347 973.116 256.728 976.936 250.517C977.97 248.821 979.325 247.343 980.924 246.167Z" fill="#FFB88F"/>
<path d="M980.198 267.985L980.137 268.184C970.251 268.138 958.357 290.437 958.166 290.782C956.566 290.984 954.945 290.955 953.353 290.698C943.987 289.189 937.165 280.13 935.37 268.36C937.493 268.863 939.727 268.514 941.596 267.387C945.928 264.692 946.829 258.298 943.613 253.113C942.157 250.69 939.904 248.851 937.242 247.914C941.894 234.183 952.681 225.185 963.559 226.931C972.092 228.31 978.502 235.952 980.924 246.168C979.325 247.341 977.971 248.816 976.936 250.51C973.116 256.72 974.193 264.34 979.35 267.533C979.623 267.701 979.906 267.852 980.198 267.985V267.985Z" fill="#FFB88F"/>
<path d="M958.167 290.782C958.358 290.438 970.252 268.138 980.138 268.184C979.985 268.697 979.832 269.195 979.664 269.715C975.715 281.378 967.304 289.664 958.167 290.782Z" fill="#FFB88F"/>
<path d="M976.463 482.212C975.958 483.744 975.699 488.53 975.622 495.567C972.093 509.956 951.94 592.722 951.94 608.091C951.94 623.598 941.367 688.238 939.091 699.64C938.082 699.319 937.024 699.176 935.966 699.219H935.898C935.898 699.219 932.926 699.686 928.663 700.46C927.556 690.505 917.594 598.664 922.651 571.157C927.999 542.058 936.562 443.395 936.562 443.395H936.608C936.432 446.075 936.746 448.387 937.785 450.003C943.285 458.557 960.092 489.188 974.606 483.062C975.263 482.817 975.859 482.518 976.463 482.212Z" fill="#FFB88F"/>
<path d="M979.679 269.692C976.455 291.601 960.046 298.386 960.046 298.386C959.737 295.787 959.111 293.236 958.182 290.79V290.79C967.303 289.664 975.714 281.378 979.679 269.692Z" fill="#C55832"/>
<path d="M960.802 307.246C960.802 311.841 960.382 318.955 958.564 329.171C957.12 337.288 947.868 348.912 937.005 360.231C936.303 355.498 935.806 351.807 935.646 349.847C934.882 340.657 958.564 306.197 958.564 306.197H959.442C959.358 306.427 959.305 306.549 959.305 306.549C959.816 306.802 960.313 307.032 960.802 307.246Z" fill="#FFB88F"/>
<path d="M959.442 306.167C960.061 304.187 960.304 302.11 960.16 300.04C960.16 300.04 960.771 302.139 960.802 307.216C960.313 307.001 959.809 306.772 959.274 306.519C959.304 306.55 959.358 306.427 959.442 306.167Z" fill="#FFB88F"/>
<path d="M960.16 300.04C960.305 302.11 960.061 304.187 959.442 306.167H958.564C958.564 306.167 934.882 340.627 935.646 349.816C935.806 351.738 936.303 355.468 937.006 360.2C919.107 378.816 896.685 396.529 896.685 396.529C878.351 384.039 884.164 368.195 886.189 363.922C886.525 363.217 886.754 362.834 886.754 362.834C927.243 308.464 960.16 300.04 960.16 300.04Z" fill="#FFB88F"/>
<path d="M943.637 253.113C946.853 258.298 945.929 264.692 941.62 267.387C939.745 268.52 937.501 268.87 935.371 268.36V268.36C934.722 263.968 934.755 259.501 935.47 255.12C935.86 252.671 936.455 250.261 937.25 247.914C939.918 248.848 942.177 250.687 943.637 253.113V253.113Z" fill="#FFB88F"/>
<path d="M937.265 247.914C936.47 250.261 935.875 252.671 935.485 255.12C934.765 259.501 934.726 263.967 935.371 268.36C933.832 267.984 932.382 267.305 931.108 266.363C929.833 265.42 928.758 264.232 927.945 262.869C924.729 257.677 925.654 251.291 929.962 248.595C931.052 247.943 932.273 247.544 933.537 247.426C934.8 247.308 936.074 247.475 937.265 247.914V247.914Z" fill="#FFB88F"/>
<path d="M896.685 396.529C896.685 396.529 879.741 420.75 832.514 326.077C831.751 324.545 828.695 321.482 828.695 321.482C802.721 315.356 798.901 295.446 799.665 293.148C800.429 290.851 810.36 303.869 813.416 303.869C816.472 303.869 798.901 284.725 801.193 281.661C803.485 278.598 817.236 300.04 818.764 300.04C820.292 300.04 805.777 274.004 807.305 272.472C808.833 270.941 822.583 296.211 824.875 293.914C827.167 291.617 818 280.13 816.472 270.175C814.944 260.22 835.57 294.68 837.098 295.446C838.626 296.211 837.098 276.301 842.446 279.364C847.793 282.427 844.737 314.59 844.737 314.59C850.849 317.653 886.189 363.922 886.189 363.922C884.187 368.195 878.328 384.069 896.685 396.529Z" fill="#FFB88F"/>
</g>
<g clip-path="url(#clip5)">
<path d="M945.66 399.459C949.71 397.872 957.936 406.916 1012.04 396.754C1012.04 396.754 1032.37 415.405 1032.37 474.139C1032.37 522.603 1027.88 679.843 1030.02 688.473C1030.02 688.473 1001.84 700.847 985.453 694.57C985.453 694.57 963.817 541.027 978.048 489.265C978.048 489.265 951 665.726 953.135 675.919C953.135 675.919 928.222 693.96 906.867 665.758C906.867 665.726 916.641 410.824 945.66 399.459Z" fill="#388F00"/>
</g>
<path d="M988.216 300.801C988.216 300.801 966.508 320.973 958.159 300.801C958.159 300.801 921.006 301.221 890.95 348.289C890.95 348.289 885.94 378.548 918.501 391.155L933.53 377.707C933.53 377.707 933.53 415.53 939.374 425.616C945.218 435.702 976.944 451.671 1023.7 423.094L1025.37 382.75L1040.4 400.401C1040.4 400.401 1077.13 392.836 1082.98 371.824C1082.98 371.866 1021.19 288.656 988.216 300.801Z" fill="#FF7193"/>
<path d="M1024.95 382.33L1017.15 426.86L1023.28 422.674L1024.95 382.33Z" fill="#D4145A"/>
<path d="M911.813 388.045L933.112 378.127L918.918 391.575L911.813 388.045Z" fill="#D4145A"/>
<path d="M1044.52 429.216C1044.52 447.882 1032.08 466.004 1028.97 465.204C1025.86 464.404 1034.15 454.807 1034.15 449.209C1034.15 443.611 1022.75 467.603 1019.65 467.603C1016.54 467.603 1025.86 447.61 1025.86 444.411C1025.86 441.212 1017.57 462.005 1010.32 466.804C1003.07 471.602 1017.57 442.811 1018.61 439.612C1019.65 436.413 1005.14 454.008 997.884 458.006C990.63 462.005 1007.21 437.213 1006.17 434.014C1005.14 430.815 993.739 440.412 985.449 437.213C977.159 434.014 1002.03 426.817 1013.43 422.818C1013.43 422.818 1022.75 417.22 1033.12 419.619C1043.48 422.018 1044.52 428.416 1044.52 429.216Z" fill="#FFB88F"/>
<path d="M932.077 259.444C932.077 259.444 933.714 251.234 937.447 248.884C941.179 246.534 944.061 248.375 945.749 249.379C947.437 250.383 952.181 252.052 954.558 250.039C956.935 248.025 959.312 246.011 961.333 248.356C963.354 250.701 966.065 250.028 967.42 249.692C969.334 249.517 971.26 249.515 973.173 249.686C973.173 249.686 970.862 234.589 972.55 235.593C972.55 235.593 976.964 246.662 976.608 251.021C976.252 255.38 976.852 268.095 976.852 268.095C976.852 268.095 982.351 248.936 982.265 246.98C981.978 240.461 977.457 224.292 958.713 226.218C937.878 228.361 931.078 255.421 932.077 259.444Z" fill="#A40045"/>
<g clip-path="url(#clip6)">
<path d="M955.559 261.34C955.481 264.734 954.527 267.997 952.748 270.868C952.748 270.563 952.748 270.258 952.748 269.953C953.851 271.53 955.637 272.402 957.43 272.875C958.54 273.165 958.07 274.924 956.96 274.626C954.684 274.023 952.599 272.845 951.219 270.868C951.041 270.614 951.062 270.207 951.219 269.953C952.834 267.351 953.716 264.421 953.787 261.34C953.808 260.169 955.587 260.169 955.559 261.34Z" fill="#A04400"/>
<path d="M963.77 277.977C961.415 280.456 957.915 281.539 954.585 281.342C953.446 281.277 953.439 279.46 954.585 279.525C957.466 279.693 960.469 278.842 962.511 276.691C963.315 275.855 964.574 277.141 963.77 277.977Z" fill="#A04400"/>
<path d="M963.799 257.429C964.205 257.342 964.575 257.618 964.852 257.829C966.133 258.796 966.055 260.656 966.076 260.896C966.19 261.979 965.855 263.338 964.817 263.6C964.119 263.782 963.365 263.208 962.988 262.706C962.504 262.052 962.533 261.34 962.561 260.569C962.561 260.409 962.682 257.669 963.799 257.429Z" fill="black"/>
<path d="M944.567 257.429C944.972 257.342 945.342 257.618 945.62 257.829C946.9 258.796 946.822 260.656 946.844 260.896C946.957 261.979 946.623 263.338 945.584 263.6C944.887 263.782 944.133 263.208 943.756 262.706C943.272 262.052 943.293 261.332 943.322 260.569C943.336 260.409 943.457 257.669 944.567 257.429Z" fill="black"/>
<path d="M967.975 253.373C967.89 253.206 967.804 253.046 967.705 252.886C967.669 252.835 967.633 252.785 967.605 252.734C967.484 252.552 967.733 252.879 967.591 252.712C967.513 252.625 967.441 252.53 967.363 252.45C967.256 252.341 967.143 252.239 967.029 252.138C966.894 252.029 967.057 252.152 966.979 252.101C966.922 252.065 966.872 252.021 966.815 251.992C966.687 251.905 966.559 251.832 966.424 251.76C966.367 251.731 966.317 251.709 966.26 251.68C966.203 251.658 966.218 251.665 966.31 251.709C966.282 251.694 966.246 251.68 966.21 251.672C965.99 251.593 965.762 251.527 965.527 251.476C965.485 251.462 965.435 251.454 965.385 251.447C965.186 251.411 965.591 251.469 965.399 251.447C965.307 251.44 965.207 251.425 965.115 251.425C964.851 251.411 964.581 251.418 964.318 251.447C963.855 251.505 963.414 250.989 963.428 250.539C963.457 250.001 963.827 249.688 964.318 249.63C966.424 249.383 968.558 250.51 969.512 252.457C969.718 252.879 969.633 253.461 969.192 253.7C968.786 253.918 968.196 253.824 967.975 253.373Z" fill="black"/>
<path d="M945.285 250.866C945.214 250.844 945.135 250.829 945.064 250.815C944.986 250.8 944.858 250.815 945.121 250.822C945.086 250.822 945.043 250.815 945.007 250.815C944.851 250.8 944.687 250.808 944.531 250.822C944.403 250.837 944.616 250.815 944.63 250.808C944.609 250.822 944.524 250.829 944.495 250.829C944.424 250.844 944.346 250.866 944.275 250.888C944.203 250.909 944.132 250.931 944.061 250.96C943.99 250.989 943.883 251.062 944.104 250.939C944.075 250.946 944.033 250.96 944.004 250.975C943.869 251.04 943.734 251.12 943.613 251.207C943.584 251.229 943.556 251.258 943.52 251.273C943.727 251.142 943.62 251.193 943.556 251.244C943.499 251.295 943.442 251.346 943.392 251.404C943.335 251.462 943.286 251.513 943.236 251.571C943.221 251.593 943.122 251.716 943.221 251.585C943.314 251.462 943.229 251.578 943.214 251.607C943.165 251.68 943.122 251.753 943.086 251.825C943.051 251.898 942.93 252.167 943.051 251.883C942.958 252.109 942.859 252.298 942.645 252.429C942.439 252.545 942.154 252.596 941.941 252.523C941.727 252.45 941.521 252.312 941.407 252.109C941.3 251.905 941.229 251.629 941.315 251.411C941.507 250.946 941.742 250.531 942.09 250.161C942.375 249.856 942.723 249.594 943.101 249.412C943.926 248.998 944.865 248.86 945.754 249.114C946.203 249.245 946.523 249.761 946.373 250.233C946.231 250.699 945.769 251.004 945.285 250.866Z" fill="black"/>
</g>
<circle cx="965.57" cy="269.226" r="2.02426" fill="#FF9999"/>
<circle cx="943.303" cy="271.25" r="2.02426" fill="#FF9999"/>
</g>
<g clip-path="url(#clip7)">
<path d="M333.948 393.134L335.51 419.021C335.51 419.021 344.878 382.039 351.124 380.19C357.369 378.341 379.228 402.379 391.719 402.379C404.21 402.379 404.21 406.078 407.333 402.379C410.456 398.681 413.578 387.587 407.333 376.492C401.087 365.398 394.842 361.7 390.158 356.152C385.474 350.605 354.246 333.963 348.001 346.907C341.755 359.851 327.703 352.454 323.019 358.001C318.335 363.549 310.528 378.341 315.212 389.436C315.212 389.436 326.142 387.587 333.948 393.134Z" fill="#56028B"/>
</g>
<path d="M797.037 901.235C829.256 924.183 858.787 901.235 858.787 901.235L858.662 901.004L859.558 900.647C859.558 900.647 899.363 919.569 903.782 927.141C908.2 934.713 890.819 1053.14 882.024 1066.4C873.229 1079.65 828.506 1096.35 746.561 1071.74C746.561 1071.74 726.346 988.003 752.918 940.735C778.718 894.786 796.433 900.273 797.454 900.63C797.329 900.838 797.19 901.041 797.037 901.235Z" fill="#D36E3C"/>
<path d="M802.622 871.285C822.274 873.174 843.906 862.537 858.599 844.133C834.737 884.79 804.185 883.33 803.122 883.33C803.393 879.31 803.225 875.278 802.622 871.285V871.285Z" fill="#843703"/>
<path d="M863.914 839.785C863.455 839.5 862.997 839.179 862.559 838.859L862.142 839.269C861.017 840.908 859.85 842.493 858.62 844.026C844.032 862.502 822.296 873.138 802.643 871.25C799.06 870.918 795.551 870.15 792.223 868.969C772.466 862.003 762.233 841.995 764.422 819.243H764.255C757.92 816.427 753.152 811.576 751 805.755C746.561 794.655 751.834 783.128 762.713 779.992C765.427 779.259 768.299 779.053 771.118 779.389C773.937 779.725 776.634 780.594 779.01 781.934C796.245 758.416 824.546 746.354 847.45 754.425C865.414 760.768 875.501 777.872 875.543 798.023C885.338 794.459 896.112 795.475 903.01 801.372C912.66 809.621 911.076 824.338 899.488 834.244C888.735 843.438 873.73 846.039 863.914 839.785Z" fill="#D36E3C"/>
<path d="M862.559 838.788C862.997 839.108 863.456 839.429 863.914 839.714C862.163 844.649 848.805 883.615 858.6 900.933L858.725 901.164C858.725 901.164 829.194 924.183 797.037 901.235C797.211 901.042 797.372 900.84 797.516 900.63C798.809 898.848 802.414 893.271 803.164 883.347C804.227 883.347 834.779 884.79 858.641 844.061C859.871 842.529 861.038 840.943 862.163 839.304L862.559 838.788Z" fill="#D36E3C"/>
<path d="M841.439 1017.75C841.439 1017.75 861.273 996.698 870.31 997.57C879.347 998.442 891.097 1110.13 879.138 1116.15C867.178 1122.17 698.668 1120.27 698.668 1120.27C698.668 1120.27 690.722 1100.83 686.884 1101.9L839.55 1087.92L841.439 1017.75Z" fill="#D36E3C"/>
<path d="M698.667 1120.27L632.039 1123.88C632.039 1123.88 630.184 1100.73 687.768 1101.99C745.353 1103.24 698.667 1120.27 698.667 1120.27Z" fill="#D36E3C"/>
<g clip-path="url(#clip8)">
<path d="M780.305 783.519C778.708 787.632 777.11 791.744 775.508 795.871C773.276 791.607 769.998 789.011 766.914 789.545C766.368 789.642 765.745 789.854 765.058 790.278C764.761 787.025 764.676 781.947 766.221 776.006C767.297 771.86 768.829 768.526 770.163 766.132C768.064 760.91 769.684 754.393 771.332 748.529C773.051 742.38 775.323 735.46 780.378 732.645C783.957 730.648 788.088 731.288 791.701 729.362C795.413 727.389 797.907 723.085 801.205 720.204C807.103 715.048 815.043 714.973 821.433 717.643C829.825 721.144 829.686 725.894 838.592 729.779C847.806 733.803 850.179 728.694 857.907 731.704C873.932 737.926 878.364 765.579 879.926 775.246C881.003 781.959 881.723 786.367 880.935 792.535C879.086 807.184 870.751 817.384 866.697 821.758C866.42 820.63 865.952 819.906 865.544 819.446C863.567 817.179 859.592 817.046 855.538 819.039C856.479 815.114 857.423 811.174 858.363 807.248C857.494 805.528 856.246 802.788 855.217 799.224C852.81 790.93 854.758 789.38 852.975 784.13C850.171 775.902 842.942 771.368 835.927 767.988C833.127 766.641 812.919 756.692 800.1 767.528C798.207 769.125 797.259 770.515 795.371 772.283C794.225 773.352 793.258 774.059 792.546 774.614C788.21 777.966 782.25 782.167 780.305 783.519Z" fill="#FFA800"/>
</g>
<g clip-path="url(#clip9)">
<path d="M810.912 810.06C808.473 815.977 804.35 821.25 798.818 825.443C799.023 824.907 799.229 824.372 799.434 823.836C800.608 827.127 803.639 829.505 806.952 831.185C809.005 832.222 806.872 835.085 804.825 834.035C800.619 831.896 797.188 828.84 795.72 824.716C795.531 824.186 795.848 823.482 796.336 823.11C801.355 819.311 805.109 814.591 807.324 809.218C808.153 807.176 811.755 808.02 810.912 810.06Z" fill="#762A00"/>
<path d="M822.192 839.162C820.711 845.902 814.548 851.989 806.284 852.206C798.746 852.412 792.674 847.765 790.673 841.793C790.262 840.571 791.86 839.473 793.148 839.76C801.684 841.623 811.033 840.952 819.449 837.755C820.423 837.386 821.499 837.527 822 838.353C822.419 839.063 822.095 840.237 821.135 840.61C811.746 844.176 801.486 845.05 791.922 842.961C792.748 842.279 793.57 841.61 794.396 840.929C795.91 845.424 800.541 848.956 806.173 848.928C812.31 848.894 817.267 844.275 818.387 839.215C818.585 838.331 819.267 837.573 820.393 837.545C821.317 837.512 822.39 838.278 822.192 839.162Z" fill="#762A00"/>
<path d="M830.224 807.111C831.104 807.15 831.668 807.81 832.089 808.312C834.033 810.616 832.624 813.843 832.507 814.274C832.01 816.228 830.419 818.454 828.14 818.42C826.605 818.408 825.464 817.042 825.037 815.983C824.496 814.606 825.033 813.37 825.608 812.032C825.715 811.751 827.801 807.001 830.224 807.111Z" fill="black"/>
<path d="M791.275 797.98C792.155 798.02 792.718 798.68 793.139 799.182C795.083 801.486 793.675 804.713 793.557 805.144C793.06 807.098 791.47 809.324 789.19 809.289C787.656 809.277 786.514 807.912 786.087 806.853C785.547 805.475 786.073 804.223 786.644 802.898C786.78 802.624 788.866 797.874 791.275 797.98Z" fill="black"/>
<path d="M841.407 801.978C841.347 801.644 841.281 801.323 841.187 800.995C841.149 800.889 841.111 800.783 841.088 800.68C840.965 800.304 841.249 800.996 841.074 800.635C840.974 800.445 840.893 800.246 840.788 800.068C840.645 799.826 840.483 799.594 840.321 799.361C840.12 799.106 840.369 799.4 840.244 799.274C840.154 799.183 840.082 799.083 839.986 799.005C839.785 798.791 839.575 798.603 839.35 798.411C839.254 798.333 839.168 798.271 839.072 798.193C838.972 798.128 838.996 798.147 839.154 798.268C839.106 798.229 839.043 798.186 838.976 798.157C838.583 797.912 838.166 797.689 837.725 797.488C837.648 797.442 837.552 797.406 837.456 797.369C837.077 797.211 837.859 797.506 837.485 797.376C837.302 797.32 837.111 797.247 836.923 797.203C836.4 797.052 835.847 796.937 835.295 796.863C834.319 796.745 833.772 795.63 834.104 794.847C834.523 793.916 835.482 793.544 836.515 793.675C840.947 794.241 844.513 797.231 845.135 801.101C845.27 801.939 844.706 802.918 843.652 803.13C842.684 803.32 841.551 802.874 841.407 801.978Z" fill="black"/>
<path d="M797.139 786.807C797.01 786.735 796.861 786.672 796.727 786.613C796.578 786.55 796.309 786.515 796.837 786.652C796.765 786.636 796.684 786.603 796.612 786.586C796.304 786.486 795.968 786.421 795.641 786.372C795.372 786.337 795.819 786.4 795.853 786.394C795.8 786.409 795.622 786.381 795.564 786.368C795.411 786.36 795.237 786.361 795.079 786.365C794.92 786.37 794.761 786.374 794.597 786.391C794.434 786.409 794.169 786.485 794.699 786.373C794.636 786.373 794.54 786.378 794.472 786.39C794.155 786.44 793.827 786.517 793.524 786.612C793.451 786.637 793.374 786.674 793.292 786.683C793.798 786.551 793.548 786.59 793.384 786.649C793.235 786.711 793.085 786.773 792.945 786.852C792.791 786.927 792.656 786.992 792.516 787.071C792.472 787.102 792.188 787.272 792.477 787.089C792.748 786.917 792.497 787.08 792.448 787.124C792.298 787.228 792.163 787.335 792.042 787.446C791.921 787.557 791.496 787.971 791.931 787.531C791.592 787.883 791.264 788.167 790.744 788.295C790.248 788.401 789.637 788.355 789.254 788.126C788.87 787.898 788.545 787.557 788.451 787.146C788.372 786.738 788.413 786.22 788.733 785.878C789.434 785.153 790.188 784.538 791.143 784.053C791.925 783.653 792.806 783.359 793.692 783.219C795.642 782.884 797.637 783.088 799.267 783.956C800.087 784.399 800.389 785.456 799.769 786.214C799.168 786.963 798.027 787.279 797.139 786.807Z" fill="black"/>
</g>
<path d="M740.759 933.152C740.759 933.152 692.275 987.219 676.368 992.666C640.1 1005.08 607.597 906.096 597.377 888.291C587.546 871.159 602.525 826.212 596.071 818.155C589.616 810.097 582.778 845.548 578.09 843.303C573.403 841.057 565.95 800.745 561.262 798.5C556.575 796.254 560.417 845.759 559.111 836.196C557.805 826.633 544.973 789.702 539.824 791.208C534.676 792.713 546.356 839.022 541.899 834.901C537.443 830.78 530.219 788.592 524.841 791.973C519.462 795.354 534.292 836.222 529.374 835.852C524.457 835.481 514.698 813.925 509.55 815.431C504.402 816.936 505.324 870.007 543.283 884.221C543.283 884.221 545.741 884.406 553.502 902.026C561.263 919.646 605.523 1044.12 661.846 1050.25C718.169 1056.38 800.386 952.781 792.395 937.037C784.403 921.292 764.272 923.563 740.759 933.152Z" fill="#D36E3C"/>
<g clip-path="url(#clip10)">
<path d="M701.147 1089.7L644.296 1094.9C681.807 1091.83 673.298 1134.63 673.298 1134.63C673.298 1134.63 922.594 1132.73 941.114 1113.56C959.635 1094.4 930.664 889.955 864.436 909.267C798.208 928.579 786.419 898.584 786.419 898.584C786.419 898.584 746.241 892.109 721.456 937.686C721.456 937.686 655.514 1012.96 612.658 880.912C612.658 880.912 588.058 905.785 541.472 897.737C541.472 897.737 542.091 1019 638.302 1052.57C645.105 1054.91 652.306 1056.48 659.681 1057.22C673.763 1058.67 698.602 1060.11 706.92 1053.53L701.147 1089.7Z" fill="#4EC700"/>
<path d="M859.859 981.401C859.859 981.401 865.759 1054.41 856.499 1064C847.239 1073.58 707.111 1090.84 707.111 1090.84C748.791 1086.78 789.39 1077.6 827.407 1063.63C863.701 1050.1 855.605 1012.48 859.859 981.401Z" fill="#208B06"/>
<path d="M630.681 1049.21C630.681 1049.21 696.819 1069.26 722.07 1000.93L706.64 1055.58C706.64 1055.58 673.245 1067.28 630.681 1049.21Z" fill="#208B06"/>
</g>
<g clip-path="url(#clip11)">
<path d="M666.173 1163.9L755.608 1127.45C755.95 1127.32 756.239 1127.08 756.432 1126.76C756.624 1126.45 756.709 1126.08 756.673 1125.72C756.637 1125.35 756.483 1125.01 756.234 1124.74C755.984 1124.47 755.654 1124.29 755.292 1124.23L670.698 1107.02L666.173 1163.9Z" fill="#D4145A"/>
<path d="M663.297 1163.76L466.401 1117.85C464.868 1117.48 463.501 1116.62 462.521 1115.38C461.541 1114.15 461.005 1112.62 461 1111.05V935.263C460.993 934.267 461.198 933.281 461.602 932.371C462.006 931.46 462.599 930.646 463.343 929.983C464.086 929.32 464.962 928.822 465.913 928.524C466.864 928.226 467.867 928.133 468.856 928.253L675.537 954.542C677.285 954.768 678.883 955.644 680.014 956.995C681.145 958.346 681.725 960.073 681.64 961.832L671.855 1157.32C671.798 1158.33 671.52 1159.33 671.04 1160.23C670.56 1161.13 669.889 1161.91 669.074 1162.53C668.259 1163.14 667.32 1163.57 666.323 1163.78C665.325 1164 664.292 1163.99 663.297 1163.76Z" fill="#FFB8C9"/>
</g>
<path d="M569.745 1039.16C569.745 1051.37 559.853 1061.26 547.65 1061.26C535.448 1061.26 525.556 1051.37 525.556 1039.16C525.556 1026.96 535.448 1017.07 547.65 1017.07C559.853 1017.07 569.745 1026.96 569.745 1039.16Z" stroke="#EC297B" stroke-width="2.02426"/>
<circle cx="567.291" cy="1053.03" r="22.0945" stroke="#EC297B" stroke-width="2.02426"/>
<g clip-path="url(#clip12)">
<path d="M483.145 560.967C493.349 547.174 503.398 534.019 509.311 527.238C520.215 514.731 523.161 504.696 522.361 499.773C521.91 497.294 521.91 494.756 522.361 492.277C523.617 486.002 523.194 475.319 529.697 465.307C539.312 450.503 535.277 433.336 541.412 435.38C545.981 436.908 549.193 456.734 547.759 460.779L546.381 464.823C546.381 464.823 561.376 457.79 569.979 459.185C574.859 459.977 574.425 469.813 576.504 472.517C578.427 474.945 580.405 481.375 579.405 487.837C578.738 492.453 582.44 495.124 580.283 499.575C576.515 507.29 565.177 512.939 556.074 512.5C555.104 512.448 554.138 512.661 553.281 513.114C552.425 513.568 551.711 514.244 551.216 515.071L493.005 614.358L489.67 617.655C485.224 620.952 448.487 608.489 448.487 608.489" fill="#D36E3C"/>
<path d="M364.412 492.915C364.239 490.45 364.729 487.984 365.831 485.766C366.932 483.548 368.607 481.658 370.685 480.286C372.763 478.914 375.171 478.109 377.665 477.953C380.158 477.797 382.65 478.295 384.886 479.396C407.695 490.639 421.867 529.732 485.225 579.189C485.225 579.189 507.401 590.278 492.473 614.666C490.855 617.307 488.399 619.345 485.488 620.462C482.577 621.58 479.374 621.713 476.377 620.842C465.667 617.745 455.533 612.957 446.366 606.665C413.019 583.365 372.281 541.184 368.046 519.028C366.321 510.401 365.108 501.681 364.412 492.915V492.915Z" fill="#D36E3C"/>
</g>
<path d="M322.007 469.236C322.007 469.236 351.255 496.424 362.504 469.236C362.504 469.236 412.563 469.802 453.06 533.242C453.06 533.242 459.809 574.024 415.938 591.017L395.689 572.892C395.689 572.892 395.689 623.87 387.815 637.464C379.94 651.058 337.193 672.583 274.198 634.066L271.948 579.689L251.7 603.479C251.7 603.479 202.203 593.283 194.329 564.962C194.329 565.018 277.573 452.866 322.007 469.236Z" fill="#B87BFB"/>
<path d="M272.511 579.122L283.018 639.141L274.761 633.499L272.511 579.122Z" fill="#56028B"/>
<path d="M424.949 586.826L396.252 573.458L415.376 591.584L424.949 586.826Z" fill="#56028B"/>
<defs>
<filter id="filter0_d" x="328.66" y="562.757" width="729.679" height="114.679" filterUnits="userSpaceOnUse" color-interpolation-filters="sRGB">
<feFlood flood-opacity="0" result="BackgroundImageFix"/>
<feColorMatrix in="SourceAlpha" type="matrix" values="0 0 0 0 0 0 0 0 0 0 0 0 0 0 0 0 0 0 127 0"/>
<feOffset dy="8.09703"/>
<feGaussianBlur stdDeviation="14.1698"/>
<feColorMatrix type="matrix" values="0 0 0 0 0.305349 0 0 0 0 0.779167 0 0 0 0 0 0 0 0 0.45 0"/>
<feBlend mode="normal" in2="BackgroundImageFix" result="effect1_dropShadow"/>
<feBlend mode="normal" in="SourceGraphic" in2="effect1_dropShadow" result="shape"/>
</filter>
<filter id="filter1_d" x="328.66" y="628.757" width="729.679" height="502.679" filterUnits="userSpaceOnUse" color-interpolation-filters="sRGB">
<feFlood flood-opacity="0" result="BackgroundImageFix"/>
<feColorMatrix in="SourceAlpha" type="matrix" values="0 0 0 0 0 0 0 0 0 0 0 0 0 0 0 0 0 0 127 0"/>
<feOffset dy="8.09703"/>
<feGaussianBlur stdDeviation="14.1698"/>
<feColorMatrix type="matrix" values="0 0 0 0 0.305349 0 0 0 0 0.779167 0 0 0 0 0 0 0 0 0.45 0"/>
<feBlend mode="normal" in2="BackgroundImageFix" result="effect1_dropShadow"/>
<feBlend mode="normal" in="SourceGraphic" in2="effect1_dropShadow" result="shape"/>
</filter>
<filter id="filter2_d" x="665.98" y="113.358" width="502.016" height="105.261" filterUnits="userSpaceOnUse" color-interpolation-filters="sRGB">
<feFlood flood-opacity="0" result="BackgroundImageFix"/>
<feColorMatrix in="SourceAlpha" type="matrix" values="0 0 0 0 0 0 0 0 0 0 0 0 0 0 0 0 0 0 127 0"/>
<feOffset dy="8.09703"/>
<feGaussianBlur stdDeviation="14.1698"/>
<feColorMatrix type="matrix" values="0 0 0 0 0.92549 0 0 0 0 0.160784 0 0 0 0 0.482353 0 0 0 0.25 0"/>
<feBlend mode="normal" in2="BackgroundImageFix" result="effect1_dropShadow"/>
<feBlend mode="normal" in="SourceGraphic" in2="effect1_dropShadow" result="shape"/>
</filter>
<filter id="filter3_d" x="665.98" y="168.013" width="502.016" height="327.93" filterUnits="userSpaceOnUse" color-interpolation-filters="sRGB">
<feFlood flood-opacity="0" result="BackgroundImageFix"/>
<feColorMatrix in="SourceAlpha" type="matrix" values="0 0 0 0 0 0 0 0 0 0 0 0 0 0 0 0 0 0 127 0"/>
<feOffset dy="8.09703"/>
<feGaussianBlur stdDeviation="14.1698"/>
<feColorMatrix type="matrix" values="0 0 0 0 0.92549 0 0 0 0 0.160784 0 0 0 0 0.482353 0 0 0 0.25 0"/>
<feBlend mode="normal" in2="BackgroundImageFix" result="effect1_dropShadow"/>
<feBlend mode="normal" in="SourceGraphic" in2="effect1_dropShadow" result="shape"/>
</filter>
<filter id="filter4_d" x="87.0434" y="402.827" width="416.997" height="109.31" filterUnits="userSpaceOnUse" color-interpolation-filters="sRGB">
<feFlood flood-opacity="0" result="BackgroundImageFix"/>
<feColorMatrix in="SourceAlpha" type="matrix" values="0 0 0 0 0 0 0 0 0 0 0 0 0 0 0 0 0 0 127 0"/>
<feOffset dy="6.07277"/>
<feGaussianBlur stdDeviation="15.1819"/>
<feColorMatrix type="matrix" values="0 0 0 0 0.782721 0 0 0 0 0.179167 0 0 0 0 1 0 0 0 0.25 0"/>
<feBlend mode="normal" in2="BackgroundImageFix" result="effect1_dropShadow"/>
<feBlend mode="normal" in="SourceGraphic" in2="effect1_dropShadow" result="shape"/>
</filter>
<filter id="filter5_d" x="87.0434" y="459.506" width="416.997" height="319.833" filterUnits="userSpaceOnUse" color-interpolation-filters="sRGB">
<feFlood flood-opacity="0" result="BackgroundImageFix"/>
<feColorMatrix in="SourceAlpha" type="matrix" values="0 0 0 0 0 0 0 0 0 0 0 0 0 0 0 0 0 0 127 0"/>
<feOffset dy="6.07277"/>
<feGaussianBlur stdDeviation="15.1819"/>
<feColorMatrix type="matrix" values="0 0 0 0 0.782721 0 0 0 0 0.179167 0 0 0 0 1 0 0 0 0.25 0"/>
<feBlend mode="normal" in2="BackgroundImageFix" result="effect1_dropShadow"/>
<feBlend mode="normal" in="SourceGraphic" in2="effect1_dropShadow" result="shape"/>
</filter>
<clipPath id="clip0">
<rect width="399.144" height="733.243" fill="white" transform="matrix(-1 0 0 1 594.086 362.342)"/>
</clipPath>
<clipPath id="clip1">
<rect width="183.311" height="437.58" fill="white" transform="matrix(-1 0 0 1 437.385 610.698)"/>
</clipPath>
<clipPath id="clip2">
<rect width="41.3927" height="47.306" fill="white" transform="translate(345.729 394.865)"/>
</clipPath>
<clipPath id="clip3">
<rect width="109.31" height="180.159" fill="white" transform="translate(914.964 208.498)"/>
</clipPath>
<clipPath id="clip4">
<rect width="273.275" height="502.016" fill="white" transform="translate(799.581 226.717)"/>
</clipPath>
<clipPath id="clip5">
<rect width="125.504" height="299.59" fill="white" transform="translate(906.867 396.754)"/>
</clipPath>
<clipPath id="clip6">
<rect width="28.3396" height="32.3881" fill="white" transform="matrix(-1 0 0 1 969.619 248.984)"/>
</clipPath>
<clipPath id="clip7">
<rect width="97.1643" height="76.9217" fill="white" transform="translate(313.76 342.099)"/>
</clipPath>
<clipPath id="clip8">
<rect width="118.31" height="88.2587" fill="white" transform="translate(783.971 706.264) rotate(16.702)"/>
</clipPath>
<clipPath id="clip9">
<rect width="58.9504" height="66.2653" fill="white" transform="matrix(-0.973607 -0.228233 -0.357591 0.933878 847.686 795.057)"/>
</clipPath>
<clipPath id="clip10">
<rect width="428.491" height="248.104" fill="white" transform="matrix(0.996506 0.083524 -0.135644 0.990758 544.557 875.204)"/>
</clipPath>
<clipPath id="clip11">
<rect width="295.765" height="235.687" fill="white" transform="translate(461 928.253)"/>
</clipPath>
<clipPath id="clip12">
<rect width="216.595" height="186.232" fill="white" transform="matrix(-1 0 0 1 580.961 435.215)"/>
</clipPath>
</defs>
</svg>
